<svg width="1437" height="72" viewBox="0 0 1437 72" fill="none" xmlns="http://www.w3.org/2000/svg">
<path opacity="0.29" d="M0 21.75L59.94 21.6C120.06 21.4313 239.94 21.1313 360 22.8375C480.06 24.5625 599.94 28.3125 720 28.8375C840.636 29.385 959.688 26.6813 1080 26.3438C1180.64 26.0606 1280.9 27.3356 1380.06 29.0063L1440 30V0H0V21.75Z" fill="white" fill-opacity="0.1"/>
<path opacity="0.29" d="M0 52.2L59.94 51.84C120.06 51.435 239.94 50.715 360 54.81C480.06 58.95 599.94 67.95 720 69.21C840.636 70.524 959.688 64.035 1080 63.225C1180.64 62.5455 1280.9 65.6055 1380.06 69.615L1440 72V0H0V52.2Z" fill="white" fill-opacity="0.1"/>
</svg>
