<svg width="271" height="209" viewBox="0 0 271 209" fill="none" xmlns="http://www.w3.org/2000/svg">
<g filter="url(#filter0_d_528_1341)">
<rect x="44" y="40.7644" width="183" height="120" rx="24" fill="white" shape-rendering="crispEdges"/>
<path d="M76.7556 80.4924H72.2276L71.4276 82.7644H69.0436L73.2036 71.5964H75.7796L79.9236 82.7644H77.5396L76.7556 80.4924ZM76.1476 78.7804L74.4836 74.0124L72.8196 78.7804H76.1476ZM83.3972 75.5964C83.7279 75.0311 84.1652 74.5884 84.7092 74.2684C85.2532 73.9377 85.8612 73.7724 86.5332 73.7724V76.1884H85.8772C84.2239 76.1884 83.3972 76.9564 83.3972 78.4924V82.7644H81.1412V73.9004H83.3972V75.5964ZM96.1178 77.9964C96.1178 78.2204 96.0911 78.4764 96.0378 78.7644H89.5418C89.5738 79.5537 89.7871 80.1351 90.1818 80.5084C90.5765 80.8817 91.0671 81.0684 91.6538 81.0684C92.1765 81.0684 92.6085 80.9404 92.9498 80.6844C93.3018 80.4284 93.5258 80.0817 93.6218 79.6444H96.0058C95.8885 80.2631 95.6378 80.8177 95.2538 81.3084C94.8698 81.7991 94.3738 82.1831 93.7658 82.4604C93.1685 82.7377 92.5018 82.8764 91.7658 82.8764C90.9018 82.8764 90.1338 82.6951 89.4618 82.3324C88.7898 81.9591 88.2671 81.4311 87.8938 80.7484C87.5205 80.0657 87.3338 79.2604 87.3338 78.3324C87.3338 77.4044 87.5205 76.5991 87.8938 75.9164C88.2671 75.2231 88.7898 74.6951 89.4618 74.3324C90.1338 73.9697 90.9018 73.7884 91.7658 73.7884C92.6405 73.7884 93.4031 73.9697 94.0538 74.3324C94.7151 74.6951 95.2218 75.1964 95.5738 75.8364C95.9365 76.4657 96.1178 77.1857 96.1178 77.9964ZM93.8458 77.7724C93.8778 77.0471 93.6858 76.4977 93.2698 76.1244C92.8645 75.7511 92.3631 75.5644 91.7658 75.5644C91.1578 75.5644 90.6458 75.7511 90.2298 76.1244C89.8138 76.4977 89.5845 77.0471 89.5418 77.7724H93.8458ZM102.724 73.9004L105.14 79.9164L107.38 73.9004H109.86L104.436 86.9884H101.94L103.94 82.5084L100.212 73.9004H102.724ZM115.018 73.7884C115.882 73.7884 116.656 73.9697 117.338 74.3324C118.032 74.6951 118.576 75.2231 118.97 75.9164C119.365 76.5991 119.562 77.4044 119.562 78.3324C119.562 79.2604 119.365 80.0657 118.97 80.7484C118.576 81.4311 118.032 81.9591 117.338 82.3324C116.656 82.6951 115.882 82.8764 115.018 82.8764C114.154 82.8764 113.376 82.6951 112.682 82.3324C112 81.9591 111.461 81.4311 111.066 80.7484C110.672 80.0657 110.474 79.2604 110.474 78.3324C110.474 77.4044 110.672 76.5991 111.066 75.9164C111.461 75.2231 112 74.6951 112.682 74.3324C113.376 73.9697 114.154 73.7884 115.018 73.7884ZM115.018 75.7404C114.389 75.7404 113.856 75.9644 113.418 76.4124C112.981 76.8497 112.762 77.4897 112.762 78.3324C112.762 79.1751 112.981 79.8204 113.418 80.2684C113.856 80.7057 114.389 80.9244 115.018 80.9244C115.648 80.9244 116.181 80.7057 116.618 80.2684C117.056 79.8204 117.274 79.1751 117.274 78.3324C117.274 77.4897 117.056 76.8497 116.618 76.4124C116.181 75.9644 115.648 75.7404 115.018 75.7404ZM129.637 73.9004V82.7644H127.381V80.9724C127.146 81.5697 126.757 82.0391 126.213 82.3804C125.679 82.7111 125.061 82.8764 124.357 82.8764C123.333 82.8764 122.517 82.5404 121.909 81.8684C121.301 81.1964 120.997 80.2577 120.997 79.0524V73.9004H123.237V78.7964C123.237 79.5004 123.418 80.0497 123.781 80.4444C124.143 80.8284 124.634 81.0204 125.253 81.0204C125.903 81.0204 126.421 80.8124 126.805 80.3964C127.189 79.9804 127.381 79.3831 127.381 78.6044V73.9004H129.637ZM137.428 75.5964C137.759 75.0311 138.196 74.5884 138.74 74.2684C139.284 73.9377 139.892 73.7724 140.564 73.7724V76.1884H139.908C138.255 76.1884 137.428 76.9564 137.428 78.4924V82.7644H135.172V73.9004H137.428V75.5964ZM150.149 77.9964C150.149 78.2204 150.122 78.4764 150.069 78.7644H143.573C143.605 79.5537 143.818 80.1351 144.213 80.5084C144.608 80.8817 145.098 81.0684 145.685 81.0684C146.208 81.0684 146.64 80.9404 146.981 80.6844C147.333 80.4284 147.557 80.0817 147.653 79.6444H150.037C149.92 80.2631 149.669 80.8177 149.285 81.3084C148.901 81.7991 148.405 82.1831 147.797 82.4604C147.2 82.7377 146.533 82.8764 145.797 82.8764C144.933 82.8764 144.165 82.6951 143.493 82.3324C142.821 81.9591 142.298 81.4311 141.925 80.7484C141.552 80.0657 141.365 79.2604 141.365 78.3324C141.365 77.4044 141.552 76.5991 141.925 75.9164C142.298 75.2231 142.821 74.6951 143.493 74.3324C144.165 73.9697 144.933 73.7884 145.797 73.7884C146.672 73.7884 147.434 73.9697 148.085 74.3324C148.746 74.6951 149.253 75.1964 149.605 75.8364C149.968 76.4657 150.149 77.1857 150.149 77.9964ZM147.877 77.7724C147.909 77.0471 147.717 76.4977 147.301 76.1244C146.896 75.7511 146.394 75.5644 145.797 75.5644C145.189 75.5644 144.677 75.7511 144.261 76.1244C143.845 76.4977 143.616 77.0471 143.573 77.7724H147.877ZM155.223 73.7884C155.969 73.7884 156.609 73.9644 157.143 74.3164C157.676 74.6684 158.055 75.1431 158.279 75.7404V73.9004H160.519V82.7644H158.279V80.9084C158.055 81.5057 157.676 81.9857 157.143 82.3484C156.609 82.7004 155.969 82.8764 155.223 82.8764C154.476 82.8764 153.804 82.6951 153.207 82.3324C152.609 81.9697 152.14 81.4471 151.799 80.7644C151.468 80.0711 151.303 79.2604 151.303 78.3324C151.303 77.4044 151.468 76.5991 151.799 75.9164C152.14 75.2231 152.609 74.6951 153.207 74.3324C153.804 73.9697 154.476 73.7884 155.223 73.7884ZM155.927 75.7564C155.223 75.7564 154.657 75.9857 154.231 76.4444C153.804 76.9031 153.591 77.5324 153.591 78.3324C153.591 79.1324 153.804 79.7617 154.231 80.2204C154.657 80.6684 155.223 80.8924 155.927 80.8924C156.609 80.8924 157.169 80.6631 157.607 80.2044C158.055 79.7351 158.279 79.1111 158.279 78.3324C158.279 77.5431 158.055 76.9191 157.607 76.4604C157.169 75.9911 156.609 75.7564 155.927 75.7564ZM166.035 73.7884C166.782 73.7884 167.416 73.9644 167.939 74.3164C168.472 74.6684 168.856 75.1431 169.091 75.7404V70.9244H171.331V82.7644H169.091V80.9084C168.856 81.5057 168.472 81.9857 167.939 82.3484C167.416 82.7004 166.782 82.8764 166.035 82.8764C165.288 82.8764 164.616 82.6951 164.019 82.3324C163.422 81.9697 162.952 81.4471 162.611 80.7644C162.28 80.0711 162.115 79.2604 162.115 78.3324C162.115 77.4044 162.28 76.5991 162.611 75.9164C162.952 75.2231 163.422 74.6951 164.019 74.3324C164.616 73.9697 165.288 73.7884 166.035 73.7884ZM166.739 75.7564C166.035 75.7564 165.47 75.9857 165.043 76.4444C164.616 76.9031 164.403 77.5324 164.403 78.3324C164.403 79.1324 164.616 79.7617 165.043 80.2204C165.47 80.6684 166.035 80.8924 166.739 80.8924C167.422 80.8924 167.982 80.6631 168.419 80.2044C168.867 79.7351 169.091 79.1111 169.091 78.3324C169.091 77.5431 168.867 76.9191 168.419 76.4604C167.982 75.9911 167.422 75.7564 166.739 75.7564ZM174.896 73.9004L177.312 79.9164L179.552 73.9004H182.032L176.608 86.9884H174.112L176.112 82.5084L172.384 73.9004H174.896ZM191.315 80.8284V82.7644H190.131C189.139 82.7644 188.376 82.5244 187.843 82.0444C187.32 81.5644 187.059 80.7644 187.059 79.6444V75.8044H185.827V73.9004H187.059V71.7084H189.315V73.9004H191.299V75.8044H189.315V79.6764C189.315 80.1031 189.4 80.4017 189.571 80.5724C189.741 80.7431 190.029 80.8284 190.435 80.8284H191.315ZM197.034 73.7884C197.898 73.7884 198.671 73.9697 199.354 74.3324C200.047 74.6951 200.591 75.2231 200.986 75.9164C201.381 76.5991 201.578 77.4044 201.578 78.3324C201.578 79.2604 201.381 80.0657 200.986 80.7484C200.591 81.4311 200.047 81.9591 199.354 82.3324C198.671 82.6951 197.898 82.8764 197.034 82.8764C196.17 82.8764 195.391 82.6951 194.698 82.3324C194.015 81.9591 193.477 81.4311 193.082 80.7484C192.687 80.0657 192.49 79.2604 192.49 78.3324C192.49 77.4044 192.687 76.5991 193.082 75.9164C193.477 75.2231 194.015 74.6951 194.698 74.3324C195.391 73.9697 196.17 73.7884 197.034 73.7884ZM197.034 75.7404C196.405 75.7404 195.871 75.9644 195.434 76.4124C194.997 76.8497 194.778 77.4897 194.778 78.3324C194.778 79.1751 194.997 79.8204 195.434 80.2684C195.871 80.7057 196.405 80.9244 197.034 80.9244C197.663 80.9244 198.197 80.7057 198.634 80.2684C199.071 79.8204 199.29 79.1751 199.29 78.3324C199.29 77.4897 199.071 76.8497 198.634 76.4124C198.197 75.9644 197.663 75.7404 197.034 75.7404ZM85.5462 97.7724C86.5702 97.7724 87.3862 98.1084 87.9942 98.7804C88.6022 99.4524 88.9062 100.396 88.9062 101.612V106.764H86.6662V101.868C86.6662 101.164 86.4849 100.62 86.1222 100.236C85.7595 99.8417 85.2635 99.6444 84.6342 99.6444C83.9942 99.6444 83.4822 99.8524 83.0982 100.268C82.7142 100.684 82.5222 101.282 82.5222 102.06V106.764H80.2662V94.9244H82.5222V99.6764C82.7569 99.0791 83.1409 98.6151 83.6742 98.2844C84.2182 97.9431 84.8422 97.7724 85.5462 97.7724ZM99.2272 101.996C99.2272 102.22 99.2005 102.476 99.1472 102.764H92.6512C92.6832 103.554 92.8965 104.135 93.2912 104.508C93.6859 104.882 94.1765 105.068 94.7632 105.068C95.2859 105.068 95.7179 104.94 96.0592 104.684C96.4112 104.428 96.6352 104.082 96.7312 103.644H99.1152C98.9979 104.263 98.7472 104.818 98.3632 105.308C97.9792 105.799 97.4832 106.183 96.8752 106.46C96.2779 106.738 95.6112 106.876 94.8752 106.876C94.0112 106.876 93.2432 106.695 92.5712 106.332C91.8992 105.959 91.3765 105.431 91.0032 104.748C90.6299 104.066 90.4432 103.26 90.4432 102.332C90.4432 101.404 90.6299 100.599 91.0032 99.9164C91.3765 99.2231 91.8992 98.6951 92.5712 98.3324C93.2432 97.9697 94.0112 97.7884 94.8752 97.7884C95.7499 97.7884 96.5125 97.9697 97.1632 98.3324C97.8245 98.6951 98.3312 99.1964 98.6832 99.8364C99.0459 100.466 99.2272 101.186 99.2272 101.996ZM96.9552 101.772C96.9872 101.047 96.7952 100.498 96.3792 100.124C95.9739 99.7511 95.4725 99.5644 94.8752 99.5644C94.2672 99.5644 93.7552 99.7511 93.3392 100.124C92.9232 100.498 92.6939 101.047 92.6512 101.772H96.9552ZM103.085 94.9244V106.764H100.829V94.9244H103.085ZM110.422 97.7884C111.168 97.7884 111.84 97.9697 112.438 98.3324C113.035 98.6951 113.499 99.2231 113.83 99.9164C114.171 100.599 114.342 101.404 114.342 102.332C114.342 103.26 114.171 104.071 113.83 104.764C113.499 105.447 113.035 105.97 112.438 106.332C111.84 106.695 111.168 106.876 110.422 106.876C109.675 106.876 109.035 106.7 108.502 106.348C107.979 105.986 107.606 105.506 107.382 104.908V110.988H105.126V97.9004H107.382V99.7404C107.606 99.1431 107.979 98.6684 108.502 98.3164C109.035 97.9644 109.675 97.7884 110.422 97.7884ZM109.718 99.7564C109.035 99.7564 108.47 99.9911 108.022 100.46C107.584 100.919 107.366 101.543 107.366 102.332C107.366 103.111 107.584 103.735 108.022 104.204C108.47 104.663 109.035 104.892 109.718 104.892C110.422 104.892 110.987 104.668 111.414 104.22C111.84 103.762 112.054 103.132 112.054 102.332C112.054 101.532 111.84 100.903 111.414 100.444C110.987 99.9857 110.422 99.7564 109.718 99.7564ZM130.702 97.7724C131.78 97.7724 132.628 98.1084 133.246 98.7804C133.876 99.4417 134.19 100.386 134.19 101.612V106.764H131.95V101.868C131.95 101.186 131.774 100.663 131.422 100.3C131.081 99.9271 130.606 99.7404 129.998 99.7404C129.369 99.7404 128.868 99.9377 128.494 100.332C128.121 100.727 127.934 101.303 127.934 102.06V106.764H125.694V101.868C125.694 101.186 125.518 100.663 125.166 100.3C124.825 99.9271 124.35 99.7404 123.742 99.7404C123.113 99.7404 122.612 99.9377 122.238 100.332C121.865 100.727 121.678 101.303 121.678 102.06V106.764H119.422V97.9004H121.678V99.5804C121.913 99.0044 122.281 98.5617 122.782 98.2524C123.294 97.9324 123.886 97.7724 124.558 97.7724C125.273 97.7724 125.892 97.9431 126.414 98.2844C126.948 98.6257 127.348 99.1164 127.614 99.7564C127.892 99.1484 128.302 98.6684 128.846 98.3164C129.401 97.9537 130.02 97.7724 130.702 97.7724ZM144.508 101.996C144.508 102.22 144.482 102.476 144.428 102.764H137.932C137.964 103.554 138.178 104.135 138.572 104.508C138.967 104.882 139.458 105.068 140.044 105.068C140.567 105.068 140.999 104.94 141.34 104.684C141.692 104.428 141.916 104.082 142.012 103.644H144.396C144.279 104.263 144.028 104.818 143.644 105.308C143.26 105.799 142.764 106.183 142.156 106.46C141.559 106.738 140.892 106.876 140.156 106.876C139.292 106.876 138.524 106.695 137.852 106.332C137.18 105.959 136.658 105.431 136.284 104.748C135.911 104.066 135.724 103.26 135.724 102.332C135.724 101.404 135.911 100.599 136.284 99.9164C136.658 99.2231 137.18 98.6951 137.852 98.3324C138.524 97.9697 139.292 97.7884 140.156 97.7884C141.031 97.7884 141.794 97.9697 142.444 98.3324C143.106 98.6951 143.612 99.1964 143.964 99.8364C144.327 100.466 144.508 101.186 144.508 101.996ZM142.236 101.772C142.268 101.047 142.076 100.498 141.66 100.124C141.255 99.7511 140.754 99.5644 140.156 99.5644C139.548 99.5644 139.036 99.7511 138.62 100.124C138.204 100.498 137.975 101.047 137.932 101.772H142.236ZM154.89 97.7884C155.637 97.7884 156.309 97.9697 156.906 98.3324C157.504 98.6951 157.968 99.2231 158.298 99.9164C158.64 100.599 158.81 101.404 158.81 102.332C158.81 103.26 158.64 104.071 158.298 104.764C157.968 105.447 157.504 105.97 156.906 106.332C156.309 106.695 155.637 106.876 154.89 106.876C154.144 106.876 153.504 106.7 152.97 106.348C152.448 105.986 152.074 105.506 151.85 104.908V106.764H149.594V94.9244H151.85V99.7404C152.074 99.1431 152.448 98.6684 152.97 98.3164C153.504 97.9644 154.144 97.7884 154.89 97.7884ZM154.186 99.7564C153.504 99.7564 152.938 99.9911 152.49 100.46C152.053 100.919 151.834 101.543 151.834 102.332C151.834 103.111 152.053 103.735 152.49 104.204C152.938 104.663 153.504 104.892 154.186 104.892C154.89 104.892 155.456 104.668 155.882 104.22C156.309 103.762 156.522 103.132 156.522 102.332C156.522 101.532 156.309 100.903 155.882 100.444C155.456 99.9857 154.89 99.7564 154.186 99.7564ZM162.663 99.5964C162.993 99.0311 163.431 98.5884 163.975 98.2684C164.519 97.9377 165.127 97.7724 165.799 97.7724V100.188H165.143C163.489 100.188 162.663 100.956 162.663 102.492V106.764H160.407V97.9004H162.663V99.5964ZM166.791 95.3564C166.791 94.9937 166.919 94.7004 167.175 94.4764C167.431 94.2417 167.767 94.1244 168.183 94.1244C168.599 94.1244 168.935 94.2417 169.191 94.4764C169.447 94.7004 169.575 94.9937 169.575 95.3564C169.575 95.7084 169.447 96.0017 169.191 96.2364C168.935 96.4604 168.599 96.5724 168.183 96.5724C167.767 96.5724 167.431 96.4604 167.175 96.2364C166.919 96.0017 166.791 95.7084 166.791 95.3564ZM169.303 97.9004V106.764H167.047V97.9004H169.303ZM176.624 97.7724C177.648 97.7724 178.464 98.1084 179.072 98.7804C179.68 99.4524 179.984 100.396 179.984 101.612V106.764H177.744V101.868C177.744 101.164 177.563 100.62 177.2 100.236C176.838 99.8417 176.342 99.6444 175.712 99.6444C175.072 99.6444 174.56 99.8524 174.176 100.268C173.792 100.684 173.6 101.282 173.6 102.06V106.764H171.344V97.9004H173.6V99.6764C173.835 99.0791 174.219 98.6151 174.752 98.2844C175.296 97.9431 175.92 97.7724 176.624 97.7724ZM185.441 97.7884C186.188 97.7884 186.828 97.9644 187.361 98.3164C187.895 98.6684 188.273 99.1431 188.497 99.7404V97.9004H190.737V106.796C190.737 107.618 190.572 108.354 190.241 109.004C189.921 109.666 189.436 110.183 188.785 110.556C188.145 110.93 187.367 111.116 186.449 111.116C185.169 111.116 184.135 110.812 183.345 110.204C182.556 109.596 182.076 108.77 181.905 107.724H184.129C184.257 108.172 184.503 108.519 184.865 108.764C185.239 109.02 185.713 109.148 186.289 109.148C186.951 109.148 187.484 108.951 187.889 108.556C188.295 108.172 188.497 107.586 188.497 106.796V104.908C188.273 105.506 187.895 105.986 187.361 106.348C186.828 106.7 186.188 106.876 185.441 106.876C184.695 106.876 184.023 106.695 183.425 106.332C182.828 105.97 182.359 105.447 182.017 104.764C181.687 104.071 181.521 103.26 181.521 102.332C181.521 101.404 181.687 100.599 182.017 99.9164C182.359 99.2231 182.828 98.6951 183.425 98.3324C184.023 97.9697 184.695 97.7884 185.441 97.7884ZM186.145 99.7564C185.441 99.7564 184.876 99.9857 184.449 100.444C184.023 100.903 183.809 101.532 183.809 102.332C183.809 103.132 184.023 103.762 184.449 104.22C184.876 104.668 185.441 104.892 186.145 104.892C186.828 104.892 187.388 104.663 187.825 104.204C188.273 103.735 188.497 103.111 188.497 102.332C188.497 101.543 188.273 100.919 187.825 100.46C187.388 99.9911 186.828 99.7564 186.145 99.7564ZM109.569 126.572V130.764H107.313V119.468H111.425C112.758 119.468 113.761 119.788 114.433 120.428C115.116 121.068 115.457 121.938 115.457 123.036C115.457 124.114 115.105 124.972 114.401 125.612C113.708 126.252 112.716 126.572 111.425 126.572H109.569ZM111.185 124.764C112.508 124.764 113.169 124.188 113.169 123.036C113.169 122.471 113.014 122.039 112.705 121.74C112.396 121.442 111.889 121.292 111.185 121.292H109.569V124.764H111.185ZM125.258 125.996C125.258 126.22 125.232 126.476 125.178 126.764H118.682C118.714 127.554 118.928 128.135 119.322 128.508C119.717 128.882 120.208 129.068 120.794 129.068C121.317 129.068 121.749 128.94 122.09 128.684C122.442 128.428 122.666 128.082 122.762 127.644H125.146C125.029 128.263 124.778 128.818 124.394 129.308C124.01 129.799 123.514 130.183 122.906 130.46C122.309 130.738 121.642 130.876 120.906 130.876C120.042 130.876 119.274 130.695 118.602 130.332C117.93 129.959 117.408 129.431 117.034 128.748C116.661 128.066 116.474 127.26 116.474 126.332C116.474 125.404 116.661 124.599 117.034 123.916C117.408 123.223 117.93 122.695 118.602 122.332C119.274 121.97 120.042 121.788 120.906 121.788C121.781 121.788 122.544 121.97 123.194 122.332C123.856 122.695 124.362 123.196 124.714 123.836C125.077 124.466 125.258 125.186 125.258 125.996ZM122.986 125.772C123.018 125.047 122.826 124.498 122.41 124.124C122.005 123.751 121.504 123.564 120.906 123.564C120.298 123.564 119.786 123.751 119.37 124.124C118.954 124.498 118.725 125.047 118.682 125.772H122.986ZM130.332 121.788C131.079 121.788 131.719 121.964 132.252 122.316C132.785 122.668 133.164 123.143 133.388 123.74V121.9H135.628V130.764H133.388V128.908C133.164 129.506 132.785 129.986 132.252 130.348C131.719 130.7 131.079 130.876 130.332 130.876C129.585 130.876 128.913 130.695 128.316 130.332C127.719 129.97 127.249 129.447 126.908 128.764C126.577 128.071 126.412 127.26 126.412 126.332C126.412 125.404 126.577 124.599 126.908 123.916C127.249 123.223 127.719 122.695 128.316 122.332C128.913 121.97 129.585 121.788 130.332 121.788ZM131.036 123.756C130.332 123.756 129.767 123.986 129.34 124.444C128.913 124.903 128.7 125.532 128.7 126.332C128.7 127.132 128.913 127.762 129.34 128.22C129.767 128.668 130.332 128.892 131.036 128.892C131.719 128.892 132.279 128.663 132.716 128.204C133.164 127.735 133.388 127.111 133.388 126.332C133.388 125.543 133.164 124.919 132.716 124.46C132.279 123.991 131.719 123.756 131.036 123.756ZM141.656 121.788C142.798 121.788 143.747 122.098 144.504 122.716C145.272 123.335 145.752 124.178 145.944 125.244H143.56C143.464 124.775 143.246 124.407 142.904 124.14C142.563 123.863 142.131 123.724 141.608 123.724C141.011 123.724 140.51 123.948 140.104 124.396C139.71 124.834 139.512 125.479 139.512 126.332C139.512 127.186 139.71 127.836 140.104 128.284C140.51 128.722 141.011 128.94 141.608 128.94C142.131 128.94 142.563 128.807 142.904 128.54C143.246 128.263 143.464 127.89 143.56 127.42H145.944C145.752 128.487 145.272 129.33 144.504 129.948C143.747 130.567 142.798 130.876 141.656 130.876C140.792 130.876 140.024 130.695 139.352 130.332C138.68 129.959 138.158 129.431 137.784 128.748C137.411 128.066 137.224 127.26 137.224 126.332C137.224 125.404 137.411 124.599 137.784 123.916C138.158 123.223 138.68 122.695 139.352 122.332C140.024 121.97 140.792 121.788 141.656 121.788ZM155.883 125.996C155.883 126.22 155.857 126.476 155.803 126.764H149.307C149.339 127.554 149.553 128.135 149.947 128.508C150.342 128.882 150.833 129.068 151.419 129.068C151.942 129.068 152.374 128.94 152.715 128.684C153.067 128.428 153.291 128.082 153.387 127.644H155.771C155.654 128.263 155.403 128.818 155.019 129.308C154.635 129.799 154.139 130.183 153.531 130.46C152.934 130.738 152.267 130.876 151.531 130.876C150.667 130.876 149.899 130.695 149.227 130.332C148.555 129.959 148.033 129.431 147.659 128.748C147.286 128.066 147.099 127.26 147.099 126.332C147.099 125.404 147.286 124.599 147.659 123.916C148.033 123.223 148.555 122.695 149.227 122.332C149.899 121.97 150.667 121.788 151.531 121.788C152.406 121.788 153.169 121.97 153.819 122.332C154.481 122.695 154.987 123.196 155.339 123.836C155.702 124.466 155.883 125.186 155.883 125.996ZM153.611 125.772C153.643 125.047 153.451 124.498 153.035 124.124C152.63 123.751 152.129 123.564 151.531 123.564C150.923 123.564 150.411 123.751 149.995 124.124C149.579 124.498 149.35 125.047 149.307 125.772H153.611ZM160.653 118.796C161.741 118.796 162.616 119.084 163.277 119.66C163.938 120.236 164.269 121.052 164.269 122.108C164.269 123.175 163.928 123.991 163.245 124.556C162.573 125.122 161.666 125.415 160.525 125.436V127.052H158.397V123.964H159.309C160.173 123.964 160.845 123.836 161.325 123.58C161.805 123.314 162.045 122.828 162.045 122.124C162.045 121.655 161.912 121.292 161.645 121.036C161.378 120.77 161.021 120.636 160.573 120.636C160.082 120.636 159.693 120.78 159.405 121.068C159.117 121.346 158.973 121.708 158.973 122.156H156.845C156.824 121.516 156.962 120.946 157.261 120.444C157.56 119.932 157.997 119.532 158.573 119.244C159.16 118.946 159.853 118.796 160.653 118.796ZM160.701 128.412V130.764H158.269V128.412H160.701Z" fill="black"/>
</g>
<path d="M91.7473 21.2126L122.768 51.2588C123.306 51.7797 123.102 52.685 122.392 52.9246L92.0147 63.1825C91.3728 63.3993 90.7057 62.9285 90.6949 62.2511L90.0517 21.9469C90.0375 21.0561 91.1074 20.5928 91.7473 21.2126Z" fill="white"/>
<defs>
<filter id="filter0_d_528_1341" x="0" y="0.764404" width="271" height="208" filterUnits="userSpaceOnUse" color-interpolation-filters="sRGB">
<feFlood flood-opacity="0" result="BackgroundImageFix"/>
<feColorMatrix in="SourceAlpha" type="matrix" values="0 0 0 0 0 0 0 0 0 0 0 0 0 0 0 0 0 0 127 0" result="hardAlpha"/>
<feOffset dy="4"/>
<feGaussianBlur stdDeviation="22"/>
<feComposite in2="hardAlpha" operator="out"/>
<feColorMatrix type="matrix" values="0 0 0 0 0.231493 0 0 0 0 0.389707 0 0 0 0 0.491667 0 0 0 0.2 0"/>
<feBlend mode="normal" in2="BackgroundImageFix" result="effect1_dropShadow_528_1341"/>
<feBlend mode="normal" in="SourceGraphic" in2="effect1_dropShadow_528_1341" result="shape"/>
</filter>
</defs>
</svg>
