<svg width="271" height="185" viewBox="0 0 271 185" fill="none" xmlns="http://www.w3.org/2000/svg">
<g filter="url(#filter0_d_528_1341)">
<rect x="44" y="40.2356" width="183" height="96" rx="24" fill="white" shape-rendering="crispEdges"/>
<path d="M94.9592 82.2356H92.7032L87.6472 74.5556V82.2356H85.3912V70.9396H87.6472L92.7032 78.6836V70.9396H94.9592V82.2356ZM96.7446 70.8276C96.7446 70.4649 96.8726 70.1716 97.1286 69.9476C97.3846 69.7129 97.7206 69.5956 98.1366 69.5956C98.5526 69.5956 98.8886 69.7129 99.1446 69.9476C99.4006 70.1716 99.5286 70.4649 99.5286 70.8276C99.5286 71.1796 99.4006 71.4729 99.1446 71.7076C98.8886 71.9316 98.5526 72.0436 98.1366 72.0436C97.7206 72.0436 97.3846 71.9316 97.1286 71.7076C96.8726 71.4729 96.7446 71.1796 96.7446 70.8276ZM99.2566 73.3716V82.2356H97.0006V73.3716H99.2566ZM105.281 73.2596C106.423 73.2596 107.372 73.5689 108.129 74.1876C108.897 74.8063 109.377 75.6489 109.569 76.7156H107.185C107.089 76.2463 106.871 75.8783 106.529 75.6116C106.188 75.3343 105.756 75.1956 105.233 75.1956C104.636 75.1956 104.135 75.4196 103.729 75.8676C103.335 76.3049 103.137 76.9503 103.137 77.8036C103.137 78.6569 103.335 79.3076 103.729 79.7556C104.135 80.1929 104.636 80.4116 105.233 80.4116C105.756 80.4116 106.188 80.2783 106.529 80.0116C106.871 79.7343 107.089 79.3609 107.185 78.8916H109.569C109.377 79.9583 108.897 80.8009 108.129 81.4196C107.372 82.0383 106.423 82.3476 105.281 82.3476C104.417 82.3476 103.649 82.1663 102.977 81.8036C102.305 81.4303 101.783 80.9023 101.409 80.2196C101.036 79.5369 100.849 78.7316 100.849 77.8036C100.849 76.8756 101.036 76.0703 101.409 75.3876C101.783 74.6943 102.305 74.1663 102.977 73.8036C103.649 73.4409 104.417 73.2596 105.281 73.2596ZM119.508 77.4676C119.508 77.6916 119.482 77.9476 119.428 78.2356H112.932C112.964 79.0249 113.178 79.6063 113.572 79.9796C113.967 80.3529 114.458 80.5396 115.044 80.5396C115.567 80.5396 115.999 80.4116 116.34 80.1556C116.692 79.8996 116.916 79.5529 117.012 79.1156H119.396C119.279 79.7343 119.028 80.2889 118.644 80.7796C118.26 81.2703 117.764 81.6543 117.156 81.9316C116.559 82.2089 115.892 82.3476 115.156 82.3476C114.292 82.3476 113.524 82.1663 112.852 81.8036C112.18 81.4303 111.658 80.9023 111.284 80.2196C110.911 79.5369 110.724 78.7316 110.724 77.8036C110.724 76.8756 110.911 76.0703 111.284 75.3876C111.658 74.6943 112.18 74.1663 112.852 73.8036C113.524 73.4409 114.292 73.2596 115.156 73.2596C116.031 73.2596 116.794 73.4409 117.444 73.8036C118.106 74.1663 118.612 74.6676 118.964 75.3076C119.327 75.9369 119.508 76.6569 119.508 77.4676ZM117.236 77.2436C117.268 76.5183 117.076 75.9689 116.66 75.5956C116.255 75.2223 115.754 75.0356 115.156 75.0356C114.548 75.0356 114.036 75.2223 113.62 75.5956C113.204 75.9689 112.975 76.5183 112.932 77.2436H117.236ZM129.33 80.2996V82.2356H128.146C127.154 82.2356 126.392 81.9956 125.858 81.5156C125.336 81.0356 125.074 80.2356 125.074 79.1156V75.2756H123.842V73.3716H125.074V71.1796H127.33V73.3716H129.314V75.2756H127.33V79.1476C127.33 79.5743 127.416 79.8729 127.586 80.0436C127.757 80.2143 128.045 80.2996 128.45 80.2996H129.33ZM135.05 73.2596C135.914 73.2596 136.687 73.4409 137.37 73.8036C138.063 74.1663 138.607 74.6943 139.002 75.3876C139.396 76.0703 139.594 76.8756 139.594 77.8036C139.594 78.7316 139.396 79.5369 139.002 80.2196C138.607 80.9023 138.063 81.4303 137.37 81.8036C136.687 82.1663 135.914 82.3476 135.05 82.3476C134.186 82.3476 133.407 82.1663 132.714 81.8036C132.031 81.4303 131.492 80.9023 131.098 80.2196C130.703 79.5369 130.506 78.7316 130.506 77.8036C130.506 76.8756 130.703 76.0703 131.098 75.3876C131.492 74.6943 132.031 74.1663 132.714 73.8036C133.407 73.4409 134.186 73.2596 135.05 73.2596ZM135.05 75.2116C134.42 75.2116 133.887 75.4356 133.45 75.8836C133.012 76.3209 132.794 76.9609 132.794 77.8036C132.794 78.6463 133.012 79.2916 133.45 79.7396C133.887 80.1769 134.42 80.3956 135.05 80.3956C135.679 80.3956 136.212 80.1769 136.65 79.7396C137.087 79.2916 137.306 78.6463 137.306 77.8036C137.306 76.9609 137.087 76.3209 136.65 75.8836C136.212 75.4356 135.679 75.2116 135.05 75.2116ZM155.952 73.2436C157.03 73.2436 157.878 73.5796 158.496 74.2516C159.126 74.9129 159.44 75.8569 159.44 77.0836V82.2356H157.2V77.3396C157.2 76.6569 157.024 76.1343 156.672 75.7716C156.331 75.3983 155.856 75.2116 155.248 75.2116C154.619 75.2116 154.118 75.4089 153.744 75.8036C153.371 76.1983 153.184 76.7743 153.184 77.5316V82.2356H150.944V77.3396C150.944 76.6569 150.768 76.1343 150.416 75.7716C150.075 75.3983 149.6 75.2116 148.992 75.2116C148.363 75.2116 147.862 75.4089 147.488 75.8036C147.115 76.1983 146.928 76.7743 146.928 77.5316V82.2356H144.672V73.3716H146.928V75.0516C147.163 74.4756 147.531 74.0329 148.032 73.7236C148.544 73.4036 149.136 73.2436 149.808 73.2436C150.523 73.2436 151.142 73.4143 151.664 73.7556C152.198 74.0969 152.598 74.5876 152.864 75.2276C153.142 74.6196 153.552 74.1396 154.096 73.7876C154.651 73.4249 155.27 73.2436 155.952 73.2436ZM169.758 77.4676C169.758 77.6916 169.732 77.9476 169.678 78.2356H163.182C163.214 79.0249 163.428 79.6063 163.822 79.9796C164.217 80.3529 164.708 80.5396 165.294 80.5396C165.817 80.5396 166.249 80.4116 166.59 80.1556C166.942 79.8996 167.166 79.5529 167.262 79.1156H169.646C169.529 79.7343 169.278 80.2889 168.894 80.7796C168.51 81.2703 168.014 81.6543 167.406 81.9316C166.809 82.2089 166.142 82.3476 165.406 82.3476C164.542 82.3476 163.774 82.1663 163.102 81.8036C162.43 81.4303 161.908 80.9023 161.534 80.2196C161.161 79.5369 160.974 78.7316 160.974 77.8036C160.974 76.8756 161.161 76.0703 161.534 75.3876C161.908 74.6943 162.43 74.1663 163.102 73.8036C163.774 73.4409 164.542 73.2596 165.406 73.2596C166.281 73.2596 167.044 73.4409 167.694 73.8036C168.356 74.1663 168.862 74.6676 169.214 75.3076C169.577 75.9369 169.758 76.6569 169.758 77.4676ZM167.486 77.2436C167.518 76.5183 167.326 75.9689 166.91 75.5956C166.505 75.2223 166.004 75.0356 165.406 75.0356C164.798 75.0356 164.286 75.2223 163.87 75.5956C163.454 75.9689 163.225 76.5183 163.182 77.2436H167.486ZM179.696 77.4676C179.696 77.6916 179.669 77.9476 179.616 78.2356H173.12C173.152 79.0249 173.365 79.6063 173.76 79.9796C174.155 80.3529 174.645 80.5396 175.232 80.5396C175.755 80.5396 176.187 80.4116 176.528 80.1556C176.88 79.8996 177.104 79.5529 177.2 79.1156H179.584C179.467 79.7343 179.216 80.2889 178.832 80.7796C178.448 81.2703 177.952 81.6543 177.344 81.9316C176.747 82.2089 176.08 82.3476 175.344 82.3476C174.48 82.3476 173.712 82.1663 173.04 81.8036C172.368 81.4303 171.845 80.9023 171.472 80.2196C171.099 79.5369 170.912 78.7316 170.912 77.8036C170.912 76.8756 171.099 76.0703 171.472 75.3876C171.845 74.6943 172.368 74.1663 173.04 73.8036C173.712 73.4409 174.48 73.2596 175.344 73.2596C176.219 73.2596 176.981 73.4409 177.632 73.8036C178.293 74.1663 178.8 74.6676 179.152 75.3076C179.515 75.9369 179.696 76.6569 179.696 77.4676ZM177.424 77.2436C177.456 76.5183 177.264 75.9689 176.848 75.5956C176.443 75.2223 175.941 75.0356 175.344 75.0356C174.736 75.0356 174.224 75.2223 173.808 75.5956C173.392 75.9689 173.163 76.5183 173.12 77.2436H177.424ZM186.033 80.2996V82.2356H184.849C183.857 82.2356 183.095 81.9956 182.561 81.5156C182.039 81.0356 181.777 80.2356 181.777 79.1156V75.2756H180.545V73.3716H181.777V71.1796H184.033V73.3716H186.017V75.2756H184.033V79.1476C184.033 79.5743 184.119 79.8729 184.289 80.0436C184.46 80.2143 184.748 80.2996 185.153 80.2996H186.033ZM119.997 97.3716L122.413 103.388L124.653 97.3716H127.133L121.709 110.46H119.213L121.213 105.98L117.485 97.3716H119.997ZM132.292 97.2596C133.156 97.2596 133.929 97.4409 134.612 97.8036C135.305 98.1663 135.849 98.6943 136.244 99.3876C136.639 100.07 136.836 100.876 136.836 101.804C136.836 102.732 136.639 103.537 136.244 104.22C135.849 104.902 135.305 105.43 134.612 105.804C133.929 106.166 133.156 106.348 132.292 106.348C131.428 106.348 130.649 106.166 129.956 105.804C129.273 105.43 128.735 104.902 128.34 104.22C127.945 103.537 127.748 102.732 127.748 101.804C127.748 100.876 127.945 100.07 128.34 99.3876C128.735 98.6943 129.273 98.1663 129.956 97.8036C130.649 97.4409 131.428 97.2596 132.292 97.2596ZM132.292 99.2116C131.663 99.2116 131.129 99.4356 130.692 99.8836C130.255 100.321 130.036 100.961 130.036 101.804C130.036 102.646 130.255 103.292 130.692 103.74C131.129 104.177 131.663 104.396 132.292 104.396C132.921 104.396 133.455 104.177 133.892 103.74C134.329 103.292 134.548 102.646 134.548 101.804C134.548 100.961 134.329 100.321 133.892 99.8836C133.455 99.4356 132.921 99.2116 132.292 99.2116ZM146.91 97.3716V106.236H144.654V104.444C144.42 105.041 144.03 105.51 143.486 105.852C142.953 106.182 142.334 106.348 141.63 106.348C140.606 106.348 139.79 106.012 139.182 105.34C138.574 104.668 138.27 103.729 138.27 102.524V97.3716H140.51V102.268C140.51 102.972 140.692 103.521 141.054 103.916C141.417 104.3 141.908 104.492 142.526 104.492C143.177 104.492 143.694 104.284 144.078 103.868C144.462 103.452 144.654 102.854 144.654 102.076V97.3716H146.91ZM152.082 94.4756L151.794 102.476H149.89L149.602 94.4756H152.082ZM152.066 103.884V106.236H149.634V103.884H152.066Z" fill="black"/>
</g>
<path d="M91.7473 18.2126L122.768 48.2588C123.306 48.7797 123.102 49.685 122.392 49.9246L92.0147 60.1825C91.3728 60.3993 90.7057 59.9285 90.6949 59.2511L90.0517 18.9469C90.0375 18.0561 91.1074 17.5928 91.7473 18.2126Z" fill="white"/>
<defs>
<filter id="filter0_d_528_1341" x="0" y="0.235596" width="271" height="184" filterUnits="userSpaceOnUse" color-interpolation-filters="sRGB">
<feFlood flood-opacity="0" result="BackgroundImageFix"/>
<feColorMatrix in="SourceAlpha" type="matrix" values="0 0 0 0 0 0 0 0 0 0 0 0 0 0 0 0 0 0 127 0" result="hardAlpha"/>
<feOffset dy="4"/>
<feGaussianBlur stdDeviation="22"/>
<feComposite in2="hardAlpha" operator="out"/>
<feColorMatrix type="matrix" values="0 0 0 0 0.231493 0 0 0 0 0.389707 0 0 0 0 0.491667 0 0 0 0.2 0"/>
<feBlend mode="normal" in2="BackgroundImageFix" result="effect1_dropShadow_528_1341"/>
<feBlend mode="normal" in="SourceGraphic" in2="effect1_dropShadow_528_1341" result="shape"/>
</filter>
</defs>
</svg>
