<svg width="271" height="161" viewBox="0 0 271 161" fill="none" xmlns="http://www.w3.org/2000/svg">
<g filter="url(#filter0_d_528_1341)">
<rect x="44" y="40.2356" width="183" height="72" rx="24" fill="white" shape-rendering="crispEdges"/>
<path d="M94.7981 70.9396V82.2356H92.5261V77.3236H87.6941V82.2356H85.4381V70.9396H87.6941V75.5156H92.5261V70.9396H94.7981ZM105.18 77.4676C105.18 77.6916 105.154 77.9476 105.1 78.2356H98.6043C98.6363 79.0249 98.8496 79.6063 99.2443 79.9796C99.639 80.3529 100.13 80.5396 100.716 80.5396C101.239 80.5396 101.671 80.4116 102.012 80.1556C102.364 79.8996 102.588 79.5529 102.684 79.1156H105.068C104.951 79.7343 104.7 80.2889 104.316 80.7796C103.932 81.2703 103.436 81.6543 102.828 81.9316C102.231 82.2089 101.564 82.3476 100.828 82.3476C99.9643 82.3476 99.1963 82.1663 98.5243 81.8036C97.8523 81.4303 97.3296 80.9023 96.9563 80.2196C96.583 79.5369 96.3963 78.7316 96.3963 77.8036C96.3963 76.8756 96.583 76.0703 96.9563 75.3876C97.3296 74.6943 97.8523 74.1663 98.5243 73.8036C99.1963 73.4409 99.9643 73.2596 100.828 73.2596C101.703 73.2596 102.466 73.4409 103.116 73.8036C103.778 74.1663 104.284 74.6676 104.636 75.3076C104.999 75.9369 105.18 76.6569 105.18 77.4676ZM102.908 77.2436C102.94 76.5183 102.748 75.9689 102.332 75.5956C101.927 75.2223 101.426 75.0356 100.828 75.0356C100.22 75.0356 99.7083 75.2223 99.2923 75.5956C98.8763 75.9689 98.647 76.5183 98.6043 77.2436H102.908ZM109.038 70.3956V82.2356H106.782V70.3956H109.038ZM113.335 70.3956V82.2356H111.079V70.3956H113.335ZM119.472 73.2596C120.336 73.2596 121.109 73.4409 121.792 73.8036C122.485 74.1663 123.029 74.6943 123.424 75.3876C123.818 76.0703 124.016 76.8756 124.016 77.8036C124.016 78.7316 123.818 79.5369 123.424 80.2196C123.029 80.9023 122.485 81.4303 121.792 81.8036C121.109 82.1663 120.336 82.3476 119.472 82.3476C118.608 82.3476 117.829 82.1663 117.136 81.8036C116.453 81.4303 115.914 80.9023 115.52 80.2196C115.125 79.5369 114.928 78.7316 114.928 77.8036C114.928 76.8756 115.125 76.0703 115.52 75.3876C115.914 74.6943 116.453 74.1663 117.136 73.8036C117.829 73.4409 118.608 73.2596 119.472 73.2596ZM119.472 75.2116C118.842 75.2116 118.309 75.4356 117.872 75.8836C117.434 76.3209 117.216 76.9609 117.216 77.8036C117.216 78.6463 117.434 79.2916 117.872 79.7396C118.309 80.1769 118.842 80.3956 119.472 80.3956C120.101 80.3956 120.634 80.1769 121.072 79.7396C121.509 79.2916 121.728 78.6463 121.728 77.8036C121.728 76.9609 121.509 76.3209 121.072 75.8836C120.634 75.4356 120.101 75.2116 119.472 75.2116ZM127.034 80.7796C127.29 81.3556 127.418 81.9369 127.418 82.5236C127.418 83.1849 127.242 83.7289 126.89 84.1556C126.549 84.5823 126.015 84.7956 125.29 84.7956V83.9316C125.567 83.9316 125.77 83.8623 125.898 83.7236C126.026 83.5956 126.09 83.3609 126.09 83.0196V82.8596H125.066V80.7796H127.034ZM134.772 70.9396V82.2356H132.516V70.9396H134.772ZM138.333 69.0836C138.504 69.6489 138.589 70.2249 138.589 70.8116C138.589 71.5049 138.418 72.0489 138.077 72.4436C137.746 72.8276 137.25 73.0196 136.589 73.0196V72.1236C136.866 72.1236 137.069 72.0436 137.197 71.8836C137.336 71.7236 137.405 71.4729 137.405 71.1316V70.8276H136.477V69.0836H138.333ZM151.562 73.2436C152.639 73.2436 153.487 73.5796 154.106 74.2516C154.735 74.9129 155.05 75.8569 155.05 77.0836V82.2356H152.81V77.3396C152.81 76.6569 152.634 76.1343 152.282 75.7716C151.94 75.3983 151.466 75.2116 150.858 75.2116C150.228 75.2116 149.727 75.4089 149.354 75.8036C148.98 76.1983 148.794 76.7743 148.794 77.5316V82.2356H146.554V77.3396C146.554 76.6569 146.378 76.1343 146.026 75.7716C145.684 75.3983 145.21 75.2116 144.602 75.2116C143.972 75.2116 143.471 75.4089 143.098 75.8036C142.724 76.1983 142.538 76.7743 142.538 77.5316V82.2356H140.282V73.3716H142.538V75.0516C142.772 74.4756 143.14 74.0329 143.642 73.7236C144.154 73.4036 144.746 73.2436 145.418 73.2436C146.132 73.2436 146.751 73.4143 147.274 73.7556C147.807 74.0969 148.207 74.5876 148.474 75.2276C148.751 74.6196 149.162 74.1396 149.706 73.7876C150.26 73.4249 150.879 73.2436 151.562 73.2436ZM185.121 70.4756L184.833 78.4756H182.929L182.641 70.4756H185.121ZM185.105 79.8836V82.2356H182.673V79.8836H185.105Z" fill="black"/>
<path d="M167.524 70.9396V72.7316H162.772V75.7556H166.58V77.4836H162.772V82.2356H160.516V70.9396H167.524ZM168.791 70.8276C168.791 70.4649 168.919 70.1716 169.175 69.9476C169.431 69.7129 169.767 69.5956 170.183 69.5956C170.599 69.5956 170.935 69.7129 171.191 69.9476C171.447 70.1716 171.575 70.4649 171.575 70.8276C171.575 71.1796 171.447 71.4729 171.191 71.7076C170.935 71.9316 170.599 72.0436 170.183 72.0436C169.767 72.0436 169.431 71.9316 169.175 71.7076C168.919 71.4729 168.791 71.1796 168.791 70.8276ZM171.303 73.3716V82.2356H169.047V73.3716H171.303ZM174.528 72.0436C174.112 72.0436 173.776 71.9316 173.52 71.7076C173.264 71.4729 173.136 71.1796 173.136 70.8276C173.136 70.4649 173.264 70.1716 173.52 69.9476C173.776 69.7129 174.112 69.5956 174.528 69.5956C174.944 69.5956 175.28 69.7129 175.536 69.9476C175.792 70.1823 175.92 70.4756 175.92 70.8276C175.92 71.1796 175.792 71.4729 175.536 71.7076C175.28 71.9316 174.944 72.0436 174.528 72.0436ZM171.84 84.5076H172.48C172.811 84.5076 173.046 84.4383 173.184 84.2996C173.334 84.1609 173.408 83.9209 173.408 83.5796V73.3716H175.664V83.5796C175.664 85.4996 174.699 86.4596 172.768 86.4596H171.84V84.5076ZM177.448 70.8276C177.448 70.4649 177.576 70.1716 177.832 69.9476C178.088 69.7129 178.424 69.5956 178.84 69.5956C179.256 69.5956 179.592 69.7129 179.848 69.9476C180.104 70.1716 180.232 70.4649 180.232 70.8276C180.232 71.1796 180.104 71.4729 179.848 71.7076C179.592 71.9316 179.256 72.0436 178.84 72.0436C178.424 72.0436 178.088 71.9316 177.832 71.7076C177.576 71.4729 177.448 71.1796 177.448 70.8276ZM179.96 73.3716V82.2356H177.704V73.3716H179.96Z" fill="url(#paint0_linear_528_1341)"/>
</g>
<path d="M91.7473 21.2126L122.768 51.2588C123.306 51.7797 123.102 52.685 122.392 52.9246L92.0147 63.1825C91.3728 63.3993 90.7057 62.9285 90.6949 62.2511L90.0517 21.9469C90.0375 21.0561 91.1074 20.5928 91.7473 21.2126Z" fill="white"/>
<defs>
<filter id="filter0_d_528_1341" x="0" y="0.235596" width="271" height="160" filterUnits="userSpaceOnUse" color-interpolation-filters="sRGB">
<feFlood flood-opacity="0" result="BackgroundImageFix"/>
<feColorMatrix in="SourceAlpha" type="matrix" values="0 0 0 0 0 0 0 0 0 0 0 0 0 0 0 0 0 0 127 0" result="hardAlpha"/>
<feOffset dy="4"/>
<feGaussianBlur stdDeviation="22"/>
<feComposite in2="hardAlpha" operator="out"/>
<feColorMatrix type="matrix" values="0 0 0 0 0.231493 0 0 0 0 0.389707 0 0 0 0 0.491667 0 0 0 0.2 0"/>
<feBlend mode="normal" in2="BackgroundImageFix" result="effect1_dropShadow_528_1341"/>
<feBlend mode="normal" in="SourceGraphic" in2="effect1_dropShadow_528_1341" result="shape"/>
</filter>
<linearGradient id="paint0_linear_528_1341" x1="211" y1="64.2356" x2="204.447" y2="90.4426" gradientUnits="userSpaceOnUse">
<stop stop-color="#82C5EA"/>
<stop offset="1" stop-color="#D783C2"/>
</linearGradient>
</defs>
</svg>
