<svg width="80" height="81" viewBox="0 0 80 81" fill="none" xmlns="http://www.w3.org/2000/svg">
<path id="Earth3" opacity="0.4" d="M53.324 78.0149L48.0001 79.2958C47.9802 79.3008 47.9603 79.3024 47.9404 79.3024L40.2337 80.1972L40.2105 80.2022H40.1956L37.2047 79.9834L34.9032 79.8161C34.9032 79.8161 34.8998 79.8161 34.8965 79.8144L28.527 78.1011L24.3315 76.8484L19.9106 74.6843L15.5974 71.7631L11.6654 68.2751L8.36794 64.4424L5.92221 60.5104V60.507L5.91227 60.4921L3.1749 55.1367L3.16827 55.1168C3.16827 55.1168 3.16496 55.1135 3.16496 55.1102L1.17656 49.8277L1.16496 49.7945L0.865044 46.3563L0.742424 44.9909L0.745743 44.9809L0.00340271 36.4822L9.15527e-05 36.4391L1.99512 28.1524L3.64715 22.8268L3.65211 22.8119L3.66537 22.7672L3.68858 22.744L8.29338 15.2013L8.30995 15.1848C8.31658 15.1748 8.32155 15.1632 8.32983 15.1549L12.2818 11.2196L12.3232 11.1781L12.3315 11.1748L18.9214 5.50456L18.9247 5.50124L18.9562 5.47473L27.0059 2.15742L32.2172 0.372825H32.2238L32.2602 0.371168L40.1293 0L45.4483 0.041425L51.5361 1.58741L55.9868 3.47639L60.4077 5.5377L64.7325 8.45236L68.6148 11.9983L71.7979 15.942L74.1061 19.3654L77.2528 25.0423L78.88 30.4888L79.9901 37.9022L79.9951 37.9205V37.937L79.9553 43.7382L78.363 52.0348V52.063L76.1045 57.1649C76.1045 57.1665 76.1012 57.1682 76.1012 57.1715L76.0945 57.1864L71.8311 64.865L71.8128 64.8997L65.3737 70.9577L65.3688 70.971L61.1235 74.3099C61.0954 74.3314 61.0639 74.3447 61.0324 74.3529L53.3472 77.995L53.3257 78.0116L53.324 78.0149ZM60.8319 73.8973L63.6074 71.715L57.2047 74.8451L57.1418 74.9959L55.102 76.6081L60.8319 73.8973ZM75.6438 56.9644L76.2221 55.657L74.1558 59.3604V59.6056L74.0763 59.7879L75.6455 56.9627L75.6438 56.9644ZM79.4897 37.9934L77.7134 32.0431L76.0979 38.0348L76.136 38.1027L78.1741 44.8268L79.4864 38.57L79.4897 37.9967V37.9934ZM68.6811 12.8832L68.2569 12.3563L64.4309 8.85833L64.421 8.8517L64.1393 8.95112L68.9247 13.3256L68.6811 12.8815V12.8832ZM51.387 2.07125L51.1318 2.00663L46.8601 2.61143L54.0863 5.98177L54.1426 6.01988L57.4483 4.75891L54.7557 3.50456L51.3853 2.07291L51.387 2.07125ZM43.5046 0.53024L39.9951 0.732394L46.2619 2.33306L46.4392 2.41591L50.4872 1.84258L45.4069 0.545153L43.503 0.53024H43.5046ZM32.3 0.876553L32.1442 0.929577L30.5452 1.47804L25.7482 3.48467L32.1244 3.55261L32.2785 3.59238L37.9636 0.922949L32.3033 0.87821L32.3 0.876553ZM12.5916 11.6172L12.2702 11.937L8.07134 18.749L13.3655 17.0041H13.4185L17.9885 9.79619L12.5933 11.6156L12.5916 11.6172ZM34.9595 79.314L37.7747 79.5195L32.6016 78.3198L32.3497 78.3811L31.1998 78.2983L34.9595 79.3123V79.314ZM53.0954 77.551L56.1989 75.0953L47.7118 76.5916L47.6836 76.6611L45.1434 78.6993L52.015 77.8111L53.0954 77.551ZM77.5345 31.4466L73.8476 24.8202L71.7399 30.2668L75.9206 37.7183L77.5742 31.5824L77.5345 31.4466ZM57.7582 4.90969L54.3928 6.18724L61.6206 11.0621L63.7018 8.92295L57.7582 4.90969ZM31.5842 77.8177L25.0374 73.8824L24.928 73.9105L23.5577 73.8161L28.3746 77.5261L28.6413 77.6056L31.5842 77.8177ZM46.0647 2.80199L40.8253 5.86578L49.2495 9.80945L53.6322 6.32477L46.1161 2.81359L46.0664 2.80033L46.0647 2.80199ZM58.5718 70.3082L58.469 64.8948L49.0672 68.2568L49.2163 72.6678L58.5734 70.3099L58.5718 70.3082ZM10.8087 62.4739L16.9678 65.8476L10.6861 61.1268L10.7872 62.4142L10.8087 62.4739ZM11.5295 64.3629L17.16 66.2403L10.9446 62.8351L11.4881 64.2933L11.5312 64.3612L11.5295 64.3629ZM12.7524 66.3248L17.4947 66.6197L11.7366 64.6993L12.7192 66.2867L12.7524 66.3248ZM14.3845 68.2254L17.8642 66.8948L12.9827 66.5916L14.3845 68.2254ZM20.8783 72.6363L22.5684 73.1384L18.9711 67.7995L20.8203 72.6081L20.88 72.6363H20.8783ZM23.0158 73.2726L24.4657 73.372L19.4185 68.0149L22.9396 73.251L23.0158 73.2742V73.2726ZM35.2296 77.15L37.0423 75.6636L27.6935 72.5501L26.8186 73.2875L35.1749 77.1632L35.2296 77.15ZM48.7126 72.7374L48.5751 68.3761L38.5535 69.884L38.6993 72.9495L48.7126 72.7374ZM57.5941 16.0679L52.7424 21.9254L60.522 28.9876L65.0655 22.8732L57.5925 16.0679H57.5941ZM38.865 51.8641L31.5494 58.0414L34.7424 61.8177L43.3539 57.2196L38.865 51.8625V51.8641ZM17.7416 58.5684L19.8924 59.6106L22.6413 51.7051L18.4226 49.6636L17.7416 58.5684ZM22.4425 61.3306L24.3795 63.0555L30.9744 58.1756L27.2064 54.8053L22.4409 61.3306H22.4425ZM19.9785 60.2502L18.706 66.222L21.9504 61.5858L19.9802 60.2502H19.9785ZM24.1326 63.5244L19.1335 66.5418L25.6107 65.2626L24.1326 63.5244ZM23.9438 63.3438L22.1492 61.7432L18.8998 66.3894L23.9454 63.3438H23.9438ZM25.7946 65.483L19.4284 66.7423L26.8501 67.2179L25.7946 65.483ZM19.7532 60.106L17.7665 59.14L18.4955 66.005L19.7532 60.106ZM31.1583 58.3579L24.5552 63.2444L26.1542 65.1201L34.2669 62.0365L31.16 58.3596L31.1583 58.3579ZM27.0109 67.483L19.7383 67.0174L27.5875 69.0936L27.0109 67.483ZM17.498 59.0124L15.6438 58.4739L18.2138 65.7498L17.498 59.0108V59.0124ZM20.1177 59.7382L22.2453 61.1765L27.0109 54.6512L22.8617 51.8426L20.1177 59.7382ZM34.4276 62.2436L26.2934 65.3355L27.4417 67.2162L36.6579 65.9536L34.4293 62.2436H34.4276ZM27.6853 69.3786L19.9852 67.3438L27.7648 70.7639L27.6853 69.3786ZM15.3456 58.3894L13.7482 58.2999L17.8642 65.5211L15.3456 58.3911V58.3894ZM15.4881 57.9105L17.4964 58.4872L18.179 49.5609L14.2022 48.4275L15.4864 57.9105H15.4881ZM31.3804 57.8625L38.6911 51.6885L33.2329 46.7871L27.5113 54.4026L31.382 57.8625H31.3804ZM39.0705 51.3505L46.5187 44.3529L39.7714 38.2718L33.5361 46.3844L39.0689 51.3488L39.0705 51.3505ZM46.6944 44.5352L39.2445 51.5344L43.7963 56.9611L52.2238 51.1897L46.6944 44.5352ZM43.5096 57.43L34.8882 62.0331L37.1815 65.8442L46.7126 62.8401L43.5096 57.43ZM36.7872 66.1889L27.5361 67.4582L28.1641 69.1997L37.9951 69.6603L36.7872 66.1889ZM27.3572 72.1094L27.7598 71.0323L20.1111 67.6719L27.3572 72.1094ZM13.4549 58.29L12.2105 58.6363L17.4947 65.377L13.4549 58.29ZM13.5046 57.778L15.2296 57.8757L13.9438 48.3629L10.4939 48.1972L13.5063 57.778H13.5046ZM27.3124 54.2452L33.0341 46.6297L27.0092 42.5534L23.0506 51.3621L27.3124 54.2452ZM33.3389 46.227L39.5726 38.1143L32.1095 33.0671L27.2312 42.0961L33.3389 46.2254V46.227ZM39.8841 37.715L46.1376 29.7498L37.7814 24.1027L32.3646 32.633L39.8841 37.715ZM46.3365 29.9056L40.0813 37.8724L46.8783 43.9967L53.8742 36.7274L46.3348 29.9056H46.3365ZM52.3679 51.3952L43.9371 57.1682L47.1848 62.6495L56.2851 58.1193L52.3663 51.3952H52.3679ZM46.8236 63.0671L37.276 66.0746L38.522 69.6388L48.532 68.1326L46.8236 63.0655V63.0671ZM38.0631 69.9138L28.189 69.4532L28.2834 70.9379L38.1973 72.9031L38.0647 69.9122L38.0631 69.9138ZM28.2404 71.1881L27.8145 72.3264L37.2478 75.4714L38.1575 73.1549L28.2404 71.1881ZM26.3613 73.0191L27.2014 72.3115L20.0564 67.937L26.3613 73.0207V73.0191ZM11.9703 58.7407L11.1451 59.4814L17.1699 65.3753L11.9686 58.739L11.9703 58.7407ZM11.9206 58.1906L13.2544 57.821L10.2304 48.2121L7.53944 48.9975L11.9206 58.1922V58.1906ZM18.2553 49.0555L20.4143 39.377L14.6182 37.7581L14.1691 47.8973L18.2569 49.0555H18.2553ZM18.4939 49.1433L22.8302 51.2378L26.7905 42.4242L20.6513 39.4731L18.4955 49.1433H18.4939ZM27.0125 41.9702L31.8907 32.9428L24.2752 29.3074L20.7872 38.9826L27.0125 41.9702ZM32.1459 32.5037L37.5593 23.9785L29.0225 19.9321L24.4723 28.8467L32.1459 32.5054V32.5037ZM46.4508 29.3521L52.2271 22.164L43.5858 16.3281L38.0647 23.6885L46.4508 29.3521ZM52.4276 22.3198L46.648 29.5112L54.2138 36.3529L60.2105 29.3869L52.4276 22.3198ZM54.0481 36.9114L47.0523 44.1806L52.6231 50.8815L60.2056 44.3861L54.0465 36.9114H54.0481ZM56.3878 58.3496L47.2876 62.8799L49.0241 68.0099L58.4442 64.6429L56.3878 58.3496ZM24.8849 73.4035L26.0631 73.1036L19.8112 68.063L24.8385 73.4002L24.8849 73.4035ZM18.5867 67.5046L18.6248 71.5344H18.6281L20.4889 72.4474L18.5883 67.5046H18.5867ZM16.9777 65.5394L11.0258 59.7167L10.6612 60.7904L16.9777 65.5394ZM10.8286 59.087L11.6969 58.3065L7.32404 49.1301L5.55602 50.7705L10.8286 59.087ZM10.3779 47.6868L13.9189 47.8558L14.3663 37.71L9.33563 37.5145L10.3779 47.6868ZM20.5535 38.8915L24.0399 29.2196L16.8452 27.2527L14.6761 37.2577L20.5519 38.8931L20.5535 38.8915ZM24.2404 28.7506L28.7839 19.8509L20.7159 17.6901L16.9943 26.7771L24.242 28.7523L24.2404 28.7506ZM37.8493 23.5576L43.3638 16.2071L34.527 12.0431L29.2859 19.5012L37.851 23.5576H37.8493ZM52.5486 21.7713L57.3969 15.9172L49.0904 10.3099L43.9106 15.942L52.5486 21.773V21.7713ZM57.725 15.5294L61.2776 11.4432L53.8824 6.45236L49.4698 9.96023L57.725 15.5294ZM65.2395 23.0704L60.7027 29.1748L67.0374 36.918L71.3124 30.5452L65.2395 23.0704ZM60.3812 29.5758L54.3895 36.5385L60.5684 44.0348L66.7225 37.3322L60.3812 29.5775V29.5758ZM60.3447 44.5982L52.7673 51.0886L56.7159 57.8575L64.6828 52.1541L60.3447 44.5965V44.5982ZM47.2677 76.3496L48.643 72.9959L38.6778 73.208L37.7499 75.5692L47.2544 76.3596L47.2677 76.348V76.3496ZM32.3066 77.8741L34.7888 77.2626L26.6049 73.4714L26.5767 73.4946L25.3804 73.7995L32.1277 77.8608L32.305 77.8741H32.3066ZM18.3679 71.3637L18.3298 67.2361L16.5022 70.0994L18.3696 71.3654L18.3679 71.3637ZM18.1393 67.0638L14.5933 68.4209L16.3033 69.9404L18.1409 67.0655L18.1393 67.0638ZM10.643 59.2693L5.4483 51.0737L4.70597 53.3471L4.71426 53.4466L10.2636 60.3844L10.6413 59.2693H10.643ZM7.37209 48.5186L10.126 47.715L9.08376 37.5493L5.16662 38.7473L7.37209 48.5186ZM14.4293 37.208L16.5966 27.2196L10.353 27.0323L9.33398 37.0108L14.4293 37.2096V37.208ZM16.7441 26.7175L20.4525 17.6686L13.4549 17.5145L10.4674 26.5302L16.7457 26.7191L16.7441 26.7175ZM29.049 19.3985L34.2735 11.9652L25.9172 9.76802L20.9578 17.2378L29.049 19.3969V19.3985ZM43.6935 15.8045L48.8601 10.1889L40.358 6.20381L34.865 11.6487L43.6935 15.8045ZM61.4781 11.5973L57.9222 15.6885L65.3489 22.4491L68.126 17.6653L61.4781 11.5973ZM75.6803 38.3248L71.4549 30.7838L67.1981 37.1268L71.6306 44.9445L75.6886 38.3513L75.6803 38.3248ZM66.8601 37.5476L60.7192 44.237L65.0705 51.8094L71.3025 45.3902L66.8601 37.5476ZM64.7772 52.3927L56.8269 58.0845L58.8998 64.4159L67.0158 59.4615L64.7756 52.3911L64.7772 52.3927ZM56.7275 74.6777L58.4607 70.5949L49.2163 72.9279L47.8294 76.3115L56.6198 74.7622L56.7275 74.6761V74.6777ZM44.3613 78.6794L46.9694 76.5866L37.6554 75.8111L37.6521 75.8194L35.8095 77.3306L44.1542 78.7274L44.363 78.6777L44.3613 78.6794ZM14.0548 68.6131L13.9719 68.5153L12.4591 68.2999L15.7383 71.2129L16.0631 70.3944L14.0548 68.6131ZM13.7217 68.2254L12.3249 66.6015L12.2072 66.4109L9.4218 64.8898L12.0134 67.9056L12.1144 67.995L13.7201 68.2237L13.7217 68.2254ZM10.1691 60.6661L4.75403 53.8973L4.98269 56.5816L5.05891 56.7854L10.2553 62.0066L10.1476 60.7258L10.1674 60.6661H10.1691ZM7.13845 48.6114L4.94955 38.9246L2.42925 41.3306L2.40771 41.3969L5.33895 50.2817L7.13845 48.6114ZM9.0788 37.0224L10.0945 27.0903L5.25941 28.6313L5.24947 28.6413L5.12354 38.232L9.08045 37.0224H9.0788ZM10.2022 26.5253L13.1567 17.6073L7.81616 19.367L7.72668 19.4565L5.34723 28.0729L10.2006 26.5269L10.2022 26.5253ZM20.6944 17.1665H20.7027L25.6206 9.75808L18.4359 9.64706L18.3713 9.6686L13.7118 17.0124L20.6944 17.1665ZM34.6215 11.5327H34.6231L40.0763 6.12593L32.0879 4.05634H32.0349L26.3 9.34549L34.6198 11.5327H34.6215ZM40.4922 5.71168L40.5502 5.73819L45.7184 2.71417L38.7524 0.927921H38.5486L32.6629 3.69014L40.4922 5.71003V5.71168ZM73.6753 24.512L68.2967 17.8608L65.5312 22.6297L71.556 30.0414L73.6869 24.5336L73.6753 24.512ZM77.8891 45.6288L75.7847 38.6678L71.7731 45.1964L74.0216 52.4673L77.8891 45.7763V45.6272V45.6288ZM73.6471 52.9693L71.392 45.657L65.1898 52.0447L67.4367 59.1168L73.6471 53.0008V52.9677V52.9693ZM67.0771 65.7747L67.0274 59.7498L58.9595 64.6777L59.0722 70.1011L67.0523 65.831L67.0771 65.7747ZM35.5477 77.546L35.4632 77.6156L33.1451 78.1856L39.4085 79.6371L40.1658 79.6918L43.5245 78.8799L35.5461 77.5443L35.5477 77.546ZM27.7002 77.3273L23.1053 73.7879L22.9545 73.778L21.3787 73.314L24.2172 76.2336L24.4955 76.3712L27.7002 77.3289V77.3273ZM20.8982 73.1715L20.7143 73.1168L18.9181 72.2386L19.9769 74.1193L20.1476 74.2353L23.5461 75.9022L20.8982 73.1698V73.1715ZM18.5187 72.0447L18.3895 71.9818L16.2735 70.5501L15.9421 71.3853L19.5096 73.8028L18.5187 72.0447ZM8.95452 64.348L11.9355 65.9768L11.044 64.5402L10.9694 64.3397L6.91476 61.1466L8.76397 64.1259L8.95452 64.348ZM6.36463 60.2635L6.5237 60.5186L10.7971 63.884L10.3 62.5601L10.2868 62.3993L5.27267 57.3621L6.36298 60.2635H6.36463ZM4.24367 53.1367L1.35718 46.2171L1.66041 49.6819L2.14922 50.9809L4.40274 55.6636L4.19396 53.2875L4.24367 53.1367ZM1.28427 45.3869L4.36131 52.7755L5.10365 50.5004L5.13845 50.4689L2.27681 41.8094L1.25444 45.0389L1.28427 45.3869ZM4.85841 38.3132H4.8667L4.99097 28.8915L1.94707 31.8608L1.87084 32.1061L2.31161 40.744L4.86008 38.3115L4.85841 38.3132ZM4.10614 23.0373L3.50962 24.9611L2.00838 31.0936L4.98932 28.1856L5.06389 28.1624L7.36546 19.8128L4.10614 23.0373ZM25.9686 9.25932L26.0133 9.27092L31.6654 4.05302L24.88 3.98012L24.6546 4.05634L18.8634 9.1483L25.9686 9.25766V9.25932ZM58.9694 5.42668L63.9156 8.76554L64.1608 8.67937L60.1724 5.9884L58.9711 5.42834L58.9694 5.42668ZM63.904 9.08037L61.8162 11.2262L68.3232 17.1632L69.2561 13.9735L63.904 9.08037ZM74.0813 24.2138L77.5262 30.3993L76.9926 25.9321L76.7938 25.2643L74.0084 20.237L74.0117 24.1276L74.0813 24.2138ZM74.1227 52.8003L74.1409 52.86L74.1525 58.8467L77.329 53.1566L77.8576 51.9619L77.8858 46.2916L74.1227 52.802V52.8003ZM73.6488 59.5012V53.3538L67.5179 59.3952L67.5792 65.4167L73.5577 59.71L73.6488 59.5029V59.5012ZM59.0788 70.3861V70.4275L57.3539 74.4921L64.5502 70.9743L64.9529 70.6578L66.8916 66.2005L59.0771 70.3861H59.0788ZM47.8957 78.802L49.7267 78.3612L44.7673 79.0025L44.5883 79.1466L44.2785 79.2212L47.894 78.802H47.8957ZM4.46405 56.3745L3.15668 53.657L3.63223 54.9196L4.48393 56.5866L4.46571 56.3761L4.46405 56.3745ZM1.98352 41.0555L2.07134 40.971L1.65047 32.8036L0.505478 36.4855L1.13845 43.7249L1.98352 41.0539V41.0555ZM7.54276 18.9246L7.69852 18.8732L11.5013 12.7042L9.92553 14.2734L8.70266 15.4913L5.17822 21.2643L7.54276 18.9246ZM18.353 9.14333H18.4939L24.0283 4.27175L19.2114 5.91715L13.5991 10.7457L18.3514 9.14333H18.353ZM69.4549 14.1955L68.532 17.3521L73.7598 23.8111L73.7565 19.7763L73.6737 19.6255L72.8518 18.406L69.4566 14.1955H69.4549ZM77.4185 27.3554L77.851 30.976L77.9885 31.2245L78.9678 34.4938L78.3878 30.6131L77.4185 27.3554ZM79.45 43.715L79.4665 41.3024L79.4765 39.8409L78.3265 45.3289L78.3845 45.5195L78.3961 45.5559L78.3779 49.2941L79.4516 43.7167L79.45 43.715ZM71.4003 64.5949L73.2975 60.2966L67.5842 65.7581V65.8757L65.8841 69.7863L71.4019 64.5949H71.4003Z" fill="url(#paint0_linear_528_1347)"/>
<defs>
<linearGradient id="paint0_linear_528_1347" x1="3.23221" y1="10.0253" x2="68.1172" y2="27.8371" gradientUnits="userSpaceOnUse">
<stop stop-color="#82C5EA"/>
<stop offset="1" stop-color="#D783C2"/>
</linearGradient>
</defs>
</svg>
