<svg width="80" height="80" viewBox="0 0 80 80" fill="none" xmlns="http://www.w3.org/2000/svg">
<g id="Earth2" opacity="0.4" clip-path="url(#clip0_528_1345)">
<path id="Vector" d="M74.1098 18.9105L70.8399 14.5931C70.8283 14.5767 70.8135 14.562 70.7988 14.5505L65.4607 9.0323L65.4459 9.01267L65.4328 9.00449L63.0046 7.29323L61.1354 5.97624C61.1354 5.97624 61.1321 5.97624 61.1288 5.97297L55.1693 3.28175L51.1662 1.60321L46.415 0.479276L41.2693 -0.00170898L36.0579 0.189703L31.116 1.04206L26.7627 2.50465H26.7595L26.743 2.51283L21.2702 4.87685L21.2521 4.88667C21.2521 4.88667 21.2472 4.88667 21.2455 4.8883L16.3908 7.66624L16.3612 7.6826L13.9626 10.1153L13.0075 11.0789L13.0042 11.0871L7.07593 17.0994L7.04798 17.1305L3.349 24.6987L1.25619 29.7948L1.24962 29.8095L1.23153 29.8521L1.23482 29.8848L0.000181144 38.5245V38.5474C0.00182514 38.5589 -0.00310684 38.5703 0.000181144 38.5834L0.544343 44.0624L0.550919 44.1196L0.555851 44.1278L2.02722 52.5843V52.5892L2.03544 52.6285L6.10762 60.2081L8.9731 64.838L8.97638 64.8445L9.00433 64.8674L14.7978 70.0896L18.8979 73.3976L24.5351 76.0397L29.135 77.3927L33.8204 78.5968L38.971 79.0892L44.1809 78.8242L49.1063 77.8164L53.0321 76.6565L59.0228 74.3039L63.7033 71.1742L69.232 66.2188L69.2485 66.209L69.26 66.1959L72.8883 61.7492L76.9013 54.4265L76.9193 54.4036L78.4072 49.098C78.4072 49.098 78.4072 49.0931 78.4072 49.0915L78.4121 49.0767L79.9903 40.5483L79.9969 40.5106L78.8856 31.8513L78.8888 31.8382L77.743 26.6291C77.7348 26.5948 77.72 26.5653 77.7002 26.5392L74.1114 18.9399L74.1065 18.9138L74.1098 18.9105ZM77.2629 26.7617L78.0126 30.1678L75.083 23.7645L75.129 23.6107L74.5849 21.1011L77.2646 26.7633L77.2629 26.7617ZM77.9271 48.9639L77.5457 50.3234L78.2986 46.2039L78.4548 46.0174L78.5091 45.8276L77.9287 48.9655L77.9271 48.9639ZM68.9098 65.8376L63.7953 69.2585L66.337 63.6781L66.4093 63.6502L72.2109 59.8056L69.2698 65.3975L68.9115 65.8376H68.9098ZM44.7957 78.1943L44.1381 78.3285L39.0023 78.5935H38.9908L38.8379 78.3399L45.2626 78.0094L44.7957 78.1943ZM24.7308 75.5816L24.494 75.472L21.6039 72.3309L29.2633 74.2974L29.3307 74.3039L31.0667 77.3403L28.2128 76.6074L24.7291 75.5849L24.7308 75.5816ZM17.7208 71.809L15.1611 69.4531L20.971 72.1673L21.16 72.2164L23.8989 75.1939L19.1889 72.9935L17.7208 71.809ZM9.35779 64.5141L9.2723 64.375L8.39277 62.9533L5.98432 58.4134L10.9097 62.3627L11.0527 62.4282L13.7226 68.0315L9.35779 64.5141ZM1.03918 43.956L0.994797 43.5094L2.0749 35.6828L5.0308 40.3356L5.0719 40.3683L4.02632 48.7299L1.04083 43.956H1.03918ZM60.8641 6.3967L63.1493 8.00652L58.431 5.67358L58.2781 5.46908L57.3443 4.80977L60.8641 6.3967ZM73.6429 19.1232L74.4714 22.9432L68.9147 16.4777L68.9361 16.4074L68.2752 13.2597L72.977 18.2495L73.6396 19.1248L73.6429 19.1232ZM63.2857 69.5988L56.2823 72.3358L58.1038 66.8617L66.0049 63.8057L63.4024 69.5219L63.2857 69.5988ZM31.4037 77.4139L29.6332 74.3284L38.2428 75.1497L38.4877 78.0863L31.4037 77.4139ZM57.3361 5.41673L49.8395 4.30752L49.7737 4.21754L48.6657 3.42899L54.6942 3.62367L54.949 3.73001L57.3361 5.4151V5.41673ZM21.1156 71.6814L19.036 66.0568L27.9744 68.3374L29.1334 73.7444L21.1633 71.7027L21.1173 71.6814H21.1156ZM73.2713 28.0786L69.7778 32.1408L64.6963 23.6778L67.5913 20.4091L73.2697 28.0786H73.2713ZM31.7473 4.07357L38.5929 5.36765L30.8037 5.02246L31.6931 4.10466L31.7473 4.07357ZM33.49 3.08543L38.9858 5.18769L32.0778 3.88216L33.4127 3.1116L33.4883 3.08543H33.49ZM35.6633 2.35904L39.4823 5.1108L33.8615 2.96109L35.6157 2.36722L35.665 2.35904H35.6633ZM38.1129 1.93368L39.9377 5.13207L36.0069 2.30015L38.1112 1.93532L38.1129 1.93368ZM45.8692 2.64698L47.4804 3.32428L41.3581 5.13534L45.8068 2.63062L45.8709 2.64534L45.8692 2.64698ZM47.9078 3.50424L49.08 4.33861L41.8349 5.25477L47.8338 3.4748L47.9061 3.50588L47.9078 3.50424ZM59.7084 8.2143L60.1588 10.4851L51.0363 6.99057L50.8308 5.87972L59.6755 8.17012L59.7084 8.2143ZM67.2527 20.0393L64.397 23.277L57.6715 15.8381L59.7166 13.5935L67.251 20.0393H67.2527ZM38.3167 68.8069L38.2954 61.2977L48.7084 60.7987L48.3319 68.3096L38.3167 68.8069ZM46.5466 29.7686L44.8401 20.4696L49.6669 19.596L53.3626 28.504L46.5466 29.7686ZM34.5947 11.4012L36.8996 11.9558L34.0193 19.7056L29.5016 18.6144L34.5964 11.4012H34.5947ZM39.9361 12.247L42.5073 12.1489L44.4817 20.0066L39.4708 20.2111L39.9361 12.247ZM37.3681 11.5239L40.1596 6.17256L39.7207 11.7432L37.3698 11.5239H37.3681ZM42.6141 11.6352L40.6874 6.19874L44.8417 11.2393L42.6141 11.6352ZM42.3544 11.6548L39.9689 11.7481L40.4095 6.16766L42.3527 11.6548H42.3544ZM45.1196 11.1853L41.0375 6.22983L47.0217 10.5243L45.1196 11.1836V11.1853ZM37.1002 11.4912L34.9679 10.9808L39.8555 6.20529L37.0985 11.4896L37.1002 11.4912ZM44.7316 19.9821L42.7555 12.1129L45.1623 11.6859L49.4301 19.1281L44.7316 19.9804V19.9821ZM47.3094 10.4245L41.4453 6.2151L48.766 9.55909L47.3094 10.4245ZM34.6819 10.9104L32.9228 10.1562L39.4807 6.22328L34.6819 10.9104ZM37.1462 12.0016L39.6829 12.2405L39.2176 20.2046L34.2692 19.7416L37.1462 12.0016ZM49.6866 19.0724L45.4056 11.6106L47.4705 10.8973L53.7325 17.6442L49.6866 19.0724ZM49.0224 9.40367L41.8415 6.12185L49.9562 8.39753L49.0224 9.40367ZM32.64 10.0352L31.3594 9.10101L39.0648 6.18074L32.6384 10.0352H32.64ZM32.446 10.49L34.3481 11.3112L29.2419 18.544L25.4821 16.9129L32.446 10.4916V10.49ZM44.5869 20.499L46.2917 29.7932L39.0204 30.1024L39.4412 20.7068L44.5869 20.499ZM46.3707 30.2889L47.6628 40.2963L38.6603 40.6971L39.0023 30.5997L46.3723 30.2889H46.3707ZM47.9111 40.2685L46.6189 30.2578L53.527 28.9784L56.3415 38.6669L47.9094 40.2685H47.9111ZM53.6042 28.4418L49.9036 19.5223L54.0629 18.0565L59.4684 26.3281L53.6042 28.4418ZM53.9791 17.5461L47.6941 10.773L49.2739 9.83885L57.0944 15.6581L53.9791 17.5461ZM50.4905 7.1149L50.1206 8.18812L42.1423 5.94843L50.4905 7.1149ZM31.1276 8.92269L30.3927 7.87892L38.6916 6.05641L31.1276 8.92269ZM30.8431 9.34477L32.2257 10.3542L25.2421 16.7968L22.4949 14.7567L30.8431 9.34477ZM39.1913 20.7035L38.7705 30.0975L31.5846 29.4234L34.1081 20.2258L39.1897 20.7035H39.1913ZM38.7507 30.5981L38.4088 40.6939L29.5099 39.8562L31.4679 29.9126L38.7507 30.5981ZM38.3956 41.1928L38.1622 51.1888L28.2012 50.2481L29.4326 40.3454L38.3973 41.1912L38.3956 41.1928ZM38.4121 51.1954L38.6455 41.1977L47.7138 40.7969L48.4881 50.7291L38.4121 51.197V51.1954ZM56.5848 38.6014L53.7686 28.9114L59.7133 26.7715L63.8266 35.9364L56.5848 38.6014ZM59.6985 26.225L54.2832 17.9403L57.4857 16.0049L64.203 23.4357L59.6985 26.225ZM57.3065 15.5076L49.4531 9.66052L50.4609 8.58731L59.2941 13.3104L57.3065 15.506V15.5076ZM50.5875 8.37135L50.9788 7.2376L60.1868 10.7599L59.4223 13.0961L50.5859 8.37135H50.5875ZM50.3031 5.79628L50.5004 6.86296L42.2689 5.71285L50.3031 5.79628ZM30.276 7.64824L30.1116 6.56521L38.4433 5.85354L30.2743 7.6466L30.276 7.64824ZM29.8913 8.03597L30.6787 9.155L22.3026 14.5816L20.7375 12.2945L29.8913 8.03597ZM28.9821 18.9743L24.5302 27.7056L19.0689 25.3023L25.1204 17.2925L28.9821 18.9743ZM29.2205 19.0561L33.8615 20.1817L31.3363 29.3842L24.7735 27.7809L29.2205 19.0561ZM31.2213 29.8701L29.2633 39.8121L21.1386 37.803L24.568 28.239L31.2196 29.8684L31.2213 29.8701ZM29.1844 40.3078L27.9546 50.2039L18.8634 47.9315L21.0006 38.2808L29.1844 40.3078ZM38.1523 51.6878L38.0438 60.7922L27.7442 59.8171L28.1569 50.7406L38.1507 51.6862L38.1523 51.6878ZM38.2937 60.7987L38.4022 51.6911L48.5128 51.2248L48.7117 60.2981L38.2937 60.8003V60.7987ZM48.7364 50.6931L47.9637 40.7626L56.4566 39.1527L58.168 48.8624L48.7364 50.6947V50.6931ZM64.0485 35.8218L59.9352 26.6586L64.5006 23.8381L69.5921 32.3159L64.0485 35.8218ZM49.417 4.57746L50.1305 5.54598L42.162 5.46418L49.3775 4.55129L49.4153 4.57746H49.417ZM40.8731 5.12062L43.4427 2.07274H43.446L45.4451 2.54555L40.8715 5.11898L40.8731 5.12062ZM38.4006 5.60814L30.1707 6.30999L30.5686 5.26295L38.3989 5.60814H38.4006ZM29.6217 6.66827L29.7943 7.80857L20.6586 12.0589L20.3397 9.69815L29.6233 6.66827H29.6217ZM22.0872 15.0741L24.9067 17.1665L18.8519 25.1796L14.875 22.171L22.0889 15.0724L22.0872 15.0741ZM24.3346 28.1637L20.9052 37.7245L14.155 34.7094L18.8042 25.7228L24.3362 28.1637H24.3346ZM20.7622 38.2071L18.6283 47.8416L11.0856 44.4239L13.9643 35.1625L20.7605 38.2055L20.7622 38.2071ZM27.9103 50.7062L27.4976 59.7696L18.1022 57.3974L18.791 48.4223L27.9103 50.7062ZM38.0422 61.2928L38.0636 68.7988L28.1651 67.8597L27.7491 60.3161L38.0422 61.2928ZM38.0701 69.2994L38.2132 74.6442L29.403 73.8066L28.2358 68.3636L38.0701 69.2994ZM48.5818 68.2687L48.9567 60.7676L58.6924 58.842L57.9477 66.3824L48.5818 68.2687ZM48.9632 60.2604L48.7643 51.1937L58.2238 49.3581L58.7105 58.3283L48.9632 60.2588V60.2604ZM58.4096 48.7872L56.6999 39.084L63.9943 36.4026L66.4997 45.7491L58.4113 48.7855L58.4096 48.7872ZM68.4183 16.3796L67.3562 19.7972L59.858 13.3824L60.6372 11.0004L68.415 16.3616L68.4183 16.378V16.3796ZM57.9214 5.829L59.4371 7.85274L50.7782 5.60651L50.7716 5.57052L50.0466 4.58728L57.775 5.72594L57.9197 5.82737L57.9214 5.829ZM43.1402 2.04329L40.5065 5.16479L40.911 1.83552L43.1386 2.04329H43.1402ZM40.2534 5.17624L38.3924 1.91732L40.6594 1.83225L40.2534 5.17624ZM29.5954 6.41142L20.4482 9.39713L21.3146 7.19834L21.3836 7.12799L30.0096 5.32348L29.597 6.41142H29.5954ZM20.3101 12.553L21.913 14.8925L14.7041 21.9862L12.46 18.616L20.3117 12.5513L20.3101 12.553ZM18.5806 25.6034L13.9412 34.5768L9.0405 30.8026L14.5528 22.5571L18.5806 25.6034ZM13.739 35.0513L10.8719 44.2751L5.41385 40.0002L8.81199 31.2541L13.739 35.0496V35.0513ZM18.5461 48.352L17.8605 57.296L10.0746 53.7263L10.987 44.9197L18.5461 48.352ZM27.496 60.2834L27.9119 67.8057L18.888 65.5071L18.1137 57.9095L27.496 60.2834ZM38.4647 74.6507L38.3217 69.301L48.2728 68.8086L47.3834 74.1992L38.4647 74.6507ZM66.2005 63.1922L58.2074 66.2875L58.9472 58.7815L67.2724 55.6044L66.2219 63.1774L66.1989 63.1922H66.2005ZM58.9538 58.2482L58.4688 49.2943L66.577 46.2546L67.302 55.0596L58.9538 58.2482ZM66.72 45.6248L64.2211 36.2963L69.8025 32.7723L72.8948 41.6427L66.72 45.6264V45.6248ZM74.6079 23.5878L73.3601 27.7874L67.7508 20.2078L68.8227 16.7575L74.5783 23.4553L74.6079 23.5878ZM67.6604 12.7771L68.3377 16.0082L60.7145 10.7534L60.7178 10.7436L60.2591 8.43516L67.5321 12.607L67.6604 12.7755V12.7771ZM38.103 1.43143L37.9781 1.4527L36.6826 0.667416L41.031 0.505452L40.7646 1.33327L38.103 1.43143ZM37.6032 1.51814L35.5104 1.87969L35.3 1.95004L32.2077 1.36272L36.0957 0.69032L36.2305 0.685412L37.6049 1.51814H37.6032ZM30.1148 5.05027L21.6993 6.81061L23.5668 4.90794L23.7542 4.79996L31.0273 4.08175L30.1379 4.99137L30.1148 5.05027ZM20.1917 12.337L12.4058 18.3461L11.9915 14.9301L12.0178 14.8663L19.8662 9.93373L20.1917 12.3354V12.337ZM14.3687 22.3886L8.88268 30.5964L6.15036 26.387V26.3723L12.1016 18.9841L14.3687 22.3886ZM8.60977 31.0954L5.24945 39.7482L2.26889 35.0562L2.25574 34.9319L5.86759 26.8713L8.60977 31.0971V31.0954ZM10.7437 44.8133L10.7519 44.8166L9.84441 53.5512L4.27128 49.1258L4.23511 49.0686L5.29713 40.5483L10.742 44.8133H10.7437ZM17.8572 57.849H17.8589L18.625 65.3942L11.2024 61.957L11.1613 61.9243L10.1058 54.2939L17.8572 57.849ZM18.6809 65.9701L18.7417 65.9865L20.7934 71.5358L14.3309 68.5255L14.173 68.3979L11.4079 62.5967L18.6792 65.9701H18.6809ZM55.9568 72.4667L47.6431 74.1599L48.5325 68.7906L57.8211 66.9239L55.9798 72.4585L55.9568 72.4667ZM72.5003 59.0155L66.4997 62.9991L67.5436 55.5046L73.8516 51.3737L72.594 58.8993L72.5003 59.0138V59.0155ZM73.8812 50.7585L67.542 54.9156L66.8203 46.1548L73.0017 42.1744L73.9026 50.734L73.8812 50.7602V50.7585ZM76.9243 36.8754L73.0855 41.4366L70.0146 32.6185L73.5229 28.5547L76.9424 36.8165L76.9259 36.8754H76.9243ZM60.1983 8.11614L60.1769 8.0098L58.7614 6.12021L64.4743 8.94559L65.0892 9.37913L67.1491 12.1047L60.1966 8.11614H60.1983ZM54.0497 3.357L48.2974 3.1705L48.1758 3.08379L46.6764 2.44902L50.6911 2.00567L50.9903 2.07601L54.0497 3.35864V3.357ZM46.2194 2.25434L46.0451 2.18072L44.1151 1.72264L46.1125 0.953717L46.3164 0.973349L49.971 1.83552L46.2194 2.25597V2.25434ZM43.686 1.61957L43.5463 1.58685L41.0244 1.34963L41.2973 0.505452L45.5552 0.901365L43.6877 1.61957H43.686ZM31.5073 1.48378L34.8183 2.11364L33.2302 2.64862L33.0461 2.75496L27.9267 2.64371L31.2213 1.5345L31.5073 1.48542V1.48378ZM26.9469 2.97254L27.2296 2.87766L32.6252 2.99545L31.4103 3.69402L31.2985 3.80854L24.282 4.50221L26.9469 2.97582V2.97254ZM20.8279 7.074L14.2536 10.5374L16.6703 8.08669L17.8638 7.40284L22.5426 5.24822L20.8855 6.9284L20.8279 7.074ZM13.6733 11.1247L20.6898 7.42411L19.8235 9.62453L19.83 9.67034L12.1772 14.4753L13.4316 11.3718L13.6733 11.1264V11.1247ZM11.9504 18.76L11.9553 18.7665L6.10926 26.0222L5.65059 21.8487L5.74758 21.6132L11.5328 15.3047L11.9504 18.7583V18.76ZM1.73953 29.9273L2.49576 28.0868L5.21328 22.4704L5.66374 26.5572L5.70648 26.6226L2.20313 34.4312L1.74117 29.929L1.73953 29.9273ZM9.79509 54.15L9.83619 54.1696L10.8736 61.6936L5.63086 57.4891L5.50756 57.2895L4.28278 49.7737L9.79345 54.15H9.79509ZM32.6548 77.782L38.5485 78.3416L38.6817 78.5608L33.9289 78.1092L32.6548 77.782ZM38.7392 78.0945L38.4926 75.1481L47.2206 74.708L45.9235 77.7248L38.7392 78.0945ZM56.0784 72.9477L62.6182 70.3955L59.3927 73.4663L58.819 73.8507L53.5138 75.9334L55.9699 72.9706L56.0784 72.9493V72.9477ZM74.1377 51.1855L74.1887 51.1512L77.9731 46.5949L76.8174 52.9246L76.4689 54.168L72.9129 58.5083L74.1361 51.1855H74.1377ZM78.0011 45.7802L74.1229 50.4657L73.2384 42.0158L77.0821 37.4644L78.0619 45.5659L78.0011 45.7818V45.7802ZM73.707 28.3404L73.7333 28.3093L74.9761 24.1293L78.2691 31.3277L78.3776 31.8202L77.0525 36.4337L73.707 28.3404ZM70.4486 14.9072L71.5731 16.3927L68.1782 12.7918L68.1322 12.5693L67.9431 12.319L70.4486 14.9072ZM23.0391 4.7427L20.3232 5.9926L21.4822 5.32839L23.1854 4.59219L23.0391 4.74106V4.7427ZM11.4785 14.8614L11.4933 14.9808L6.02048 20.9424L7.46555 17.4168L12.5159 12.2961L11.4785 14.863V14.8614ZM1.77898 35.2198L1.86611 35.3556L0.887937 42.4427L0.67093 40.2587L0.503243 38.5638L1.44525 31.9511L1.78063 35.2198H1.77898ZM3.88987 49.4596L4.00002 49.5463L5.16561 56.7349L2.51385 52.4584L1.25948 45.255L3.88823 49.4596H3.88987ZM46.2178 77.6757L47.5017 74.69L55.5787 73.0474L53.0305 76.1215L52.871 76.1837L51.472 76.5976L46.2161 77.6757H46.2178ZM60.6175 72.6434L63.2331 70.155L63.4945 70.0536L66.3057 68.1771L63.4139 70.7718L60.6175 72.6466V72.6434ZM72.4904 61.4498L70.9812 63.3001L70.0672 64.4192L72.6466 59.5144L72.811 59.4065L72.8422 59.3852L75.1849 56.5238L72.4888 61.4498H72.4904ZM79.4938 40.4828L78.2362 44.9491L77.304 37.201L77.3797 37.1126L78.542 33.0652L79.4938 40.4844V40.4828Z" fill="url(#paint0_linear_528_1345)"/>
</g>
<defs>
<linearGradient id="paint0_linear_528_1345" x1="76.7647" y1="9.88465" x2="12.0061" y2="27.9122" gradientUnits="userSpaceOnUse">
<stop stop-color="#82C5EA"/>
<stop offset="1" stop-color="#D783C2"/>
</linearGradient>
<clipPath id="clip0_528_1345">
<rect width="80" height="79.0909" fill="white"/>
</clipPath>
</defs>
</svg>
