<svg width="81" height="80" viewBox="0 0 81 80" fill="none" xmlns="http://www.w3.org/2000/svg">
<g id="Earth1" opacity="0.4" clip-path="url(#clip0_528_1343)">
<path id="Vector" d="M61.9032 74.0604L67.8389 69.872L72.7927 64.531L73.4633 63.5531L77.9751 55.953L80.5381 47.9588V47.9274L81.0017 40.0767L80.4056 34.6004V34.5741L80.399 34.5394L78.543 26.4809L78.5214 26.4463L74.465 19.7448L70.9367 13.9652L70.9036 13.9124L70.8969 13.9075L67.4283 11.0382L64.6649 8.75111L59.2922 4.87767L59.1696 4.77708L59.1316 4.76224L59.0703 4.73915L51.6048 1.87983C51.6048 1.87983 51.5948 1.87983 51.5899 1.87653L51.5667 1.86829L45.4638 0.559002L37.7466 0L29.6419 1.51376C29.6419 1.51376 29.6353 1.51706 29.6304 1.51871L29.6088 1.52365L25.9216 2.75214L25.905 2.75873H25.9001L19.3236 5.6329L13.2936 9.93013L8.20232 15.3684L4.38429 21.5983L2.10936 28.1562L0.763276 32.2886C0.746719 32.3183 0.733474 32.3512 0.730162 32.3892L0 40.3323L0.00662279 40.3669L1.38416 47.6949L1.39079 47.7345L1.3941 47.7395L2.82627 53.933C2.82627 53.9726 2.8329 54.0138 2.85277 54.0517L6.65756 61.0286L6.6708 61.0417L10.7885 66.513L16.8053 71.9678L16.8302 71.9777L22.6681 75.3697L30.0857 78.5638L38.6307 79.4657H38.6324L38.6638 79.469L43.8876 79.9984L52.0237 78.6726L60.0124 75.3169L61.8982 74.0588L61.9032 74.0604ZM64.2261 9.61517L57.8997 7.84747L57.8351 7.74029L52.9922 3.71679L58.1067 4.90735L58.9114 5.21571L64.2261 9.61352V9.61517ZM37.7764 0.506235L44.126 0.966299L39.1721 2.03648L38.9751 1.96063L33.6934 1.57477L36.581 0.730496L37.7764 0.507884V0.506235ZM32.0543 2.11563L28.1038 5.7038L27.9978 5.69556L23.6632 6.50521L25.9448 3.28806L26.0772 3.23034L32.0526 2.11563H32.0543ZM8.62453 15.6471L10.3878 15.8368L7.79502 20.073L7.77515 20.1323L5.14756 21.3064L8.61956 15.6521L8.62453 15.6471ZM2.28817 49.372L4.84457 54.0501L4.99027 54.182L6.34794 59.406L4.9704 56.8797L3.31305 53.8407L2.28652 49.372H2.28817ZM8.64605 62.8259L12.5336 66.3448L12.7456 66.4355L15.6049 70.1952L14.8566 69.5158L11.1495 66.1552L8.64771 62.8259H8.64605ZM59.6945 74.9146L57.0669 74.006L64.9431 68.4473L66.8902 69.9314L61.6184 73.6465L59.7574 74.8882L59.6945 74.9146ZM70.5178 14.2455L74.2216 20.3648L69.4134 16.7915L69.382 16.6546L65.751 10.6375L69.026 13.0137L69.3969 13.3204L70.5161 14.2471L70.5178 14.2455ZM52.0998 3.63104L57.1066 7.78976L49.156 7.92497L49.1345 7.8887L49.1013 7.86066L44.9903 4.42255L51.9458 3.57003L52.0982 3.62774L52.0998 3.63104ZM2.64415 28.1513L6.12773 25.2326L5.74692 29.4622L5.76348 29.5447L2.05969 34.1536L2.59613 28.2898L2.64415 28.1513ZM1.87259 47.563L1.82292 47.3008L2.91403 41.3167L5.49857 46.0179L5.55486 46.0691L4.9704 53.2355L1.87094 47.5647L1.87259 47.563ZM7.05989 60.7119L6.84631 60.3195L5.32969 54.4887L10.1478 58.8305L10.2339 58.8667L12.3333 65.4857L7.05989 60.7136V60.7119ZM16.6215 71.1186L13.2108 66.6334L20.1068 69.5735L20.1747 69.5801L24.0771 74.5452L17.0835 71.5358L16.6215 71.117V71.1186ZM38.6522 78.9628L38.4585 78.943L34.003 76.1546L43.0233 74.6705L43.0332 74.6672L47.2271 77.5694L38.6539 78.9628H38.6522ZM61.0621 14.1152L62.6251 21.13L53.4641 18.9995L52.2058 13.2248L61.0621 14.1152ZM44.3843 4.5759L48.5185 8.0338L39.7433 10.283L36.8028 7.8013L44.3495 4.56436L44.3826 4.57755L44.3843 4.5759ZM38.8989 2.46027L44.015 4.43409L36.5909 7.62156L36.5677 7.60177L32.8954 6.18201L38.8079 2.45203L38.8989 2.45862V2.46027ZM47.5847 77.5134L43.3081 74.5534L52.3465 70.7443L56.2954 73.8708L47.6344 77.5068L47.5864 77.515L47.5847 77.5134ZM70.7264 24.8896L70.1817 33.4989L62.6449 29.3517L63.1632 21.5686L70.7264 24.8896ZM62.6681 21.3987L62.1532 29.1308L53.0105 25.6168L53.4608 19.2584L62.6681 21.3987ZM28.0243 6.20179L32.1222 6.51015L26.5905 12.552L26.5623 12.5405L24.4878 12.3789L28.0111 6.20509L28.026 6.20179H28.0243ZM23.3553 7.06751L27.6849 6.26446L24.2079 12.3574H24.1964L21.9479 12.7763L23.3519 7.0708H23.3569L23.3553 7.06751ZM6.6708 24.8665L12.686 22.6767L12.4955 24.8599V24.8665L6.28668 29.1061L6.66749 24.8748L6.6708 24.8632V24.8665ZM33.4451 75.7259L29.0773 70.4063L37.9651 68.9255L42.5911 74.2385L33.4865 75.7292L33.4451 75.7242V75.7259ZM52.9608 19.1792L52.5171 25.4618L42.4653 22.8861L42.7998 18.4306L52.9608 19.1809V19.1792ZM19.163 13.9173L17.0454 15.4295L14.5983 12.0276L18.5438 9.22107L19.163 13.919V13.9173ZM42.2931 18.4306L41.9653 22.7888L31.7927 21.3658L31.9699 19.1512L42.2931 18.4306ZM21.8651 13.2957L23.9844 12.9065L21.6847 20.3731L21.8651 13.2957ZM35.614 48.7503L41.5928 44.5124L48.4639 51.9542L41.1888 57.0974L35.6124 48.7519L35.614 48.7503ZM31.0592 17.0652L31.4533 18.9731L22.6615 20.9106L31.0592 17.0652ZM22.6218 20.6518L30.0542 15.2332L30.9748 16.8261L22.6201 20.6518H22.6218ZM31.4582 19.2303L31.291 21.3278L22.6102 21.1811L31.4582 19.232V19.2303ZM30.1022 39.3495L34.2911 36.3747L41.2567 44.1414L35.3475 48.3232L30.1006 39.3495H30.1022ZM22.8668 31.1145L25.1368 30.1301L29.6419 39.0279L25.1881 40.9374L22.8668 31.1129V31.1145ZM25.3603 30.013L27.4531 28.5223L33.96 35.9971L29.8605 38.9026L25.3603 30.013ZM21.9777 22.0056L27.1286 28.1414L25.1467 29.548L21.9777 22.0056ZM22.7807 30.6033L21.7708 22.1639L24.9282 29.6782L22.7791 30.6033H22.7807ZM22.5373 30.6874L20.375 31.0733L21.534 22.2974L22.5373 30.6891V30.6874ZM22.1632 21.8324L28.9896 26.1857L27.319 27.9732L22.1632 21.8324ZM18.0935 30.9216L21.2674 22.3766L20.1167 31.0947L18.0918 30.9199L18.0935 30.9216ZM22.337 21.6428L30.387 23.9464L29.1469 25.9862L22.337 21.6428ZM37.6042 32.1319L34.1521 35.8289L27.6485 28.3574L29.4118 26.4627L37.6025 32.1303L37.6042 32.1319ZM15.8765 30.0262L14.5072 28.8274L20.7641 22.2809L15.8765 30.0262ZM21.0009 22.3782L17.8451 30.8721L16.0901 30.1581L21.0009 22.3782ZM22.4943 21.4268L31.2298 21.5752L30.5046 23.7189L22.4943 21.4268ZM40.3162 27.7094L37.7565 31.934L29.5658 26.2665L30.8721 24.1064L40.3146 27.7094H40.3162ZM24.948 41.0133L20.4578 41.7982L20.3402 31.5894L22.6234 31.1772L24.948 41.0133ZM20.2061 41.8114L15.994 41.4288L17.9494 31.4146L20.0886 31.5993L20.2061 41.8114ZM14.3549 28.6246L13.4575 27.0267L20.5952 22.093L14.3549 28.6246ZM41.9156 23.0345L40.4255 27.4835L30.9814 23.8805L31.7414 21.6131L41.914 23.0362L41.9156 23.0345ZM46.4175 38.6454L41.4487 43.9749L34.4865 36.2115L38.0131 32.4271L46.4191 38.6454H46.4175ZM25.3289 41.4255L29.882 39.4682L35.1306 48.4436L28.7081 51.1825L25.3305 41.4255H25.3289ZM15.7506 41.3645L12.1065 39.8574L15.8566 30.6066L17.706 31.3487L15.7523 41.3645H15.7506ZM13.3863 26.7711L13.0154 24.8764L20.5306 21.8308L13.388 26.7711H13.3863ZM20.6912 21.2734L13.287 22.2744L14.0105 20.1703L20.6912 21.2718V21.2734ZM14.1397 19.9378L15.3616 17.9425L20.8585 21.0459L14.1397 19.9378ZM15.5222 17.743L17.1613 15.9918L21.0356 20.8562L15.5222 17.743ZM17.35 15.8252L19.2905 14.445L21.2211 20.6831L17.35 15.8252ZM24.2642 12.8637L26.261 13.0203L21.9761 20.2956L24.2642 12.8653V12.8637ZM26.5325 13.0549L28.2776 13.7442L22.2559 20.3154L26.5325 13.0566V13.0549ZM28.5111 13.8613L29.8903 15.0386L22.4827 20.4374L28.5094 13.8596L28.5111 13.8613ZM50.2421 32.3496L46.5681 38.4409L38.1671 32.2243L40.7798 27.9007L50.2438 32.3479L50.2421 32.3496ZM54.7688 45.2231L48.6593 51.786L41.7898 44.3459L46.8165 38.9471L54.7705 45.2231H54.7688ZM62.0423 51.3804L55.2423 58.692L49.0037 52.1554L55.1546 45.5414L62.0423 51.3821V51.3804ZM67.7263 56.6687L60.7277 64.2012L55.5933 59.0547L62.4132 51.7135L67.7246 56.6703L67.7263 56.6687ZM60.5356 64.3644L52.1892 70.2529L47.2751 64.9647L55.4029 59.2196L60.5356 64.3661V64.3644ZM41.4851 57.503L48.8099 52.3187L55.0503 58.8569L46.9456 64.5788L41.4851 57.503ZM28.8936 51.6475L35.3938 48.8707L40.9686 57.2145L33.0576 60.5701L28.8952 51.6475H28.8936ZM20.4942 42.3011L25.0838 41.4915L28.4631 51.2501L21.9877 52.3615L20.4942 42.3028V42.3011ZM11.8962 39.7073L9.06328 37.1992L14.1926 29.2281L15.6331 30.4879L11.8962 39.7073ZM13.0254 24.5994L13.2058 22.5365L20.5654 21.5439L13.0254 24.5994ZM19.5091 14.3065L21.6118 13.393L21.4297 20.5132L19.5091 14.3065ZM28.8903 13.5265L36.3293 8.05689L39.2119 10.4908L30.3406 14.7649L28.8903 13.5282V13.5265ZM39.399 10.6755L41.3361 13.9817L31.4566 16.648L30.488 14.971L39.399 10.6738V10.6755ZM41.4355 14.2142L42.2782 18.1799L31.955 18.8989L31.5394 16.8871L41.4355 14.2142ZM52.4724 25.7075L50.3464 32.1237L40.8891 27.6797L42.4057 23.1285L52.4724 25.7092V25.7075ZM59.4246 37.5175L54.9178 45.0236L46.9705 38.7526L50.6859 32.5804L59.4263 37.5175H59.4246ZM67.1948 42.8123L62.1896 51.1792L55.3119 45.3468L59.8468 37.7813L67.1931 42.8123H67.1948ZM73.0146 47.8417L67.8736 56.4625L62.5754 51.5189L67.5971 43.124L73.0146 47.8417ZM51.9525 70.3683L42.8759 74.1874L38.2168 68.8332L47.0533 65.0949L51.9525 70.3667V70.3683ZM33.2994 61.0154L41.2633 57.63L46.7171 64.6975L37.9006 68.4209L33.2977 61.0154H33.2994ZM22.0986 52.8529L28.6502 51.7217L32.8076 60.6328L24.8338 61.9767L22.0986 52.8529ZM15.6645 51.786L15.9377 41.9285L20.2426 42.3193L21.7327 52.3632L15.6645 51.786ZM7.06817 33.6374L13.0668 27.3647L14.0122 29.0467L8.91758 36.9651L7.06983 33.6374H7.06817ZM26.8405 12.6493L32.4401 6.53324L36.0578 7.94311L28.6833 13.3666L26.8405 12.6493ZM62.1168 29.3814L59.524 37.285L50.7984 32.3562L52.9442 25.8576L62.1151 29.3814H62.1168ZM70.1535 33.7644L67.2908 42.5732L59.966 37.557L62.5771 29.5974L70.1535 33.7661V33.7644ZM76.0346 38.5184L73.1056 47.5911L67.7147 42.8964L70.5857 34.0645L76.0329 38.5184H76.0346ZM25.0292 62.4533L33.0527 61.0945L37.6406 68.4753L28.7611 69.9479L25.0275 62.4533H25.0292ZM15.7026 52.2956L21.8436 52.8793L24.5689 61.9668L17.1067 61.2281L15.7026 52.2956ZM10.1776 49.5072L11.9657 40.3438L15.6877 41.8708L15.4162 51.702L10.1776 49.5055V49.5072ZM6.25853 29.426L12.5502 25.1353L12.9509 27.1207L7.00691 33.3423L6.25688 29.4358V29.426H6.25853ZM6.77511 24.5681L8.26193 20.2725L13.4873 20.1422L12.7174 22.3964L6.77511 24.5664V24.5681ZM8.40928 20.0268L10.9077 15.9555L14.9079 17.7149L13.5833 19.8866L8.40928 20.0252V20.0268ZM11.0716 15.7593L14.4128 12.1942L16.85 15.5861L15.0569 17.5072L11.0716 15.7593ZM23.0605 7.19448L21.6747 12.8241L21.6466 12.829L19.4064 13.8069L18.7806 9.05782L23.0622 7.19283L23.0605 7.19448ZM39.8824 10.5023L48.7503 8.23168L51.565 12.9791L41.8593 13.8794L39.8808 10.5023H39.8824ZM51.6875 13.2165L52.931 18.9253L42.7931 18.1766L41.9322 14.1235L51.6875 13.2165ZM71.2148 25.198L76.5727 29.3452L76.5892 29.4161L76.0561 38.2067L70.6701 33.8073L71.2148 25.198ZM76.5213 52.2412L71.6006 60.5091L68.2412 56.8286L73.3722 48.2243L76.5197 52.2412H76.5213ZM71.4549 60.7218L64.746 67.9477L61.0919 64.5491L68.0773 57.0215L71.4549 60.7218ZM64.5523 68.1093L56.5503 73.7504L52.5733 70.5959L60.9015 64.714L64.5523 68.1093ZM24.549 74.7447L20.5257 69.6148L28.7595 70.4574L28.7926 70.4524L33.099 75.6879L24.6964 74.8107L24.549 74.748V74.7447ZM20.1697 69.0624L17.2656 61.7459L24.7709 62.4895L28.4747 69.9231L20.2012 69.0772L20.1697 69.064V69.0624ZM10.4094 58.3803L10.1494 50.0365L15.4477 52.2593L16.8401 61.1192L10.4276 58.3984L10.4094 58.3819V58.3803ZM5.9009 45.6881L8.83977 37.6708L11.7339 40.2333L9.95902 49.3225L5.90587 45.698L5.9009 45.6898V45.6881ZM5.73865 45.3946L3.13423 40.6588L3.12264 40.5945L6.75193 34.0991L8.63115 37.4861L8.63612 37.4911L5.73865 45.3946ZM2.02161 34.6054L5.82971 29.8662L6.60292 33.8337L6.60789 33.8419L3.04979 40.2103L2.01167 34.7241L2.02161 34.607V34.6054ZM61.6134 14.2521L68.8753 16.7849L68.9084 16.841L70.6618 24.5796L63.1814 21.2965L63.1748 21.2685L61.6118 14.2504L61.6134 14.2521ZM69.5012 17.1658L74.5693 20.9321L74.6951 21.1399L76.4866 28.9576L71.2364 24.8979L71.2397 24.8385L71.2314 24.8039L69.5012 17.1658ZM76.422 38.9702L79.389 43.251L79.384 43.3367L76.6174 51.9526L73.5113 47.9918L73.5179 47.9736L76.4237 38.9702H76.422ZM12.7058 65.8221L10.5402 58.9954L16.9792 61.7162L19.8468 68.9288L12.8101 65.9161L12.7058 65.8221ZM5.19392 53.6378L5.79494 46.2801L9.87292 49.9277L9.89113 49.9343L10.1478 58.1511L5.24856 53.7368L5.19558 53.6395L5.19392 53.6378ZM13.6943 10.255L19.1978 6.33866L18.5587 8.61259L18.4759 8.64887L14.3416 11.5956L13.6943 10.255ZM19.5256 6.1045L19.5952 6.05504L25.4944 3.48263L23.3039 6.57116L23.1764 6.59425L18.8567 8.48068L19.524 6.1045H19.5256ZM28.4399 5.72689L32.5245 2.02494L32.6586 2.00021L38.3873 2.41905L32.6106 6.06823L32.5179 6.03195L28.4432 5.72524L28.4399 5.72689ZM57.4014 8.03545L57.4444 8.07173L60.9032 13.8464L52.1445 12.9675L49.3017 8.17397L57.4014 8.03545ZM58.0868 8.16078L64.7013 10.0093L64.8652 10.1445L68.6684 16.4485L61.5456 13.9652L61.5356 13.9173L61.5141 13.8827L58.0868 8.16078ZM78.0678 26.6705L79.6622 33.5929L77.0859 29.5579L77.0975 29.3765L77.0892 29.3419L75.5081 22.4425L78.0678 26.6705ZM79.8294 34.3234L79.8973 34.6153L79.4105 42.847L76.5147 38.6767L76.5362 38.6074V38.5761L77.0594 29.9751L79.8294 34.3251V34.3234ZM30.2181 78.0724L29.3505 77.6997L25.4497 75.3977L33.4997 76.2387L33.6272 76.2173L37.8873 78.882L30.2165 78.0724H30.2181ZM20.6879 73.6366L24.5639 75.3037L24.602 75.307L24.8487 75.3334L27.5177 76.9082L22.8867 74.9129L20.6879 73.635V73.6366ZM0.509955 40.3075L0.572871 39.6232L1.65735 35.5832L2.65077 40.8336L2.72362 40.9655L1.69378 46.6083L0.509955 40.3075ZM1.89412 30.4368L1.50006 34.7488L1.50668 34.7835L1.54973 35.0127L0.710294 38.1408L1.23349 32.4584L1.89577 30.4368H1.89412ZM3.55147 25.541L4.8545 21.7863L4.91576 21.6857L7.66422 20.4588L6.16747 24.8039L6.16085 24.8781L2.80641 27.6879L3.55147 25.541ZM8.84142 15.4163L13.5055 10.4413L14.1397 11.7506L10.5402 15.5993L8.84142 15.4163ZM51.4442 3.3804L44.7237 4.20324L44.6442 4.13563L39.5993 2.19973L45.0167 1.02896L45.3893 1.05534L51.4442 3.37875V3.3804ZM65.3504 9.97135L65.9646 10.4792L65.4166 10.0818L65.3504 9.97135ZM79.6258 44.2288L80.0695 47.2942L80.0364 47.8631L77.6803 55.2126L76.932 52.5347L76.9883 52.4407L76.9965 52.4143L79.6258 44.2271V44.2288ZM77.5413 55.6496L77.5032 55.77L73.1818 63.0403L71.9301 60.9445L76.7614 52.8266L77.5429 55.6496H77.5413ZM72.5692 63.9621L67.2991 69.6411L67.1037 69.778L65.1301 68.2741L71.7513 61.1357L73.0328 63.286L72.5675 63.9621H72.5692ZM51.5402 78.2488L48.3894 77.7294L56.7921 74.1956L56.8136 74.1808L59.3468 75.0564L51.8614 78.196L51.5418 78.2471L51.5402 78.2488ZM50.7604 78.3758L43.876 79.4921L40.5828 79.159L47.7735 77.9899L47.9523 77.9157L50.7587 78.3774L50.7604 78.3758ZM29.5376 2.07606L29.7529 2.00515L34.0974 1.19386L32.9749 1.522L32.6288 1.49727L29.5376 2.07606ZM48.5318 1.72977L51.4408 2.35474L56.2788 4.20818L56.3881 4.24941L52.5601 3.35731L52.3581 3.18912L48.5318 1.72813V1.72977ZM80.2268 37.6181L80.495 40.0866L80.144 46.041L79.8029 43.6813L79.8824 43.4323V43.401L80.2268 37.6181Z" fill="url(#paint0_linear_528_1343)"/>
</g>
<defs>
<linearGradient id="paint0_linear_528_1343" x1="77.7289" y1="9.99979" x2="12.1677" y2="28.2701" gradientUnits="userSpaceOnUse">
<stop stop-color="#82C5EA"/>
<stop offset="1" stop-color="#D783C2"/>
</linearGradient>
<clipPath id="clip0_528_1343">
<rect width="81" height="80" fill="white"/>
</clipPath>
</defs>
</svg>
