<svg width="135" height="96" viewBox="0 0 135 96" fill="none" xmlns="http://www.w3.org/2000/svg">
<g id="Calque_1" clip-path="url(#clip0_528_1427)">
<path id="Vector" d="M28.1081 25.214L27.794 25.1968C27.691 25.1899 27.6103 25.2313 27.5571 25.3211C27.4765 25.4541 27.3941 25.6216 27.3134 25.8202C26.4158 27.996 25.4924 30.1373 24.9071 32.4272C24.7063 33.2043 24.4231 34.4873 24.0541 36.2729C24.0267 36.4041 23.946 36.4663 23.8121 36.4542L23.6508 36.4421C23.5804 36.437 23.5324 36.3696 23.5478 36.3005C23.7555 35.3732 23.9494 34.4856 24.1331 33.6377C24.7046 31.006 25.549 28.6989 26.6835 26.0498C27.0714 25.145 27.4679 24.3092 27.8712 23.5407C32.083 15.5367 38.478 9.16281 46.3645 4.99243C47.5264 4.37766 48.8943 3.79398 50.1661 3.20685C50.8612 2.88565 51.8121 2.54028 53.0203 2.16555C57.7162 0.714979 62.2489 0.077765 66.6015 5.59889e-05C67.4253 -0.0154858 68.9546 0.0984874 71.1909 0.341976C86.382 1.99631 99.5616 11.7894 105.9 25.7097C106.13 26.2122 106.561 27.2932 107.197 28.9475C107.944 30.8885 108.598 33.3286 109.161 36.2608C109.182 36.3696 109.137 36.4266 109.027 36.4335L108.799 36.4456C108.696 36.4508 108.632 36.4024 108.613 36.3005C108.181 34.0694 107.702 32.1267 107.173 30.4724C106.823 29.3741 106.293 27.9943 105.586 26.3348C105.534 26.2156 105.445 26.1535 105.316 26.1517L104.235 26.1241C104.105 26.1206 104.063 26.1794 104.113 26.3002C105.421 29.5157 106.353 32.8382 106.911 36.2677C106.928 36.3834 106.88 36.4421 106.765 36.4421H106.566C106.449 36.4456 106.382 36.3886 106.365 36.2729C105.785 32.6482 104.838 29.4984 103.533 26.2467C103.502 26.169 103.427 26.1155 103.343 26.1155L99.1068 26.0464C99.0673 26.0464 99.0381 26.0861 99.0518 26.1241C100.217 29.4276 101.036 32.8174 101.506 36.2902C101.518 36.38 101.446 36.4577 101.357 36.4508L101.171 36.4404C101.062 36.4335 101 36.3748 100.984 36.266C100.478 32.8675 99.7057 29.3551 98.47 26.1258C98.4477 26.0671 98.3928 26.0291 98.331 26.0274L91.6923 25.9393C91.6202 25.9393 91.567 26.0067 91.5842 26.0775C92.4543 29.4311 93.0722 32.8295 93.4343 36.2781C93.4446 36.3817 93.4 36.4335 93.2971 36.437L93.0877 36.4439C92.9967 36.4473 92.9177 36.3782 92.9074 36.2867C92.5144 32.7933 91.9085 29.3879 91.0143 26.0395C90.9955 25.9687 90.9234 25.9186 90.8393 25.9169L82.2131 25.7925C82.1462 25.7925 82.093 25.853 82.1033 25.9203C82.6731 29.3188 82.9906 32.7777 83.224 36.2332C83.2343 36.3713 83.1691 36.4404 83.0318 36.4421H82.8945C82.7795 36.4456 82.6851 36.3541 82.6799 36.2401C82.5049 32.7812 82.1324 29.3447 81.566 25.9307C81.5523 25.8495 81.4837 25.7925 81.403 25.7908L71.2562 25.663C71.2167 25.663 71.1841 25.6958 71.1875 25.7373C71.3883 29.2463 71.3694 32.776 71.4381 36.2815C71.4381 36.3679 71.3729 36.4387 71.2888 36.4421L71.0828 36.449C70.9713 36.4525 70.9146 36.399 70.9129 36.285C70.906 34.42 70.8305 32.5394 70.8168 30.6623C70.8133 30.0959 70.7996 29.5278 70.7773 28.9613C70.7344 27.9529 70.7447 26.7855 70.6606 25.7027C70.6572 25.6613 70.6228 25.6285 70.5816 25.6285C68.601 25.6026 66.5895 25.6319 64.6621 25.5784C62.1803 25.5111 60.5103 25.48 59.6539 25.4869C59.5234 25.4869 59.4737 25.5542 59.5046 25.6855C59.5252 25.7735 59.5355 25.8444 59.5303 25.8927C59.2952 28.6989 59.0995 31.505 58.9399 34.3164C58.9073 34.9173 58.873 35.5614 58.8386 36.2487C58.8318 36.38 58.7648 36.4456 58.6344 36.4508L58.504 36.4542C58.3838 36.4577 58.322 36.399 58.3186 36.2781C58.3152 36.1503 58.3186 35.9983 58.3272 35.8256C58.4937 32.3995 58.7271 28.9838 59.024 25.575C59.0274 25.5318 58.9931 25.4955 58.9502 25.4938L49.0282 25.3712C48.9716 25.3712 48.9218 25.4109 48.9098 25.4679C48.1512 29.0408 47.6054 32.6465 47.2707 36.285C47.2604 36.3851 47.2072 36.437 47.1076 36.4404L46.9188 36.4456C46.8313 36.449 46.7867 36.4059 46.7798 36.3213C46.7661 36.1296 46.7695 35.9154 46.7936 35.6806C47.1248 32.2476 47.65 28.8595 48.3691 25.5145C48.3846 25.4437 48.3314 25.3764 48.2593 25.3764L40.0605 25.2797C39.9901 25.2797 39.9266 25.3246 39.906 25.3919C38.8007 28.9337 37.946 32.5532 37.5478 36.2315C37.5323 36.3765 37.4517 36.449 37.3075 36.4525L37.2097 36.4559C37.1101 36.4594 37.0295 36.3782 37.0295 36.2781C37.0295 36.0847 37.0449 35.8878 37.0706 35.6875C37.5272 32.182 38.2909 28.7593 39.3636 25.4144C39.3808 25.3643 39.3448 25.3125 39.2916 25.3107L33.2158 25.202C33.1575 25.202 33.106 25.2348 33.0837 25.29C31.6419 28.8318 30.6328 32.498 30.0578 36.285C30.0406 36.4007 29.9737 36.4559 29.857 36.4525L29.6939 36.449C29.5686 36.4456 29.5154 36.3817 29.5343 36.2556C30.0938 32.4928 31.0807 28.8474 32.4984 25.3211C32.5241 25.2538 32.5018 25.221 32.4315 25.221H28.9782C28.8735 25.221 28.7774 25.2848 28.7345 25.3815C27.2036 28.951 26.0571 32.4962 25.4066 36.3161C25.3997 36.3627 25.374 36.3955 25.3294 36.4128C25.2058 36.4594 25.0805 36.4629 24.9518 36.4197C24.9071 36.4041 24.8797 36.3592 24.8883 36.3109C25.5216 32.517 26.62 28.8664 28.1887 25.3608C28.2299 25.2693 28.2007 25.221 28.1012 25.2158M66.0214 0.811683C66.0042 0.815137 65.9871 0.825499 65.9751 0.839313L65.2233 1.60086C65.1615 1.66476 65.2044 1.77182 65.292 1.77528L67.7394 1.82881C67.8218 1.82881 67.8716 1.73901 67.827 1.66994L67.1164 0.606186C67.0924 0.571649 67.0495 0.55438 67.0066 0.564742L66.0197 0.811683M68.0724 0.611367C67.9694 0.569922 67.8699 0.675261 67.9162 0.777146L68.3848 1.777C68.4036 1.81845 68.4448 1.84435 68.4929 1.84608L70.5611 1.88579C70.6949 1.88925 70.7344 1.70102 70.6091 1.65094L68.0724 0.611367ZM65.1186 0.765058C64.3068 0.889393 63.0676 1.20368 62.4017 1.70102C62.3176 1.76319 62.3279 1.796 62.4343 1.79427L64.3085 1.77873C64.3892 1.77873 64.463 1.74246 64.5145 1.68202L65.2044 0.851401C65.2285 0.822045 65.2147 0.777146 65.1787 0.768512C65.1615 0.765058 65.1427 0.763331 65.1186 0.768512M73.0669 1.76319L70.7138 1.02063C70.7138 1.02063 70.6966 1.02063 70.6949 1.031L70.6898 1.05172C70.6297 1.24513 71.1068 1.56632 71.7556 1.77182L71.7882 1.78218C72.437 1.98595 73.0119 1.99631 73.072 1.80463L73.0789 1.78218C73.0789 1.78218 73.0755 1.76491 73.0686 1.76491M62.1751 1.03272L60.1413 1.6164C60.131 1.61986 60.1242 1.63195 60.1276 1.64231V1.64749C60.1808 1.83399 60.682 1.85298 61.2466 1.69239L61.2792 1.68375C61.8422 1.52143 62.2575 1.23822 62.2043 1.05344V1.04826C62.2009 1.0379 62.1872 1.031 62.1769 1.03272M75.0612 1.92724C75.075 1.88234 74.8673 1.77528 74.5961 1.69411C74.3249 1.61122 74.0949 1.58187 74.0812 1.62849C74.0675 1.67339 74.2752 1.78046 74.5463 1.86162C74.8175 1.94451 75.0475 1.97387 75.0612 1.92724ZM56.9249 2.40558C56.985 2.3745 57.0142 2.33823 57.0108 2.29679C57.0073 2.26916 56.985 2.24844 56.9576 2.24844C56.5302 2.24844 56.1698 2.29506 55.751 2.4453C52.835 3.48833 50.1301 4.88709 47.6346 6.63986C47.5007 6.73484 47.5161 6.78146 47.6792 6.78146L50.5128 6.77801C50.5986 6.77801 50.6827 6.7452 50.7462 6.68821C52.5964 4.99416 54.6543 3.56604 56.9249 2.40558ZM57.3746 2.77513C55.3614 3.75772 53.4992 4.97689 51.7897 6.43091C51.6936 6.51207 51.6233 6.60705 51.5804 6.71584C51.5718 6.73829 51.5889 6.76247 51.613 6.76247L55.8952 6.84363C55.9552 6.84363 56.0119 6.816 56.0479 6.76592C57.2184 5.10813 58.6035 3.65929 60.2014 2.4194C60.3164 2.3296 60.3009 2.2847 60.155 2.28125C59.7208 2.27261 59.2694 2.27434 58.8009 2.2847C58.2585 2.29506 57.8483 2.54546 57.3763 2.77513M62.3279 6.74347C62.7347 5.30499 63.2942 3.75772 64.0339 2.45566C64.0665 2.4004 64.0236 2.33133 63.9601 2.33133C63.1809 2.34341 62.4068 2.33478 61.6345 2.30715C61.4234 2.30024 61.2209 2.36068 61.0286 2.49193C59.3312 3.63166 57.9067 5.1323 56.6795 6.75383C56.6469 6.797 56.6761 6.8609 56.7327 6.8609L62.1614 6.86781C62.2387 6.86781 62.3073 6.816 62.3279 6.74174M64.7496 2.36932C64.6363 2.36932 64.5334 2.43839 64.4905 2.54373L62.8582 6.5138C62.7844 6.69857 62.9166 6.90234 63.114 6.90407L68.7881 6.98178C68.9683 6.98178 69.1039 6.816 69.0661 6.63813L68.1788 2.59208C68.1513 2.46257 68.0364 2.37104 67.9059 2.37104L64.753 2.36759M75.3599 6.97487C74.4708 5.33953 73.1063 3.75599 71.723 2.55064C71.6526 2.48847 71.5634 2.45393 71.4707 2.45048L68.7624 2.36241C68.6886 2.35896 68.6319 2.42976 68.6525 2.50229C69.0541 3.93213 69.3665 5.38097 69.5896 6.84881C69.5999 6.91098 69.6514 6.95933 69.7132 6.95933L75.2998 7.0733C75.3513 7.0733 75.3839 7.01804 75.3599 6.97315M75.1282 2.74577C74.3764 2.33305 73.5234 2.44875 72.7253 2.43667C72.5022 2.43321 72.473 2.50919 72.6361 2.66116C73.9525 3.88723 75.0647 5.40688 75.9589 6.94897C75.9932 7.00941 76.0584 7.0474 76.1271 7.04913L80.7577 7.15101C80.8195 7.15101 80.8486 7.07676 80.804 7.03359C80.4865 6.74693 80.1776 6.46372 79.8772 6.18397C78.4355 4.84046 76.8531 3.69555 75.1282 2.74923M85.0158 7.02495C82.5529 5.26009 80.0385 3.70591 77.1963 2.62317C76.8033 2.47293 76.436 2.45393 76.0327 2.4643C75.8181 2.46948 75.8044 2.52474 75.9897 2.6318C77.9927 3.79398 79.8206 5.24628 81.4751 6.99041C81.518 7.03359 81.5626 7.06812 81.609 7.09403C81.6879 7.13374 81.7411 7.15447 81.7703 7.15447C82.8516 7.14929 83.9414 7.1631 85.0364 7.19591C85.0725 7.19591 85.0999 7.16137 85.0879 7.12684C85.0742 7.08366 85.0484 7.05085 85.0141 7.02495M78.8114 2.75786C79.2181 2.94091 79.6489 3.09806 80.0248 3.28974C82.153 4.3673 84.1405 5.65382 85.9873 7.14756C86.0748 7.21663 86.1829 7.2529 86.2945 7.24599C86.7768 7.22009 87.2573 7.22699 87.7379 7.26844C88.0451 7.29434 88.0709 7.22354 87.8117 7.05431C85.3694 5.45005 82.7709 4.11173 80.0145 3.0428C79.6661 2.9081 79.2404 2.79067 78.856 2.64562C78.8337 2.63698 78.8182 2.64562 78.8097 2.66634L78.7925 2.71296C78.7839 2.73369 78.7925 2.74923 78.8114 2.75959M53.0684 2.93918C52.9294 2.91673 52.7955 2.93055 52.6719 2.9789C50.1232 3.98221 47.6603 5.09949 45.3433 6.51725C45.0395 6.70203 45.0635 6.77456 45.4171 6.73484C45.7483 6.69512 46.0779 6.70721 46.4057 6.76765C46.4829 6.78146 46.5619 6.76419 46.6236 6.71757C48.4446 5.36716 50.3772 4.21361 52.4196 3.25693C52.6496 3.14986 52.8659 3.0687 53.0718 3.01171C53.1096 3.00135 53.1062 2.94609 53.0684 2.94091M44.123 7.32888C41.0834 9.33377 38.3476 11.6961 35.919 14.4177C35.8761 14.466 35.9087 14.5437 35.9739 14.5437L38.4351 14.5765C38.5467 14.5765 38.6514 14.5265 38.7217 14.4384C40.7539 11.7894 43.0846 9.44429 45.7191 7.40313C45.853 7.29952 45.8359 7.24599 45.6659 7.24599C45.2437 7.24599 44.8129 7.2529 44.3718 7.27017C44.2603 7.27362 44.1779 7.29434 44.123 7.33061M44.4868 14.302C46.0418 11.8084 47.856 9.53063 49.9258 7.47048C50.0374 7.35996 50.0151 7.3047 49.8572 7.30988C48.975 7.33233 48.0619 7.32543 47.1197 7.28916C46.8639 7.2788 46.6202 7.35996 46.4348 7.50329C43.7917 9.54445 41.4318 11.8723 39.3585 14.4867C39.319 14.5368 39.3551 14.6111 39.4186 14.6059C40.0107 14.5696 40.7058 14.6335 41.1881 14.637C42.1286 14.6404 43.0692 14.6422 44.0097 14.6439C44.3409 14.6439 44.3358 14.5455 44.4868 14.3037M51.7383 14.6163C52.6891 12.133 54.0553 9.66015 55.533 7.47394C55.5725 7.41695 55.533 7.33924 55.4626 7.33924C53.9918 7.34788 52.5226 7.34269 51.0552 7.32888C50.9299 7.32888 50.8046 7.36169 50.7188 7.44285C49.0351 9.04711 47.5247 10.8068 46.1928 12.7184C45.7689 13.3263 45.3673 13.9134 44.988 14.4798C44.9073 14.6007 44.9382 14.6612 45.0841 14.6577C47.2312 14.6111 49.3766 14.6439 51.522 14.7579C51.6164 14.763 51.7022 14.7061 51.7365 14.6197M52.4643 14.2156C52.4042 14.359 52.3475 14.4954 52.2978 14.6249C52.2789 14.6732 52.3149 14.7285 52.3664 14.7285L60.4091 14.8148C60.452 14.8148 60.488 14.7838 60.4949 14.7423C60.8725 12.3161 61.4011 9.92263 62.0825 7.56546C62.0996 7.50502 62.055 7.44631 61.9932 7.44458C60.2031 7.43595 58.4044 7.40486 56.5937 7.35133C56.3757 7.34442 56.2161 7.41522 56.1131 7.56201C54.7161 9.57899 53.4992 11.7963 52.466 14.2174M62.7759 7.43249C62.6677 7.43249 62.5751 7.50502 62.551 7.61036L60.9634 14.5524C60.9308 14.694 61.0372 14.8304 61.1814 14.8321L69.823 14.9185C69.9603 14.9185 70.0668 14.801 70.0496 14.6646L69.2498 7.74851C69.2361 7.63626 69.1417 7.54992 69.0284 7.54646L62.7741 7.43422M78.9573 14.9703C78.0562 12.487 77.1157 9.97099 75.7701 7.68289C75.7529 7.6518 75.7254 7.63626 75.6911 7.63626L69.8145 7.51711C69.7578 7.51711 69.7132 7.56719 69.7235 7.62417C70.12 10.0055 70.3191 12.4456 70.5576 14.8442C70.5628 14.8977 70.6074 14.9357 70.6606 14.9375L78.9006 15.0514C78.9418 15.0514 78.9727 15.01 78.9573 14.9703ZM86.6343 15.0238C85.2132 12.418 83.5123 9.98307 81.5249 7.81586C81.4562 7.7416 81.3584 7.6967 81.2554 7.69498L76.5184 7.61381C76.4377 7.61381 76.3879 7.69843 76.4257 7.7675C77.6649 10.0539 78.6792 12.4352 79.4704 14.9167C79.4945 14.9979 79.5717 15.0532 79.6558 15.0549L86.5691 15.1378C86.6275 15.1378 86.6635 15.0756 86.636 15.0238M82.2474 7.79341C84.1611 9.98826 85.9118 12.4508 87.2419 15.0411C87.2797 15.1136 87.3517 15.1585 87.4324 15.1585L92.6775 15.2207C92.7375 15.2207 92.7719 15.1533 92.7375 15.105C90.8479 12.4559 88.5772 9.96926 86.0542 7.89184C85.9478 7.80377 85.8242 7.75887 85.6886 7.75196C84.5868 7.70361 83.4643 7.68116 82.3229 7.68634C82.2817 7.68634 82.2543 7.70361 82.2406 7.73642C82.2337 7.75369 82.2371 7.77614 82.2509 7.78995M96.7056 15.0083C94.4161 12.3662 91.9343 9.93127 89.0663 7.92292C88.7368 7.69152 87.5114 7.79859 87.0891 7.7675C86.8317 7.74851 86.8008 7.82276 86.9947 7.99372C89.4182 10.0988 91.5498 12.4715 93.3914 15.1084C93.4446 15.1844 93.5305 15.2328 93.6231 15.2328L96.7897 15.2915C96.8344 15.2915 96.8635 15.2448 96.8429 15.2051C96.8103 15.1412 96.764 15.0739 96.7056 15.0065M90.3519 7.98682C90.2351 7.90565 90.1219 7.83658 90.0154 7.77959C89.9914 7.7675 89.9743 7.77269 89.964 7.79686L89.9502 7.8314C89.9331 7.87802 89.9417 7.91256 89.9811 7.94192C92.7684 10.0262 95.2622 12.4197 97.466 15.1205C97.5483 15.2224 97.6685 15.2846 97.7989 15.2949L98.4185 15.3485C98.5627 15.3605 98.5884 15.3122 98.4923 15.2017C96.0981 12.4715 93.3846 10.066 90.3536 7.98336M38.236 11.3387C38.4008 11.2351 38.5158 11.1107 38.5844 10.9639C38.6239 10.8793 38.605 10.8655 38.5312 10.9208C38.4265 11.0002 38.3304 11.109 38.2395 11.2454C38.2154 11.2817 38.1862 11.3093 38.1468 11.3266C38.0352 11.3818 37.9614 11.4233 37.9271 11.4526C36.8458 12.3662 35.8349 13.3695 34.8961 14.4643C34.8686 14.4971 34.8738 14.5455 34.9064 14.5731L34.9459 14.6059C34.9939 14.6456 35.0368 14.6404 35.0763 14.5938C35.9688 13.5439 36.9179 12.5544 37.9237 11.6253C38.0283 11.5286 38.1107 11.4146 38.2326 11.3387M28.6041 24.4698C30.2672 21.1076 32.1259 18.1442 34.5408 15.2068C34.5854 15.1533 34.5511 15.0704 34.4807 15.067L34.4207 15.0635C34.3417 15.0601 34.2782 15.0877 34.2267 15.1481C32.8434 16.8094 31.4738 18.4257 30.4028 20.1768C29.7317 21.2768 28.7568 22.8914 27.9484 24.5181C27.8832 24.6494 27.9244 24.7115 28.0703 24.6994L28.2917 24.6822C28.4359 24.6718 28.5406 24.601 28.6058 24.4698M32.8142 24.5716C34.225 21.2682 35.9859 18.1736 38.1021 15.2517C38.1485 15.1879 38.1021 15.0981 38.0232 15.1015C37.3058 15.1188 36.5763 15.1257 35.8366 15.1257C35.3355 15.1257 35.3698 15.0324 35.03 15.4365C32.7061 18.2081 30.7546 21.2319 29.179 24.5078C29.1447 24.5786 29.1962 24.6614 29.2734 24.6614L32.6202 24.696C32.7026 24.696 32.7799 24.6476 32.8142 24.5699M43.2013 16.5383C43.4176 16.1428 43.6441 15.7266 43.881 15.2897C43.9102 15.2362 43.8707 15.1706 43.8106 15.1706L38.9672 15.1171C38.9054 15.1171 38.8453 15.1447 38.8093 15.1948C36.6398 18.0976 34.836 21.2181 33.3995 24.5509C33.3531 24.658 33.3892 24.7115 33.5024 24.7115L39.422 24.7633C39.5353 24.7633 39.6091 24.7098 39.6468 24.6027C40.5908 21.8156 41.7751 19.1268 43.2013 16.5365M44.5091 15.2828C42.7654 18.1598 41.2138 21.3925 40.2149 24.6235C40.1978 24.6822 40.2407 24.7426 40.3025 24.7426L48.3502 24.8462C48.4704 24.8462 48.5442 24.7892 48.5734 24.6718C49.3011 21.4857 50.2588 18.3705 51.4448 15.3312C51.4619 15.2863 51.4293 15.2397 51.383 15.2397L44.6876 15.1827C44.6138 15.1827 44.5469 15.2207 44.5091 15.2828ZM51.9974 15.3605C50.8063 18.4102 49.8383 21.5099 49.1071 24.6977C49.0917 24.7668 49.1449 24.8341 49.2153 24.8359L58.9708 24.9602C59.06 24.9602 59.1321 24.8928 59.1407 24.8065C59.4239 21.6705 59.8324 18.5483 60.3696 15.4452C60.3799 15.3778 60.3301 15.3191 60.2632 15.3174L52.1399 15.2656C52.0781 15.2656 52.0214 15.3036 51.9991 15.3623M70.4821 25.0949C70.5919 25.0949 70.6829 25.0034 70.676 24.8911L70.1268 15.6437C70.12 15.5419 70.0376 15.4624 69.938 15.4624L61.0201 15.3588C60.924 15.3588 60.8399 15.4296 60.8278 15.5263L59.599 24.7651C59.5835 24.8808 59.6728 24.9826 59.786 24.9844L70.4838 25.0966M79.2645 15.9546C79.2301 15.8406 79.189 15.7525 79.1426 15.6886C79.0963 15.6265 79.0173 15.5937 78.8989 15.5919C76.1785 15.5401 73.453 15.5039 70.7241 15.4814C70.6778 15.4814 70.6417 15.5211 70.6434 15.566L71.2184 25.0275C71.2218 25.0759 71.2613 25.1139 71.3076 25.1139L81.3206 25.252C81.3996 25.252 81.4596 25.1812 81.4442 25.1035C80.8503 22.0107 80.308 19.398 79.2628 15.9546M90.6591 24.7841C89.7494 21.6532 88.524 18.6675 87.0411 15.7681C87.0153 15.7145 86.9604 15.6817 86.9021 15.68L79.836 15.5695C79.7691 15.5695 79.7193 15.6334 79.7399 15.6973C80.7079 18.8039 81.3584 21.8708 81.9762 25.0448C82.0003 25.164 82.1033 25.252 82.2251 25.2555L90.6677 25.3746C90.7775 25.3746 90.8513 25.2589 90.8015 25.1588C90.7483 25.05 90.6985 24.9257 90.6591 24.7823M98.1096 25.0448C98.0049 24.7564 97.8933 24.4698 97.7783 24.1866C96.5649 21.2492 95.0563 18.462 93.2559 15.8268C93.2181 15.7733 93.158 15.7405 93.0928 15.7422C91.3216 15.7819 89.552 15.7474 87.7842 15.642C87.6881 15.6368 87.6246 15.737 87.6675 15.8216C89.1968 18.8298 90.4154 21.9589 91.3284 25.2123C91.361 25.3211 91.4572 25.3954 91.5687 25.3971L98.1113 25.4679C98.1765 25.4679 98.2246 25.4057 98.2074 25.3436C98.1834 25.2589 98.1508 25.1588 98.1113 25.0465M103.19 25.4696C101.645 21.9952 99.7624 18.8419 97.5432 16.0098C97.4557 15.8976 97.3613 15.8406 97.26 15.8423C96.2062 15.8423 95.1249 15.8078 94.0162 15.7353C93.9492 15.7318 93.9046 15.8043 93.9372 15.8631C94.1466 16.2274 94.3697 16.597 94.6083 16.9734C96.304 19.6501 97.6994 22.4631 98.7927 25.4126C98.8167 25.48 98.8819 25.5232 98.9523 25.5214C100.272 25.4886 101.594 25.5162 102.922 25.6009C103.008 25.606 103.082 25.5974 103.144 25.5767C103.188 25.5611 103.209 25.5128 103.19 25.4696ZM105.2 25.4558C103.562 22.1212 101.702 19.0526 99.2698 16.0996C99.1462 15.9511 98.9901 15.8717 98.7995 15.8613L98.3224 15.832C98.1336 15.8199 98.0958 15.8907 98.2108 16.0427C100.444 18.9921 102.313 22.116 103.78 25.5093C103.811 25.5819 103.882 25.6268 103.96 25.6285L105.088 25.6371C105.181 25.6371 105.241 25.5404 105.2 25.4575V25.4558Z" fill="url(#paint0_linear_528_1427)"/>
<path id="Vector_2" d="M75.0578 1.92369C75.0441 1.97031 74.8141 1.94096 74.5429 1.85807C74.2735 1.77518 74.0641 1.66984 74.0778 1.62494C74.0915 1.57831 74.3215 1.60767 74.5927 1.69056C74.8621 1.77345 75.0715 1.87879 75.0578 1.92369Z" fill="white"/>
<path id="Vector_3" d="M70.18 61.7873C70.2178 61.7873 70.2487 61.7579 70.2504 61.7199L70.7618 51.2655C70.7687 51.1325 70.8374 51.0669 70.9712 51.0703L71.0965 51.0738C71.2355 51.0772 71.3025 51.148 71.2956 51.2896L70.7927 61.6405C70.7893 61.7147 70.8477 61.7752 70.9215 61.7769L80.9979 61.9185C81.0632 61.9185 81.1181 61.8736 81.1301 61.8097C81.7874 58.3145 82.2526 54.7935 82.5272 51.2465C82.534 51.1515 82.6147 51.079 82.7074 51.079L82.8739 51.0824C82.9871 51.0824 83.0403 51.1411 83.0335 51.2551C82.7898 54.79 82.3367 58.2973 81.6724 61.7786C81.657 61.8581 81.7171 61.9323 81.7977 61.9341L90.3879 62.0411C90.4668 62.0411 90.5389 61.9945 90.5681 61.9185C90.647 61.7147 90.7191 61.4954 90.7861 61.2589C91.7232 57.9329 92.305 54.7296 92.777 51.2845C92.7942 51.1498 92.8731 51.0807 93.007 51.0772L93.1134 51.0738C93.2576 51.0703 93.3211 51.1411 93.3022 51.2845C93.0379 53.4534 92.6895 55.5619 92.2518 57.6117C91.9429 59.064 91.5618 60.5077 91.1139 61.9427C91.0967 61.9928 91.1345 62.0446 91.1877 62.0463C93.352 62.0912 95.5265 62.1257 97.7131 62.1499C97.9139 62.1499 98.0443 62.0757 98.1027 61.9254C99.4071 58.4976 100.339 54.942 100.9 51.2586C100.916 51.1532 101.007 51.0755 101.113 51.0772H101.28C101.396 51.0772 101.448 51.1377 101.432 51.2534C100.892 54.9471 99.9615 58.5373 98.6451 62.0273C98.6227 62.0843 98.6622 62.1447 98.724 62.1465C100.035 62.1879 101.357 62.2207 102.687 62.2449C102.924 62.2483 103.03 62.2535 103.137 62.0152C104.668 58.5598 105.735 54.9765 106.339 51.2655C106.358 51.1411 106.43 51.0807 106.554 51.0807H106.753C106.84 51.0807 106.906 51.1584 106.892 51.2465C106.272 55.0024 105.205 58.6219 103.688 62.1033C103.657 62.1706 103.705 62.2483 103.78 62.2501L104.951 62.2915C105.043 62.295 105.131 62.2414 105.17 62.1568C106.78 58.6789 107.925 55.049 108.603 51.2689C108.627 51.1394 108.703 51.0772 108.833 51.079H109.015C109.144 51.0824 109.195 51.1463 109.168 51.2724C108.6 53.9438 108.124 56.1007 107.318 58.3025C106.348 60.9532 105.212 63.5366 103.569 66.2789C95.9419 79.018 82.2045 87.2292 67.3996 87.4796C65.7331 87.5072 64.5711 87.4969 63.912 87.452C61.0578 87.2499 58.0697 86.8631 55.3167 86.0549C54.4998 85.8166 53.6742 85.6232 52.8933 85.3245C51.0826 84.6355 49.2616 83.9861 47.523 83.1227C45.3982 82.0659 43.7488 81.2024 41.8712 79.8572C40.0759 78.5724 37.9751 76.9492 36.2846 75.2413C34.9579 73.9012 33.9469 72.841 33.2553 72.0604C33.0081 71.7807 32.4881 71.1106 31.6969 70.0434C30.6224 68.5998 29.7986 67.4013 29.2254 66.4498C28.1853 64.7247 26.8105 62.0377 25.9197 59.6995C25.3465 58.1937 24.8402 56.6654 24.3974 55.1181C24.0473 53.8972 23.8327 52.5589 23.5787 51.2637C23.5598 51.167 23.6319 51.0807 23.7297 51.079H23.8533C23.97 51.079 24.0404 51.136 24.0627 51.2534C24.3613 52.8162 24.6686 54.4032 25.1337 55.9038C25.688 57.6929 26.3008 59.5044 27.0731 61.2105C27.1177 61.3089 27.2138 61.3711 27.3203 61.3728L27.6429 61.3763C27.7905 61.3763 27.8352 61.3107 27.7734 61.176C27.4679 60.5077 27.0937 59.5268 26.6526 58.2334C25.8803 55.9764 25.2933 53.6382 24.8934 51.2188C24.8882 51.186 24.9037 51.155 24.9312 51.1377C25.1869 50.9805 25.3877 51.0772 25.4392 51.376C26.021 54.7503 26.9873 58.0331 28.3432 61.2295C28.3775 61.3107 28.4565 61.3625 28.544 61.3625C29.6871 61.3625 30.8181 61.3573 31.9715 61.4315C32.0453 61.435 32.0985 61.3642 32.0727 61.2934C30.8576 58.0382 30.0046 54.6881 29.5154 51.2447C29.4983 51.1325 29.548 51.0755 29.6613 51.0772H29.8518C29.9599 51.0807 30.0217 51.1342 30.0372 51.2413C30.5418 54.6847 31.4085 58.0331 32.6391 61.2848C32.67 61.3659 32.749 61.4194 32.8348 61.4212L38.8779 61.4281C38.9311 61.4281 38.9672 61.378 38.9517 61.3279C37.9717 58.0313 37.304 54.6709 36.9471 51.2482C36.935 51.1256 36.9882 51.0669 37.1118 51.0738L37.2835 51.0842C37.3984 51.0911 37.4619 51.1515 37.474 51.2672C37.7932 54.2996 38.4128 57.4546 39.3362 60.7322C39.4117 61.0015 39.4666 61.2001 39.4992 61.3297C39.5129 61.3849 39.5627 61.4246 39.6211 61.4264L47.8147 61.5265C47.9057 61.5265 47.9744 61.4454 47.9572 61.3556C47.2981 58.0175 46.8639 54.6501 46.6562 51.2534C46.6494 51.1411 46.7026 51.0824 46.8159 51.079L46.9892 51.0721C47.1059 51.0686 47.1694 51.1256 47.178 51.2465C47.4028 54.6726 47.8474 58.0693 48.5116 61.4402C48.5219 61.4937 48.5682 61.5317 48.6214 61.5317L58.516 61.6353C58.5966 61.6353 58.6327 61.5956 58.6258 61.5144C58.3598 58.1073 58.1984 54.6933 58.1418 51.2758C58.1384 51.1722 58.2225 51.0842 58.3289 51.0824H58.4936C58.6275 51.079 58.6945 51.1463 58.6962 51.281C58.7391 54.7002 58.8935 58.116 59.1596 61.5265C59.1664 61.6008 59.2265 61.656 59.2969 61.6578L70.1835 61.7907M33.856 71.5303C31.5956 68.6326 29.6115 65.4396 28.1458 62.0636C28.0978 61.9531 27.9896 61.8823 27.8695 61.8823H27.5811C27.449 61.8788 27.4112 61.9392 27.4713 62.0567C28.5354 64.2118 29.6218 66.3255 30.9949 68.2855C31.3931 68.8519 32.2169 69.9415 33.4681 71.5579C33.5299 71.6391 33.614 71.677 33.7152 71.6753L33.789 71.6719C33.904 71.6684 33.9263 71.6201 33.856 71.5303ZM37.4517 71.5406C35.3955 68.5911 33.662 65.3878 32.3748 62.0359C32.3491 61.9686 32.2856 61.9254 32.2135 61.9237L28.7654 61.8874C28.7036 61.8874 28.6607 61.9513 28.6864 62.0083C30.2122 65.4171 32.1568 68.5756 34.5202 71.4819C34.6026 71.5838 34.685 71.6356 34.7639 71.6356C35.6512 71.6321 36.5283 71.6391 37.3933 71.6511C37.4499 71.6511 37.4825 71.589 37.4517 71.5406ZM43.2064 71.5682C41.533 68.5756 40.2098 65.3619 39.1834 62.1067C39.1645 62.0463 39.1079 62.0031 39.0444 62.0031L33.0116 61.9082C32.948 61.9082 32.9034 61.972 32.9275 62.0325C34.2267 65.317 35.8829 68.3943 37.8945 71.2695C38.0781 71.532 38.1141 71.6701 38.4986 71.6719C40.0519 71.6822 41.5965 71.6909 43.1309 71.6995C43.1979 71.6995 43.2408 71.627 43.2064 71.5682ZM50.6295 71.342C49.5791 68.3511 48.7398 65.3014 48.1117 62.1896C48.0962 62.1154 48.031 62.0618 47.9572 62.0618L39.791 61.9893C39.7446 61.9893 39.7223 62.0135 39.7206 62.0584C39.7206 62.0964 39.7275 62.1396 39.7446 62.1948C40.8379 65.4431 42.1046 68.5462 43.7797 71.5337C43.8312 71.6252 43.9273 71.6822 44.0303 71.6839L50.6673 71.7858C50.7273 71.7858 50.7582 71.7565 50.7634 71.696C50.7668 71.6356 50.7496 71.5752 50.7153 71.513C50.669 71.4318 50.6415 71.3748 50.6295 71.342ZM50.6552 69.7654C50.8612 70.4009 51.1118 71.0191 51.3126 71.6546C51.3315 71.7185 51.3915 71.7617 51.4585 71.7634L59.5028 71.8739C59.6144 71.8739 59.6968 71.7703 59.671 71.6632C59.6127 71.4232 59.5681 71.1693 59.5337 70.9034C59.1836 68.0696 58.897 65.203 58.6739 62.3036C58.667 62.2259 58.6035 62.1655 58.5263 62.1655L48.7862 62.0653C48.6952 62.0653 48.6266 62.1482 48.6454 62.2397C49.1878 64.7955 49.8589 67.3046 50.6552 69.7689M59.3741 62.1965C59.2454 62.1965 59.1458 62.3071 59.1579 62.4348L60.1241 71.6529C60.1344 71.7599 60.2254 71.8428 60.3335 71.8445L69.2275 72C69.3407 72 69.4351 71.9153 69.4454 71.8031L70.2435 62.5471C70.2538 62.4228 70.156 62.314 70.0324 62.3122L59.3758 62.1965M78.7101 71.4163C79.6506 68.5134 80.4161 65.5553 81.0031 62.5385C81.0134 62.4849 80.9722 62.4348 80.9173 62.4331L70.8065 62.314C70.7807 62.314 70.767 62.3261 70.7636 62.3537L69.9775 71.8894C69.9741 71.9343 70.0084 71.9706 70.0513 71.9723L78.2879 72.1295C78.3737 72.1295 78.4526 72.0811 78.487 72.0017C78.5642 71.829 78.638 71.6356 78.7084 71.4163M86.3563 72.1467C88.0159 69.2163 89.3323 65.9732 90.3398 62.7422C90.3638 62.668 90.3072 62.5903 90.23 62.5885L81.6707 62.44C81.5969 62.44 81.5351 62.4901 81.5214 62.5626C81.0048 65.2876 80.3337 67.9954 79.5065 70.6858C79.3674 71.1383 79.2078 71.5769 79.0276 71.9982C79.0036 72.0552 79.0448 72.1191 79.1066 72.1208L86.2327 72.2176C86.2876 72.2176 86.3288 72.1951 86.3563 72.1467ZM90.8856 62.7353C89.9279 65.9421 88.596 69.1178 87.0067 72.0673C86.9793 72.1191 86.969 72.1571 86.9759 72.1813C86.9913 72.2348 87.0479 72.2711 87.1149 72.2711L92.4372 72.3056C92.5075 72.3056 92.5745 72.2728 92.6139 72.2158C94.6958 69.2819 96.4121 66.1476 97.7646 62.8113C97.7749 62.7871 97.768 62.7612 97.7509 62.744C97.7182 62.7111 97.6771 62.6956 97.6273 62.6956C96.9871 62.6956 96.3452 62.687 95.705 62.6628C94.0882 62.6041 92.5985 62.6231 91.0521 62.6127C90.9749 62.6127 90.9079 62.6611 90.8856 62.7353ZM98.3378 62.8234C97.0266 66.1217 95.3257 69.2646 93.2833 72.1778C93.237 72.2452 93.2833 72.3384 93.364 72.3419C94.4229 72.3851 95.4956 72.3971 96.5786 72.3781C96.6747 72.3781 96.752 72.3384 96.8103 72.2676C99.1926 69.3958 101.17 66.2789 102.737 62.9184C102.761 62.8683 102.725 62.8113 102.67 62.8096L98.5335 62.6956C98.4477 62.6922 98.3704 62.744 98.3395 62.8251M104.197 64.0391C104.398 63.654 104.611 63.2586 104.832 62.8493C104.843 62.8303 104.829 62.8044 104.808 62.8044L103.411 62.7992C103.387 62.7992 103.368 62.8096 103.358 62.8338C101.815 66.2046 99.8705 69.3337 97.526 72.2176C97.4728 72.2849 97.4677 72.3419 97.5157 72.392C97.5243 72.4023 97.5363 72.4075 97.55 72.4075L98.2966 72.442C98.3773 72.4455 98.4563 72.4127 98.5078 72.3522C100.725 69.8034 102.622 67.0318 104.197 64.0391ZM34.2799 72.1709C34.2662 72.1554 34.2421 72.1554 34.2267 72.1709L34.1495 72.2469C34.1357 72.2607 34.134 72.2849 34.1495 72.3004L38.3098 76.6193C38.3235 76.6349 38.3476 76.6349 38.363 76.6193L38.4402 76.5434C38.454 76.5295 38.4557 76.5054 38.4402 76.4898L34.2799 72.1709ZM44.9107 79.5602C44.7443 79.4618 44.6173 79.3771 44.5332 79.3063C42.0823 77.2186 39.9008 74.8856 37.9923 72.3073C37.9391 72.2331 37.8533 72.1899 37.7623 72.1899L35.2908 72.1847C35.2033 72.1847 35.1569 72.2884 35.2136 72.354C37.5306 75.0772 40.148 77.4672 43.0691 79.5239C43.4742 79.8089 44.2156 79.6983 44.6911 79.6914C44.7837 79.6914 44.8575 79.6724 44.9142 79.6362C44.9554 79.6103 44.9554 79.5826 44.9142 79.5585M48.6094 79.0991C46.706 76.9958 45.1098 74.763 43.6372 72.3402C43.6098 72.2953 43.5634 72.2676 43.5102 72.2659L38.6531 72.1709C38.617 72.1709 38.5947 72.2124 38.617 72.2417C40.3059 74.5143 42.211 76.59 44.3341 78.4688C44.8043 78.885 45.2746 79.2632 45.7449 79.6051C45.8616 79.6897 46.0023 79.7363 46.1448 79.7381L49.1003 79.7881C49.3131 79.7916 49.332 79.7294 49.1603 79.6068C48.987 79.4825 48.8033 79.3132 48.6094 79.0974M54.6834 79.6932C53.2108 77.4102 52.0077 74.9339 51.0551 72.3868C51.0397 72.3436 50.9985 72.3143 50.9522 72.3143L44.3753 72.2555C44.3083 72.2555 44.2671 72.3281 44.3015 72.3851C45.599 74.592 47.1059 76.6521 48.8222 78.569C49.1792 78.9679 49.5465 79.3322 49.9207 79.6638C50.0013 79.7346 50.094 79.7709 50.2004 79.7709L54.6388 79.7847C54.6851 79.7847 54.7126 79.7311 54.6869 79.6932M61.1488 79.4497C60.615 77.2462 60.167 74.9253 59.8015 72.4869C59.7929 72.4369 59.75 72.3989 59.7002 72.3989L51.7605 72.3471C51.6833 72.3471 51.6301 72.4248 51.6576 72.4973C52.6067 74.9736 53.8012 77.3446 55.2412 79.6103C55.3425 79.7709 55.4729 79.8486 55.6343 79.8503C57.4604 79.8607 59.2917 79.8658 61.1265 79.8676C61.1797 79.8676 61.226 79.8261 61.2294 79.7709C61.238 79.669 61.1694 79.5308 61.1488 79.4497ZM60.5017 72.442C60.3782 72.442 60.2855 72.5543 60.3095 72.6752L61.6654 79.7173C61.6826 79.8071 61.7615 79.8745 61.8525 79.8762L68.1925 79.9902C68.2904 79.9902 68.3745 79.9194 68.3882 79.8209L69.3528 72.7373C69.3699 72.6199 69.279 72.5146 69.1622 72.5146L60.5017 72.442ZM77.5825 74.459C77.8056 73.8892 78.0253 73.3366 78.2433 72.7978C78.2673 72.7373 78.2244 72.67 78.1574 72.6683L70.0393 72.5249C69.95 72.5249 69.8728 72.5906 69.8642 72.6804C69.6085 75.0634 69.2772 77.4379 68.8705 79.8002C68.8585 79.8727 68.9134 79.9384 68.9872 79.9418L74.73 80.0696C74.8278 80.0731 74.9188 80.0213 74.9668 79.9349C75.9812 78.1528 76.8548 76.3275 77.5842 74.459M78.7238 72.9929C77.8708 75.4019 76.817 77.7176 75.5641 79.9401C75.5383 79.9867 75.571 80.0437 75.6242 80.0454L80.3801 80.1456C80.4762 80.149 80.5689 80.1093 80.6358 80.0403C82.2903 78.3099 83.7612 76.4156 85.0484 74.3554C85.3539 73.8667 85.6577 73.3832 85.9581 72.91C85.9941 72.8513 85.9546 72.7771 85.8843 72.7753L78.9916 72.6406C78.9315 72.6406 78.8852 72.6648 78.8525 72.7149C78.8079 72.784 78.765 72.8772 78.7238 72.9929ZM86.5759 72.8548C85.0999 75.471 83.3802 77.8437 81.415 79.9712C81.3824 80.0057 81.3601 80.0385 81.3446 80.0731C81.3275 80.1093 81.3549 80.1508 81.3927 80.1508L84.9283 80.1698C85.0175 80.1698 85.1068 80.1387 85.1772 80.0817C87.7688 77.9991 90.0669 75.6264 92.0733 72.9687C92.1025 72.929 92.0767 72.872 92.027 72.872L86.7133 72.7753C86.6566 72.7753 86.6034 72.8047 86.5759 72.8548ZM88.1893 80.1542C91.1413 78.0803 93.7707 75.7783 96.1564 73.0603C96.1959 73.0136 96.1667 72.9428 96.1049 72.9411L93.0001 72.8548C92.8714 72.8513 92.7701 72.9014 92.6946 73.005C90.75 75.6627 88.5068 78.0336 85.9649 80.118C85.9255 80.1508 85.9478 80.2147 85.9976 80.2164L87.846 80.2578C87.9679 80.2613 88.088 80.225 88.1893 80.1542ZM89.1212 80.1301C89.0543 80.1784 89.0594 80.2147 89.1384 80.2388C89.2191 80.263 89.3152 80.2423 89.425 80.1715C92.5281 78.1718 95.3343 75.8077 97.8418 73.0827C97.9276 72.9895 97.9088 72.9446 97.7817 72.9428L97.1364 72.9377C97.0128 72.9377 96.9133 72.9826 96.8326 73.0758C94.5723 75.7127 91.9875 78.1113 89.1212 80.1318M44.2156 80.3494C46.7953 81.869 49.4504 83.4422 52.4248 84.5042C52.4814 84.5232 52.5312 84.5163 52.5775 84.4818C52.6118 84.4559 52.6101 84.4334 52.5689 84.4161C52.0849 84.2141 51.6078 83.9896 51.1427 83.7444C49.2702 82.7532 47.4818 81.6272 45.7809 80.3597C45.5063 80.156 44.885 80.2337 44.3478 80.2423C44.2963 80.2423 44.2517 80.2527 44.2174 80.2734C44.1882 80.2907 44.1882 80.3321 44.2174 80.3476M54.5564 84.7201C55.0301 84.9083 55.4626 85.1086 55.9518 85.062C56.1629 85.043 56.1749 84.9808 55.9895 84.8807C53.7927 83.677 51.7829 82.1954 49.9584 80.4374C49.8692 80.3511 49.701 80.2907 49.5757 80.2941C48.6386 80.3131 47.662 80.3045 46.7249 80.2527C46.6768 80.2492 46.6528 80.3131 46.6923 80.3425C49.138 82.147 51.7605 83.6062 54.5564 84.7218M56.8099 84.708C57.239 84.9256 57.4227 85.043 57.8123 85.0447C58.286 85.0447 58.7494 85.0482 59.2042 85.0585C59.3381 85.062 59.3535 85.0188 59.2505 84.9342C57.6904 83.6356 56.3431 82.1453 55.2069 80.4616C55.1606 80.3943 55.0868 80.3545 55.0061 80.3545C53.609 80.3511 52.2068 80.3425 50.7977 80.3286C50.7771 80.3286 50.7582 80.3338 50.7411 80.3442C50.7222 80.3545 50.705 80.3649 50.6913 80.377C50.6673 80.3943 50.6673 80.4288 50.6879 80.4461C52.6359 82.109 54.5118 83.5527 56.8099 84.7114M63.1002 85.0085C62.3502 83.6598 61.8713 82.0624 61.4423 80.5877C61.4234 80.5203 61.3633 80.4754 61.2964 80.4737L55.9175 80.3476C55.878 80.3476 55.8454 80.3839 55.8557 80.4236C55.8677 80.4754 55.8951 80.5307 55.9363 80.5877C57.1086 82.2627 58.516 83.7081 60.155 84.9238C60.27 85.0085 60.3404 85.0551 60.4949 85.0585C61.317 85.0723 62.1374 85.0913 62.9578 85.1155C62.9972 85.1155 63.0264 85.1155 63.0505 85.1121C63.0968 85.1052 63.1243 85.0516 63.1002 85.0085ZM67.0786 85.0551C67.5626 83.6425 67.9162 82.1574 68.2063 80.6688C68.2183 80.6015 68.1668 80.5376 68.0998 80.5376L62.0996 80.4409C62.019 80.4409 61.9623 80.5169 61.9881 80.5946C62.4738 82.1021 62.9235 83.5596 63.6615 84.9722C63.7112 85.0689 63.8125 85.1293 63.9206 85.1311L66.9671 85.1362C67.0168 85.1362 67.0615 85.1034 67.0769 85.0568M67.7995 84.499C67.7446 84.6734 67.6965 84.8479 67.6536 85.0223C67.6364 85.0931 67.6914 85.1621 67.7635 85.1604C68.6576 85.1501 69.5518 85.1552 70.4495 85.1708C70.5799 85.1742 70.6674 85.157 70.7104 85.119C72.207 83.8445 73.4547 82.3733 74.4588 80.7051C74.4914 80.6498 74.4536 80.579 74.3884 80.579L68.8396 80.5324C68.7898 80.5324 68.7469 80.5687 68.7383 80.6188C68.5169 81.926 68.2045 83.2194 67.7978 84.4973M74.754 84.651C76.5698 83.6321 78.2638 82.356 79.836 80.8243C79.951 80.7137 79.927 80.6567 79.7691 80.6567L75.2775 80.6239C75.1899 80.6239 75.1075 80.6688 75.0612 80.7448C74.1035 82.3387 72.9433 83.7686 71.584 85.0344C71.4312 85.176 71.4587 85.2433 71.6646 85.2329C72.1315 85.214 72.6223 85.2105 73.1389 85.226C73.6899 85.2433 74.203 84.9601 74.754 84.6527M76.5733 85.0344C79.2816 83.9827 81.8235 82.5684 84.1851 80.8519C84.2195 80.8277 84.2195 80.7759 84.1851 80.75C84.1628 80.7345 84.1302 80.7258 84.0856 80.7276C83.0592 80.731 82.0346 80.712 81.0099 80.6671C80.8726 80.6619 80.7199 80.6947 80.6306 80.7845C78.9332 82.501 77.0641 83.9292 75.0252 85.0706C74.869 85.1587 74.8793 85.2122 75.0561 85.2312C75.5864 85.2882 76.0498 85.2381 76.5733 85.0344ZM85.2338 81.9813C85.7538 81.686 86.2756 81.3924 86.7956 81.0971C86.9123 81.0298 86.9913 80.9572 87.0291 80.8743C87.0634 80.8001 87.0394 80.7604 86.957 80.7569C86.4386 80.7396 85.9272 80.7276 85.4174 80.7206C85.311 80.7206 85.1514 80.7707 85.0828 80.8225C82.8275 82.5736 80.3886 84.0069 77.7627 85.1207C77.7301 85.1345 77.6872 85.1777 77.6357 85.2485C77.6031 85.2917 77.6151 85.3055 77.6666 85.2882C80.2839 84.4196 82.831 83.342 85.2338 81.9795M88.3026 80.8001C88.2768 80.7586 88.0451 80.8622 87.7842 81.028C87.5251 81.1955 87.3346 81.363 87.3586 81.4045C87.3843 81.4459 87.616 81.3423 87.8769 81.1765C88.1361 81.009 88.3266 80.8415 88.3026 80.8001ZM61.3238 86.2932C60.6167 85.8771 60.1035 85.4333 59.2059 85.606C59.0188 85.6422 59.0171 85.6888 59.1991 85.7458L61.329 86.421C61.3702 86.4348 61.4062 86.3899 61.3873 86.352C61.3771 86.3312 61.3547 86.3105 61.3238 86.2915M61.4303 85.6042C61.317 85.6042 61.2861 85.7596 61.3908 85.7994L64.1283 86.87C64.2244 86.908 64.3068 86.7958 64.245 86.7129L63.4418 85.6768C63.4246 85.6526 63.3954 85.637 63.3645 85.637L61.4303 85.6042ZM65.2628 86.8078C66.1759 87.2983 66.4865 86.4383 66.8023 85.8132C66.8315 85.7579 66.792 85.6906 66.7285 85.6888L64.2828 85.6508C64.2158 85.6508 64.1712 85.7251 64.2055 85.7821C64.4647 86.2259 64.8165 86.5661 65.2628 86.8061M67.4065 85.7545L66.8847 86.7889C66.8555 86.8476 66.9053 86.9132 66.9671 86.8994C67.9402 86.7008 68.8396 86.3295 69.6703 85.7855C69.72 85.7527 69.696 85.675 69.6377 85.675L67.5129 85.6854C67.4682 85.6854 67.427 85.7113 67.4065 85.7527M74.0074 85.7372C73.9954 85.6992 73.9542 85.6785 73.9164 85.6906L73.0772 85.9634C73.0394 85.9755 73.0188 86.0169 73.0308 86.0549V86.0601C73.0445 86.0981 73.0857 86.1188 73.1235 86.1067L73.9628 85.8339C74.0005 85.8218 74.0211 85.7804 74.0091 85.7424V85.7372M70.2109 86.0826C70.0187 86.2173 69.7527 86.3261 69.5707 86.4849C69.4643 86.5782 69.4815 86.6093 69.6188 86.5782C70.3997 86.4038 71.1892 86.1689 71.9856 85.8753C72.0319 85.8581 72.0662 85.8356 72.0886 85.8132C72.1263 85.7735 72.0954 85.7078 72.0422 85.7096C71.7401 85.7251 71.4381 85.7251 71.1377 85.7096C70.7464 85.6923 70.5525 85.8408 70.2109 86.0808V86.0826Z" fill="url(#paint1_linear_528_1427)"/>
<path id="Vector_4" d="M85.3593 90.2634L85.1482 89.5588C85.1276 89.4915 85.1654 89.4207 85.2306 89.3982L87.3777 88.7023C87.4446 88.6798 87.5184 88.7178 87.539 88.7852L88.6306 92.2872C88.6512 92.3563 88.6135 92.4289 88.5448 92.4496L87.2284 92.8519C87.1615 92.8727 87.0911 92.8347 87.0688 92.7673L86.2673 90.2098C86.2449 90.139 86.1677 90.101 86.0991 90.1287L85.5275 90.3462C85.4589 90.3722 85.3816 90.3342 85.3593 90.2634Z" fill="#3B4C62"/>
<path id="Vector_5" d="M46.5772 90.2443C46.3541 90.3497 46.3575 90.4516 46.5841 90.5465C47.3513 90.8729 49.5378 91.4514 48.6454 92.731C47.8988 93.8069 46.1018 93.2284 45.1956 92.7258C44.6429 92.4167 44.334 91.9539 44.2688 91.3374C44.2602 91.2632 44.3323 91.2027 44.4061 91.2217C44.842 91.3409 45.2677 91.4669 45.683 91.5965C46.2236 91.7674 46.2563 92.3027 47.0269 92.1128C47.0715 92.1024 47.0938 92.0731 47.0938 92.0282C47.0938 91.9228 47.0372 91.8469 46.9188 91.8002C46.2013 91.5205 43.8122 90.8315 44.8781 89.5968C45.7448 88.5934 47.2466 89.0977 48.2334 89.6002C48.7981 89.8886 49.1276 90.3652 49.2169 91.0335C49.2289 91.1268 49.1379 91.201 49.0504 91.1665C48.6265 91.0024 48.182 90.8625 47.7168 90.7434C47.5366 90.6968 47.3478 90.4343 47.2088 90.3393C46.9788 90.1856 46.7677 90.1528 46.5755 90.2426L46.5772 90.2443Z" fill="#3B4C62"/>
<path id="Vector_6" d="M85.3899 91.574C85.6387 92.5687 85.038 93.5755 84.0511 93.8259L83.0969 94.0676C82.1083 94.318 81.1077 93.7136 80.8588 92.7207L80.7833 92.4185C80.5344 91.4238 81.1351 90.417 82.122 90.1666L83.0763 89.9249C84.0649 89.6745 85.0655 90.2789 85.3143 91.2718L85.3899 91.574ZM83.3303 92.9728C83.725 92.8726 83.9361 92.3563 83.8023 91.8158C83.6684 91.277 83.2393 90.9213 82.8429 91.0214C82.4481 91.1216 82.237 91.6379 82.3709 92.1784C82.5047 92.7172 82.9338 93.0729 83.3303 92.9728Z" fill="#3B4C62"/>
<path id="Vector_7" d="M50.784 94.1298C50.7686 94.1919 50.7068 94.2317 50.6433 94.2161L49.2737 93.8845C49.2119 93.869 49.1741 93.8068 49.1879 93.7429L50.0409 90.1683C50.0563 90.1062 50.1181 90.0664 50.1816 90.082L51.5512 90.4135C51.613 90.4291 51.6508 90.4913 51.637 90.5551L50.784 94.1298Z" fill="#3B4C62"/>
<path id="Vector_8" d="M53.7774 92.3442C53.7413 92.3218 53.6967 92.3442 53.6881 92.3839L53.326 94.6668C53.3157 94.7359 53.2505 94.7843 53.1818 94.7739L51.8139 94.5563C51.7332 94.5442 51.6783 94.4665 51.692 94.3871L52.3219 90.7469C52.3322 90.6933 52.3614 90.6726 52.4146 90.6795L54.0812 90.9558C54.1859 90.9731 54.2768 91.037 54.3317 91.1302L55.7906 93.667C55.9107 93.8742 55.988 93.8604 56.0257 93.6221L56.357 91.448C56.3638 91.4031 56.405 91.3737 56.4497 91.3806L57.8982 91.6189C57.9635 91.6293 58.0064 91.6915 57.9943 91.7571L57.3696 95.3921C57.361 95.4388 57.3164 95.4733 57.2683 95.4664L55.6516 95.2143C55.5143 95.1918 55.3941 95.1089 55.322 94.9863C54.8415 94.1402 54.3643 93.2992 53.8872 92.4634C53.8598 92.415 53.822 92.377 53.7757 92.3477L53.7774 92.3442Z" fill="#3B4C62"/>
<path id="Vector_9" d="M80.4178 92.8157C80.5963 93.8242 79.9287 94.7861 78.9264 94.9657L77.9669 95.1384C76.9663 95.3179 76.0086 94.6462 75.8301 93.6377L75.7735 93.3182C75.595 92.3098 76.2627 91.3479 77.265 91.1683L78.2244 90.9956C79.225 90.816 80.1827 91.4878 80.3612 92.4963L80.4178 92.8157ZM78.2913 94.0487C78.693 93.9693 78.935 93.465 78.8285 92.9228C78.7221 92.3805 78.3102 92.0058 77.9086 92.0853C77.507 92.1647 77.265 92.6689 77.3714 93.2112C77.4778 93.7534 77.8897 94.1281 78.2913 94.0487Z" fill="#3B4C62"/>
<path id="Vector_10" d="M72.6121 94.6358C72.5915 94.6392 72.576 94.6599 72.5795 94.6824L72.5846 94.7221C72.588 94.7532 72.6052 94.767 72.6378 94.7635L75.2157 94.5391C75.2844 94.5339 75.3461 94.5857 75.3513 94.6548L75.4028 95.3559C75.4096 95.437 75.3702 95.4836 75.2895 95.4923L71.0004 95.9223C70.9472 95.9274 70.8975 95.8895 70.8906 95.8377C70.8305 95.4733 70.8065 95.0865 70.8202 94.6789C70.8443 93.9157 72.7631 93.4719 73.4033 93.2871C73.5011 93.2594 73.568 93.1696 73.5646 93.066C73.5612 92.9193 73.4634 92.8329 73.2711 92.8018C72.6378 92.6982 72.5331 93.1247 72.0148 93.1748C71.5823 93.218 71.1532 93.2594 70.7275 93.3026C70.6743 93.3078 70.6332 93.2594 70.6452 93.2076C70.7756 92.6274 71.1223 92.2285 71.6853 92.0126C72.8249 91.5723 75.0664 91.372 75.3358 92.9745C75.5161 94.0452 73.3501 94.4631 72.6155 94.6392L72.6121 94.6358Z" fill="#3B4C62"/>
<path id="Vector_11" d="M60.2528 93.1075C59.7962 93.5098 59.7688 94.3232 60.3249 94.6651C60.826 94.9742 61.334 94.9276 61.8489 94.5287C61.8867 94.4993 61.933 94.4855 61.9794 94.489L63.4606 94.5822C63.5326 94.5857 63.5773 94.6616 63.5498 94.7273C63.0092 96.0034 61.3821 96.0397 60.2579 95.8152C59.108 95.5872 58.2052 94.988 58.2824 93.6981C58.3665 92.2751 59.4324 91.8158 60.699 91.8313C61.9811 91.8486 63.1791 92.0489 63.6785 93.4028C63.7043 93.4736 63.6476 93.5495 63.5738 93.5409C63.1448 93.5064 62.7088 93.4718 62.266 93.4356C62 93.4148 61.8592 93.2698 61.6859 93.0937C61.3993 92.7984 60.5737 92.826 60.2545 93.1075H60.2528Z" fill="#3B4C62"/>
<path id="Vector_12" d="M65.9785 95.0364L68.8036 95.045C68.8774 95.045 68.934 95.1037 68.934 95.1763V95.867C68.934 95.9395 68.8757 95.9982 68.8036 95.9982H64.3995C64.3257 95.9982 64.2691 95.9413 64.2691 95.867L64.2622 92.2406C64.2622 92.1681 64.3223 92.1093 64.3926 92.1093L68.5976 92.1007C68.6714 92.1007 68.7298 92.1611 68.7281 92.2354L68.716 92.9779C68.716 93.0488 68.656 93.1075 68.5856 93.1075H65.9991C65.927 93.1075 65.8687 93.1627 65.8687 93.2353L65.8601 93.5599C65.8567 93.6342 65.9167 93.6963 65.9905 93.6963L68.1651 93.686C68.2389 93.686 68.2973 93.7464 68.2973 93.8189L68.2938 94.3128C68.2938 94.3854 68.2355 94.4441 68.1634 94.4441L65.9957 94.4544C65.927 94.4544 65.8704 94.5097 65.8652 94.5788L65.8464 94.893C65.8429 94.969 65.9013 95.0329 65.9768 95.0329L65.9785 95.0364Z" fill="#3B4C62"/>
<path id="Vector_13" d="M23.7398 39.1239C26.5271 38.896 30.2618 39.4365 30.6995 42.9334C31.0136 45.4322 29.6405 47.2523 27.2051 47.7686C23.9767 48.4559 18.5102 48.0518 18.8346 43.2891C19.0286 40.4312 21.2203 39.3311 23.7398 39.1239ZM27.133 43.3858C27.1313 42.31 26.2628 41.4397 25.1953 41.4431H24.3577C23.2902 41.4466 22.4234 42.3186 22.4269 43.3945V43.7467C22.4303 44.8226 23.297 45.6929 24.3663 45.6895H25.2038C26.2714 45.686 27.1381 44.8139 27.1347 43.7381V43.3858H27.133Z" fill="#3B4C62"/>
<path id="Vector_14" d="M115.321 44.567C115.908 46.0106 118.614 46.1384 119.483 44.8502C119.536 44.7725 119.623 44.7259 119.718 44.7259L123.187 44.7293C123.262 44.7293 123.317 44.8036 123.295 44.8744C122.783 46.5632 121.475 47.4474 119.833 47.7893C117.056 48.3626 112.183 48.1951 111.603 44.4427C111.238 42.0768 112.314 40.1307 114.626 39.4865C117.375 38.7215 122.227 38.7354 123.303 42.2823C123.32 42.3359 123.279 42.3929 123.223 42.3929L119.721 42.398C119.62 42.398 119.524 42.348 119.464 42.2651C119.189 41.8748 118.805 41.6279 118.329 41.5104C117.14 41.2203 115.738 41.488 115.249 42.7659C115.037 43.3202 115.062 43.9194 115.324 44.5653L115.321 44.567Z" fill="#3B4C62"/>
<path id="Vector_15" d="M9.1017 42.3807C9.09141 42.3756 9.07939 42.3807 9.07596 42.3911L7.05929 47.7323C7.03012 47.81 6.97348 47.8497 6.89281 47.8497L4.16044 47.8446C4.08149 47.8446 4.02485 47.8083 3.99053 47.7358L0.00868051 39.4088C-0.0170642 39.3553 0.0206947 39.2914 0.082482 39.2914H3.41213C3.51339 39.2914 3.60436 39.3553 3.64211 39.4503L5.60901 44.491C5.66908 44.6447 5.73087 44.6464 5.79609 44.4944L7.95178 39.3656C7.97237 39.3173 8.01013 39.2914 8.06334 39.2914L10.1298 39.2948C10.2019 39.2948 10.2654 39.338 10.2928 39.4036L12.488 44.6136C12.5034 44.6516 12.5566 44.6516 12.5721 44.6136L14.6128 39.4002C14.6368 39.338 14.6969 39.2966 14.7638 39.2966L18.1553 39.2931C18.2136 39.2931 18.2514 39.3535 18.2256 39.4054L14.2421 47.7409C14.2095 47.81 14.1391 47.8532 14.0636 47.8532H11.2728C11.2351 47.8532 11.2025 47.829 11.1887 47.7928C10.528 46.0296 9.86203 44.2596 9.19095 42.4809C9.17379 42.4377 9.14461 42.4049 9.10514 42.3842L9.1017 42.3807Z" fill="#3B4C62"/>
<path id="Vector_16" d="M96.2372 45.831L96.2235 47.7427C96.2235 47.8014 96.1737 47.8497 96.1153 47.8497L86.0818 47.8532C86.0217 47.8532 85.9737 47.8048 85.9737 47.7444L85.9702 39.4002C85.9702 39.3397 86.0183 39.2914 86.0783 39.2914H95.6331C95.6914 39.2914 95.7395 39.338 95.7412 39.3967L95.7532 41.2928C95.7532 41.3533 95.7069 41.4033 95.6451 41.4033L89.6517 41.3982C89.5916 41.3982 89.5419 41.4465 89.5436 41.5087L89.5522 42.6311C89.5522 42.6899 89.6019 42.7382 89.6603 42.7382L94.6891 42.7348C94.7492 42.7348 94.7972 42.7831 94.7989 42.8435L94.8075 44.2786C94.8075 44.339 94.7612 44.3891 94.6994 44.3891L89.662 44.3753C89.6019 44.3753 89.5539 44.4236 89.5539 44.4841L89.5453 45.6152C89.5453 45.6756 89.5933 45.724 89.6534 45.724H96.1291C96.1891 45.724 96.2389 45.7723 96.2372 45.8345V45.831Z" fill="#3B4C62"/>
<path id="Vector_17" d="M128.444 45.7205H134.89C134.95 45.7205 135 45.7706 135 45.831V47.741C135 47.8014 134.95 47.8515 134.89 47.8515L124.869 47.8549C124.809 47.8549 124.759 47.8066 124.759 47.7444L124.755 39.4002C124.755 39.3398 124.803 39.2897 124.865 39.2897H134.425C134.485 39.2897 134.535 39.338 134.535 39.3985L134.528 41.2911C134.528 41.3516 134.48 41.4016 134.418 41.4016L128.433 41.3965C128.373 41.3965 128.324 41.4465 128.324 41.507L128.334 42.6277C128.334 42.6881 128.384 42.7365 128.444 42.7365L133.464 42.733C133.524 42.733 133.574 42.7814 133.574 42.8436L133.577 44.2751C133.577 44.3356 133.527 44.3857 133.467 44.3857L128.437 44.3753C128.377 44.3753 128.327 44.4254 128.327 44.4858L128.334 45.61C128.334 45.6704 128.382 45.7205 128.444 45.7205Z" fill="#3B4C62"/>
<path id="Vector_18" d="M42.3142 44.7328C42.2524 44.7794 42.2541 44.8243 42.3176 44.8658C42.9681 45.282 43.3388 45.7638 43.4349 46.3077C43.5242 46.8137 43.634 47.311 43.7679 47.798C43.7748 47.8256 43.7542 47.8515 43.7267 47.8515L40.5121 47.8412C40.4177 47.8412 40.3318 47.7807 40.301 47.6927C39.8908 46.5719 39.8667 45.4184 38.3804 45.3873C37.536 45.37 36.695 45.3649 35.8574 45.3752C35.7991 45.3752 35.7544 45.4218 35.7544 45.4806L35.7579 47.7238C35.7579 47.7928 35.7012 47.8498 35.6326 47.8498L32.3064 47.8429C32.248 47.8429 32.2017 47.7963 32.2017 47.7376L32.1982 39.3657C32.1982 39.3225 32.2188 39.3018 32.2617 39.3018C35.3288 39.2707 37.6801 39.2742 39.3141 39.3087C40.1482 39.326 41.0321 39.4866 41.9658 39.7888C43.9361 40.4277 44.4561 42.9162 42.9681 44.3184C42.7879 44.4893 42.5081 44.5843 42.3142 44.7311M35.7407 41.545L35.7493 43.1234C35.7493 43.2063 35.8162 43.2736 35.9003 43.2736L38.3203 43.2615C39.3673 43.2564 40.2151 42.9075 40.2134 42.4844L40.21 42.1391C40.21 41.716 39.357 41.3758 38.3083 41.381L35.8883 41.3931C35.8076 41.3931 35.7407 41.4604 35.7407 41.5433V41.545Z" fill="#3B4C62"/>
<path id="Vector_19" d="M48.855 45.7153H55.0509C55.099 45.7153 55.1401 45.7551 55.1401 45.8034L55.123 47.7565C55.123 47.8031 55.0835 47.8428 55.0372 47.8428L45.2765 47.848C45.2284 47.848 45.189 47.8083 45.189 47.76V39.3777C45.189 39.3294 45.2267 39.2897 45.2748 39.2897H48.6868C48.7349 39.2897 48.7743 39.3277 48.7743 39.376L48.7692 45.6273C48.7692 45.6756 48.8087 45.7153 48.8567 45.7153H48.855Z" fill="#3B4C62"/>
<path id="Vector_20" d="M56.3189 39.5159C56.3189 39.3933 56.4185 39.2931 56.5403 39.2948L63.5532 39.3052C66.2993 39.3104 68.5219 40.8749 68.5185 42.8021L68.515 44.3718C68.5116 46.2973 66.2838 47.8549 63.5394 47.848L56.5266 47.8376C56.403 47.8376 56.3052 47.7375 56.3052 47.6131L56.3189 39.5141M59.8974 41.5432L59.8837 45.5668C59.8837 45.6411 59.9438 45.7032 60.0193 45.7032L62.3397 45.7119C63.7179 45.7153 64.8404 44.9192 64.8421 43.9297L64.8455 43.2131C64.849 42.2253 63.7334 41.4189 62.3535 41.4154L60.033 41.4068C59.9592 41.4068 59.8974 41.4672 59.8974 41.5432Z" fill="#3B4C62"/>
<path id="Vector_21" d="M76.6641 45.3769C76.592 45.3769 76.5336 45.4373 76.5336 45.5081V47.7582C76.5336 47.8187 76.5027 47.8498 76.4427 47.8498L73.0924 47.8463C73.0117 47.8463 72.9482 47.7807 72.9482 47.6995V39.3968C72.9482 39.3277 72.9809 39.2931 73.0512 39.2931C75.1125 39.2862 77.1755 39.2862 79.2368 39.2966C80.8931 39.3052 83.8245 39.4209 84.4355 41.4137C84.808 42.626 84.4407 44.0645 83.2169 44.6654C81.3822 45.5686 78.806 45.3631 76.6658 45.3786M76.525 41.5674V43.0733C76.525 43.1769 76.6091 43.2615 76.7121 43.2615H79.139C80.1636 43.2615 80.9943 42.9299 80.9943 42.5241V42.1148C80.9943 41.7073 80.1636 41.3775 79.139 41.3775H76.7121C76.6091 41.3775 76.525 41.4621 76.525 41.5657V41.5674Z" fill="#3B4C62"/>
<path id="Vector_22" d="M106.537 46.4544H101.233C101.204 46.4544 101.178 46.47 101.163 46.4959L100.446 47.8031C100.43 47.829 100.404 47.8446 100.375 47.8446L96.9202 47.8515C96.8567 47.8515 96.819 47.7807 96.8533 47.7271L102.194 39.3294C102.21 39.3052 102.234 39.2914 102.261 39.2914H105.498C105.526 39.2914 105.552 39.3052 105.565 39.3294L110.906 47.7254C110.939 47.7789 110.903 47.8497 110.84 47.8497L107.391 47.8446C107.362 47.8446 107.337 47.829 107.321 47.8031L106.607 46.4959C106.592 46.4717 106.566 46.4544 106.537 46.4544ZM105.183 44.3131C105.262 44.3131 105.31 44.2285 105.272 44.1594L103.969 41.8903C103.93 41.823 103.832 41.823 103.792 41.8903L102.509 44.1473C102.469 44.2164 102.519 44.301 102.598 44.301L105.183 44.3114V44.3131Z" fill="#3B4C62"/>
</g>
<defs>
<linearGradient id="paint0_linear_528_1427" x1="23.5427" y1="18.2271" x2="109.168" y2="18.2271" gradientUnits="userSpaceOnUse">
<stop stop-color="#9EACC7"/>
<stop offset="1" stop-color="#E7A9D8"/>
</linearGradient>
<linearGradient id="paint1_linear_528_1427" x1="23.5736" y1="69.2767" x2="109.171" y2="69.2767" gradientUnits="userSpaceOnUse">
<stop stop-color="#9EACC7"/>
<stop offset="1" stop-color="#E7A9D8"/>
</linearGradient>
<clipPath id="clip0_528_1427">
<rect width="135" height="96" fill="white"/>
</clipPath>
</defs>
</svg>
