<svg width="253" height="180" viewBox="0 0 253 180" fill="none" xmlns="http://www.w3.org/2000/svg">
<g id="Calque_1" opacity="0.7" clip-path="url(#clip0_528_1450)">
<path id="Vector" d="M52.6767 47.2764L52.088 47.244C51.8951 47.2311 51.7439 47.3088 51.6442 47.4772C51.493 47.7265 51.3386 48.0406 51.1874 48.4129C49.5052 52.4926 47.7747 56.5076 46.6779 60.801C46.3016 62.2581 45.7708 64.6638 45.0793 68.0118C45.0278 68.2579 44.8767 68.3744 44.6258 68.3517L44.3234 68.3291C44.1915 68.3194 44.1015 68.1931 44.1304 68.0636C44.5196 66.3248 44.8831 64.6606 45.2273 63.0708C46.2983 58.1362 47.8809 53.8104 50.007 48.8435C50.7339 47.1469 51.4769 45.5798 52.2328 44.1389C60.1261 29.1314 72.1107 17.1804 86.8905 9.36088C89.0681 8.2082 91.6317 7.11379 94.0151 6.01292C95.3178 5.41067 97.0997 4.7631 99.3641 4.06048C108.164 1.34066 116.659 0.145886 124.816 0.000181273C126.36 -0.0289596 129.226 0.18474 133.417 0.641281C161.886 3.74317 186.586 22.1052 198.464 48.2057C198.895 49.1479 199.703 51.1748 200.896 54.2767C202.295 57.9161 203.521 62.4912 204.576 67.9891C204.614 68.1931 204.531 68.2999 204.325 68.3129L203.897 68.3356C203.704 68.3453 203.585 68.2546 203.55 68.0636C202.739 63.8802 201.842 60.2376 200.851 57.1357C200.195 55.0765 199.201 52.4894 197.876 49.3778C197.779 49.1544 197.612 49.0378 197.371 49.0346L195.344 48.9828C195.1 48.9763 195.023 49.0864 195.116 49.313C197.567 55.342 199.314 61.5716 200.359 68.0021C200.391 68.219 200.301 68.3291 200.086 68.3291H199.712C199.494 68.3356 199.368 68.2287 199.336 68.0118C198.249 61.2155 196.473 55.3096 194.029 49.2127C193.971 49.067 193.829 48.9666 193.672 48.9666L185.734 48.8371C185.66 48.8371 185.605 48.9115 185.631 48.9828C187.815 55.1768 189.349 61.5328 190.23 68.0441C190.253 68.2125 190.118 68.3582 189.95 68.3453L189.603 68.3258C189.397 68.3129 189.281 68.2028 189.252 67.9988C188.303 61.6267 186.856 55.0408 184.54 48.986C184.498 48.8759 184.395 48.8047 184.28 48.8014L171.838 48.6363C171.703 48.6363 171.603 48.7626 171.636 48.8953C173.266 55.1833 174.424 61.5554 175.103 68.0215C175.122 68.2158 175.039 68.3129 174.846 68.3194L174.453 68.3323C174.283 68.3388 174.135 68.2093 174.116 68.0377C173.379 61.4874 172.243 55.1024 170.568 48.8241C170.532 48.6914 170.397 48.5975 170.24 48.5942L154.074 48.3611C153.948 48.3611 153.848 48.4744 153.868 48.6007C154.936 54.9728 155.531 61.4583 155.968 67.9373C155.987 68.1963 155.865 68.3258 155.608 68.3291H155.35C155.135 68.3356 154.958 68.1639 154.948 67.9502C154.62 61.4648 153.922 55.0214 152.861 48.6201C152.835 48.4679 152.707 48.3611 152.555 48.3579L133.539 48.1183C133.465 48.1183 133.404 48.1798 133.411 48.2575C133.787 54.8368 133.752 61.4551 133.88 68.028C133.88 68.1898 133.758 68.3226 133.601 68.3291L133.215 68.342C133.005 68.3485 132.899 68.2481 132.896 68.0344C132.883 64.5375 132.742 61.0115 132.716 57.4919C132.71 56.4299 132.684 55.3646 132.642 54.3026C132.562 52.4117 132.581 50.2229 132.423 48.1927C132.417 48.115 132.353 48.0535 132.275 48.0535C128.563 48.0049 124.794 48.06 121.182 47.9596C116.531 47.8333 113.401 47.775 111.796 47.788C111.551 47.788 111.458 47.9143 111.516 48.1604C111.555 48.3255 111.574 48.4582 111.564 48.5489C111.124 53.8104 110.757 59.072 110.458 64.3433C110.397 65.47 110.332 66.6778 110.268 67.9664C110.255 68.2125 110.13 68.3356 109.885 68.3453L109.641 68.3517C109.416 68.3582 109.3 68.2481 109.293 68.0215C109.287 67.7819 109.293 67.4969 109.31 67.1732C109.622 60.7492 110.059 54.3447 110.615 47.9531C110.622 47.8722 110.558 47.8042 110.477 47.8009L91.8825 47.5711C91.7764 47.5711 91.6831 47.6455 91.6606 47.7524C90.2389 54.4515 89.2161 61.2122 88.5889 68.0344C88.5696 68.2222 88.4698 68.3194 88.2833 68.3258L87.9295 68.3356C87.7654 68.342 87.6818 68.2611 87.6689 68.1024C87.6432 67.743 87.6496 67.3415 87.6947 66.9012C88.3155 60.4643 89.2997 54.1116 90.6474 47.8398C90.6764 47.707 90.5766 47.5808 90.4416 47.5808L75.0763 47.3994C74.9445 47.3994 74.8255 47.4836 74.7869 47.6099C72.7154 54.2508 71.1136 61.0374 70.3674 67.9341C70.3384 68.206 70.1873 68.342 69.9171 68.3485L69.7337 68.355C69.5472 68.3615 69.396 68.2093 69.396 68.0215C69.396 67.6588 69.425 67.2897 69.4732 66.9141C70.3288 60.3412 71.7601 53.9238 73.7705 47.652C73.8026 47.5581 73.7351 47.461 73.6354 47.4577L62.249 47.2537C62.1396 47.2537 62.0431 47.3153 62.0013 47.4189C59.2994 54.0598 57.4081 60.9338 56.3306 68.0344C56.2984 68.2514 56.173 68.355 55.9543 68.3485L55.6487 68.342C55.4139 68.3356 55.3142 68.2158 55.3496 67.9794C56.3982 60.9241 58.2476 54.0889 60.9045 47.4772C60.9527 47.3509 60.9109 47.2894 60.779 47.2894H54.3074C54.1112 47.2894 53.9311 47.4092 53.8507 47.5905C50.9816 54.2832 48.8329 60.9305 47.6139 68.0927C47.601 68.1801 47.5528 68.2417 47.4692 68.274C47.2376 68.3615 47.0028 68.3679 46.7615 68.287C46.6779 68.2578 46.6264 68.1737 46.6425 68.083C47.8294 60.9694 49.888 54.1245 52.8278 47.5516C52.905 47.38 52.8504 47.2894 52.6638 47.2796M123.729 1.52198C123.697 1.52846 123.665 1.54789 123.642 1.57379L122.233 3.00169C122.118 3.12149 122.198 3.32224 122.362 3.32872L126.949 3.42909C127.103 3.42909 127.196 3.26072 127.113 3.13121L125.781 1.13668C125.736 1.07192 125.656 1.03954 125.575 1.05897L123.726 1.52198M127.573 1.14639C127.38 1.06868 127.193 1.26619 127.28 1.45723L128.158 3.33196C128.194 3.40966 128.271 3.45823 128.361 3.46147L132.237 3.53594C132.488 3.54242 132.562 3.18949 132.327 3.09559L127.573 1.14639ZM122.037 1.43456C120.516 1.66769 118.193 2.25698 116.945 3.18949C116.788 3.30605 116.807 3.36757 117.007 3.36433L120.519 3.33519C120.67 3.33519 120.809 3.2672 120.905 3.15387L122.198 1.59645C122.243 1.54141 122.217 1.45723 122.15 1.44104C122.118 1.43456 122.082 1.43132 122.037 1.44104M136.933 3.30605L132.523 1.91377C132.523 1.91377 132.491 1.91377 132.488 1.93319L132.478 1.97205C132.365 2.33469 133.26 2.93693 134.475 3.32224L134.537 3.34167C135.752 3.72374 136.83 3.74317 136.942 3.38376L136.955 3.34167C136.955 3.34167 136.949 3.30929 136.936 3.30929M116.521 1.93643L112.709 3.03083C112.69 3.03731 112.677 3.05997 112.684 3.0794V3.08911C112.783 3.43881 113.723 3.47442 114.781 3.1733L114.842 3.15711C115.897 2.85275 116.675 2.32174 116.576 1.97529V1.96557C116.569 1.94614 116.543 1.93319 116.524 1.93643M140.67 3.61365C140.696 3.52947 140.307 3.32872 139.799 3.17654C139.29 3.02112 138.859 2.96608 138.834 3.0535C138.808 3.13768 139.197 3.33843 139.705 3.49061C140.214 3.64603 140.645 3.70107 140.67 3.61365ZM106.682 4.51054C106.794 4.45226 106.849 4.38427 106.842 4.30656C106.836 4.25475 106.794 4.2159 106.743 4.2159C105.942 4.2159 105.266 4.30332 104.482 4.58501C99.0167 6.54069 93.9475 9.16337 89.2708 12.4498C89.0199 12.6279 89.0488 12.7153 89.3544 12.7153L94.6648 12.7088C94.8256 12.7088 94.9832 12.6473 95.1023 12.5405C98.5696 9.36412 102.426 6.6864 106.682 4.51054ZM107.524 5.20345C103.751 7.0458 100.262 9.33174 97.0579 12.058C96.8778 12.2102 96.7459 12.3883 96.6655 12.5923C96.6494 12.6344 96.6816 12.6797 96.7266 12.6797L104.752 12.8319C104.864 12.8319 104.97 12.7801 105.038 12.6862C107.232 9.57782 109.827 6.86124 112.822 4.53645C113.037 4.36808 113.008 4.28389 112.735 4.27742C111.921 4.26123 111.075 4.26446 110.197 4.28389C109.181 4.30332 108.412 4.77281 107.528 5.20345M116.807 12.6441C117.569 9.94694 118.618 7.0458 120.004 4.60444C120.065 4.50083 119.985 4.37131 119.866 4.37131C118.406 4.39398 116.955 4.37779 115.508 4.32598C115.112 4.31303 114.733 4.42636 114.372 4.67244C111.191 6.80943 108.521 9.62315 106.222 12.6635C106.161 12.7445 106.215 12.8643 106.321 12.8643L116.495 12.8772C116.64 12.8772 116.769 12.7801 116.807 12.6408M121.346 4.44255C121.133 4.44255 120.94 4.57206 120.86 4.76957L117.801 12.2134C117.663 12.5599 117.91 12.942 118.28 12.9452L128.914 13.0909C129.252 13.0909 129.506 12.7801 129.435 12.4466L127.772 4.86023C127.721 4.61739 127.505 4.44578 127.261 4.44578L121.352 4.43931M141.23 13.078C139.564 10.0117 137.007 7.04256 134.414 4.78252C134.282 4.66596 134.115 4.6012 133.941 4.59473L128.866 4.4296C128.728 4.42312 128.621 4.55587 128.66 4.69186C129.413 7.37282 129.998 10.0894 130.416 12.8416C130.435 12.9582 130.532 13.0488 130.648 13.0488L141.117 13.2625C141.214 13.2625 141.275 13.1589 141.23 13.0747M140.796 5.1484C139.387 4.37455 137.788 4.59149 136.293 4.56882C135.875 4.56235 135.82 4.70481 136.125 4.98975C138.593 7.28864 140.677 10.138 142.353 13.0294C142.417 13.1427 142.539 13.214 142.668 13.2172L151.346 13.4082C151.462 13.4082 151.516 13.269 151.433 13.188C150.838 12.6506 150.259 12.1196 149.696 11.595C146.994 9.07595 144.028 6.92924 140.796 5.15488M159.326 13.1719C154.71 9.86275 149.998 6.94866 144.672 4.91851C143.935 4.63682 143.247 4.6012 142.491 4.62063C142.089 4.63034 142.063 4.73396 142.41 4.9347C146.164 7.11379 149.59 9.83685 152.69 13.1071C152.771 13.188 152.854 13.2528 152.941 13.3014C153.089 13.3758 153.189 13.4147 153.244 13.4147C155.27 13.405 157.313 13.4309 159.365 13.4924C159.432 13.4924 159.484 13.4277 159.461 13.3629C159.435 13.2819 159.387 13.2204 159.323 13.1719M147.698 5.17107C148.461 5.51428 149.268 5.80893 149.972 6.16833C153.961 8.18877 157.686 10.601 161.147 13.4017C161.311 13.5313 161.513 13.5993 161.722 13.5863C162.626 13.5377 163.527 13.5507 164.427 13.6284C165.003 13.677 165.051 13.5442 164.566 13.2269C159.989 10.2189 155.119 7.70956 149.953 5.70532C149.3 5.45276 148.503 5.23259 147.782 4.96061C147.74 4.94442 147.711 4.96061 147.695 4.99946L147.663 5.08688C147.647 5.12574 147.663 5.15488 147.698 5.17431M99.4542 5.51105C99.1936 5.46895 98.9428 5.49486 98.7112 5.58552C93.9347 7.46672 89.319 9.56163 84.9767 12.2199C84.4074 12.5664 84.4524 12.7024 85.115 12.6279C85.7358 12.5534 86.3534 12.5761 86.9677 12.6894C87.1125 12.7153 87.2604 12.6829 87.3762 12.5955C90.7889 10.0635 94.4107 7.9006 98.2383 6.10682C98.6694 5.90607 99.0746 5.75389 99.4606 5.64704C99.5314 5.62761 99.5249 5.524 99.4542 5.51428M82.6898 13.7417C76.9934 17.5009 71.8663 21.9303 67.3149 27.0332C67.2345 27.1239 67.2956 27.2696 67.4179 27.2696L72.0303 27.3311C72.2394 27.3311 72.4356 27.2372 72.5675 27.0721C76.3758 22.1052 80.7438 17.7081 85.6811 13.881C85.932 13.6867 85.8999 13.5863 85.5814 13.5863C84.7902 13.5863 83.9828 13.5993 83.1562 13.6316C82.9471 13.6381 82.7927 13.677 82.6898 13.745M83.3717 26.8163C86.2858 22.1408 89.6857 17.87 93.5648 14.0072C93.7738 13.8 93.732 13.6964 93.4361 13.7061C91.7828 13.7482 90.0717 13.7353 88.3058 13.6673C87.8265 13.6478 87.3698 13.8 87.0224 14.0688C82.069 17.8959 77.6463 22.2606 73.7608 27.1627C73.6868 27.2566 73.7544 27.3959 73.8734 27.3861C74.9831 27.3181 76.2857 27.4379 77.1896 27.4444C78.9522 27.4509 80.7149 27.4541 82.4775 27.4574C83.0983 27.4574 83.0886 27.2728 83.3717 26.8195M96.9614 27.4056C98.7433 22.7495 101.304 18.1129 104.073 14.0137C104.147 13.9069 104.073 13.7612 103.941 13.7612C101.185 13.7773 98.4313 13.7676 95.6812 13.7417C95.4464 13.7417 95.2116 13.8032 95.0508 13.9554C91.8954 16.9634 89.0649 20.2628 86.5689 23.8471C85.7744 24.9869 85.0218 26.0877 84.3109 27.1498C84.1597 27.3764 84.2176 27.4897 84.491 27.4833C88.5149 27.3958 92.5355 27.4574 96.5561 27.6711C96.733 27.6808 96.8938 27.5739 96.9582 27.412M98.322 26.6544C98.2094 26.9231 98.1032 27.1789 98.01 27.4218C97.9746 27.5124 98.0421 27.616 98.1386 27.616L113.211 27.7779C113.292 27.7779 113.359 27.7196 113.372 27.6419C114.08 23.0927 115.07 18.605 116.347 14.1853C116.379 14.072 116.296 13.9619 116.18 13.9587C112.825 13.9425 109.454 13.8842 106.061 13.7838C105.652 13.7709 105.353 13.9036 105.16 14.1788C102.542 17.9607 100.262 22.1181 98.3252 26.6576M117.647 13.936C117.444 13.936 117.27 14.072 117.225 14.2695L114.25 27.2858C114.189 27.5513 114.388 27.8071 114.659 27.8103L130.854 27.9722C131.111 27.9722 131.31 27.752 131.278 27.4962L129.779 14.5285C129.754 14.3181 129.577 14.1562 129.364 14.1497L117.643 13.9392M147.972 28.0693C146.283 23.4133 144.521 18.6957 141.999 14.4055C141.967 14.3472 141.915 14.3181 141.851 14.3181L130.838 14.0947C130.731 14.0947 130.648 14.1886 130.667 14.2954C131.41 18.7604 131.783 23.3356 132.23 27.833C132.24 27.9333 132.324 28.0046 132.423 28.0078L147.866 28.2215C147.943 28.2215 148.001 28.1438 147.972 28.0693ZM162.359 28.1697C159.696 23.2837 156.508 18.7183 152.784 14.6548C152.655 14.5156 152.472 14.4314 152.279 14.4282L143.401 14.276C143.25 14.276 143.157 14.4346 143.227 14.5641C145.55 18.8511 147.451 23.3161 148.934 27.969C148.979 28.1211 149.123 28.2247 149.281 28.228L162.237 28.3834C162.346 28.3834 162.414 28.2668 162.362 28.1697M154.138 14.6127C157.724 18.7281 161.005 23.3453 163.498 28.2021C163.569 28.3381 163.704 28.4223 163.855 28.4223L173.684 28.5388C173.797 28.5388 173.861 28.4125 173.797 28.3219C170.256 23.355 166 18.6924 161.272 14.7973C161.073 14.6321 160.841 14.548 160.587 14.535C158.522 14.4443 156.418 14.4023 154.279 14.412C154.202 14.412 154.151 14.4443 154.125 14.5059C154.112 14.5382 154.119 14.5803 154.144 14.6062M181.234 28.1406C176.943 23.1866 172.292 18.6212 166.917 14.8556C166.299 14.4217 164.003 14.6224 163.212 14.5641C162.729 14.5285 162.671 14.6678 163.035 14.9883C167.576 18.9353 171.571 23.3841 175.023 28.3284C175.122 28.4708 175.283 28.5615 175.457 28.5615L181.391 28.6716C181.475 28.6716 181.53 28.5842 181.491 28.5097C181.43 28.3899 181.343 28.2636 181.234 28.1373M169.326 14.9754C169.107 14.8232 168.895 14.6937 168.696 14.5868C168.651 14.5641 168.619 14.5739 168.599 14.6192L168.573 14.6839C168.541 14.7714 168.557 14.8361 168.631 14.8912C173.855 18.7993 178.529 23.287 182.659 28.351C182.813 28.5421 183.038 28.6586 183.283 28.678L184.444 28.7784C184.714 28.8011 184.762 28.7104 184.582 28.5032C180.095 23.3841 175.01 18.8738 169.329 14.9689M71.6572 21.2601C71.966 21.0658 72.1815 20.8327 72.3102 20.5575C72.3841 20.3988 72.3488 20.3729 72.2104 20.4765C72.0142 20.6255 71.8341 20.8294 71.6636 21.0852C71.6186 21.1532 71.5639 21.205 71.49 21.2374C71.2809 21.341 71.1426 21.4187 71.0782 21.4738C69.0518 23.1866 67.1573 25.0678 65.3979 27.1206C65.3464 27.1822 65.3561 27.2728 65.4172 27.3246L65.4912 27.3861C65.5812 27.4606 65.6617 27.4509 65.7356 27.3635C67.4082 25.3948 69.1869 23.5395 71.0718 21.7976C71.268 21.6162 71.4224 21.4025 71.6508 21.2601M53.6062 45.8809C56.723 39.5767 60.2065 34.0205 64.7321 28.5129C64.8157 28.4125 64.7514 28.2571 64.6195 28.2507L64.5069 28.2442C64.359 28.2377 64.24 28.2895 64.1435 28.4028C61.551 31.5177 58.9842 34.5483 56.9771 37.8315C55.7195 39.8941 53.8925 42.9215 52.3775 45.9715C52.2553 46.2176 52.3325 46.3342 52.6059 46.3115L53.0208 46.2791C53.291 46.2597 53.4872 46.127 53.6094 45.8809M61.4963 46.0719C64.1403 39.8779 67.4404 34.0756 71.4063 28.5971C71.4932 28.4773 71.4063 28.3089 71.2584 28.3154C69.9139 28.3478 68.5469 28.3607 67.1605 28.3607C66.2213 28.3607 66.2857 28.1859 65.6488 28.9436C61.2937 34.1403 57.6365 39.8099 54.6838 45.9521C54.6194 46.0849 54.7159 46.2403 54.8607 46.2403L61.1328 46.305C61.2872 46.305 61.432 46.2144 61.4963 46.0687M80.9625 31.0093C81.3678 30.2678 81.7924 29.4875 82.2363 28.6683C82.291 28.568 82.217 28.4449 82.1044 28.4449L73.0274 28.3445C72.9116 28.3445 72.7991 28.3964 72.7315 28.4903C68.6659 33.9331 65.2853 39.784 62.5931 46.0331C62.5063 46.2338 62.5738 46.3342 62.7861 46.3342L73.8798 46.4313C74.0921 46.4313 74.2304 46.331 74.3012 46.1302C76.0702 40.9043 78.2896 35.8629 80.9625 31.0061M83.4135 28.6554C80.1455 34.0497 77.2378 40.111 75.3658 46.1691C75.3337 46.2791 75.4141 46.3925 75.5299 46.3925L90.612 46.5867C90.8372 46.5867 90.9755 46.4799 91.0302 46.2597C92.394 40.2858 94.1888 34.4447 96.4114 28.746C96.4435 28.6619 96.3824 28.5744 96.2956 28.5744L83.748 28.4676C83.6097 28.4676 83.4843 28.5388 83.4135 28.6554ZM97.4471 28.8011C95.2148 34.5192 93.4007 40.3312 92.0305 46.3083C92.0016 46.4378 92.1013 46.5641 92.2331 46.5673L110.516 46.8004C110.683 46.8004 110.818 46.6742 110.834 46.5123C111.365 40.6323 112.13 34.7782 113.137 28.9597C113.156 28.8335 113.063 28.7234 112.938 28.7201L97.7141 28.623C97.5983 28.623 97.4921 28.6942 97.4503 28.8043M132.089 47.053C132.295 47.053 132.465 46.8814 132.452 46.6709L131.423 29.3321C131.41 29.1411 131.256 28.9921 131.069 28.9921L114.356 28.7979C114.176 28.7979 114.018 28.9306 113.996 29.1119L111.693 46.4346C111.664 46.6515 111.831 46.8425 112.044 46.8458L132.092 47.0562M148.548 29.9149C148.483 29.7012 148.406 29.5361 148.319 29.4163C148.232 29.2997 148.084 29.2382 147.862 29.235C142.764 29.1378 137.657 29.0698 132.542 29.0277C132.455 29.0277 132.388 29.1022 132.391 29.1864L133.469 46.9267C133.475 47.0174 133.549 47.0886 133.636 47.0886L152.401 47.3476C152.549 47.3476 152.661 47.2149 152.633 47.0692C151.52 41.2701 150.503 36.3712 148.544 29.9149M169.902 46.4702C168.197 40.5999 165.901 35.0016 163.122 29.5652C163.073 29.4649 162.97 29.4033 162.861 29.4001L149.619 29.1929C149.493 29.1929 149.4 29.3127 149.439 29.4325C151.253 35.2574 152.472 41.0079 153.63 46.9591C153.675 47.1825 153.868 47.3476 154.096 47.3541L169.918 47.5775C170.124 47.5775 170.262 47.3606 170.169 47.1728C170.069 46.9688 169.976 46.7357 169.902 46.4669M183.865 46.9591C183.669 46.4184 183.459 45.8809 183.244 45.3499C180.97 39.8422 178.143 34.6163 174.768 29.6753C174.698 29.5749 174.585 29.5134 174.463 29.5167C171.143 29.5911 167.827 29.5264 164.514 29.3289C164.334 29.3191 164.215 29.5069 164.296 29.6656C167.161 35.306 169.445 41.173 171.156 47.2732C171.217 47.4772 171.398 47.6164 171.607 47.6196L183.868 47.7524C183.99 47.7524 184.08 47.6358 184.048 47.5192C184.003 47.3606 183.942 47.1728 183.868 46.9623M193.386 47.7556C190.491 41.241 186.962 35.3286 182.803 30.0185C182.639 29.8081 182.462 29.7012 182.273 29.7045C180.298 29.7045 178.271 29.6397 176.193 29.5037C176.068 29.4972 175.984 29.6332 176.045 29.7433C176.438 30.4265 176.856 31.1194 177.303 31.8253C180.481 36.844 183.096 42.1185 185.145 47.6488C185.19 47.775 185.312 47.856 185.444 47.8527C187.917 47.7912 190.394 47.843 192.884 48.0017C193.045 48.0114 193.183 47.9952 193.299 47.9564C193.382 47.9272 193.421 47.8366 193.386 47.7556ZM197.152 47.7297C194.084 41.4774 190.597 35.7237 186.039 30.1869C185.807 29.9084 185.515 29.7595 185.158 29.7401L184.264 29.685C183.91 29.6624 183.839 29.7951 184.054 30.0801C188.239 35.6103 191.742 41.4677 194.492 47.8301C194.55 47.9661 194.682 48.0503 194.83 48.0535L196.943 48.0697C197.117 48.0697 197.229 47.8884 197.152 47.7329V47.7297Z" fill="url(#paint0_linear_528_1450)"/>
<path id="Vector_2" d="M140.664 3.60706C140.638 3.69449 140.207 3.63944 139.699 3.48403C139.194 3.32861 138.802 3.1311 138.827 3.04691C138.853 2.95949 139.284 3.01453 139.792 3.16995C140.297 3.32537 140.69 3.52288 140.664 3.60706Z" fill="#9EACC7"/>
<path id="Vector_3" d="M131.523 115.851C131.593 115.851 131.651 115.796 131.654 115.725L132.613 96.1226C132.626 95.8733 132.755 95.7502 133.005 95.7567L133.24 95.7632C133.501 95.7697 133.626 95.9024 133.613 96.1679L132.671 115.576C132.664 115.715 132.774 115.828 132.912 115.832L151.796 116.097C151.918 116.097 152.021 116.013 152.044 115.893C153.276 109.34 154.147 102.738 154.662 96.087C154.675 95.9089 154.826 95.7729 155 95.7729L155.312 95.7794C155.524 95.7794 155.624 95.8895 155.611 96.1032C155.154 102.731 154.305 109.307 153.06 115.835C153.031 115.984 153.144 116.123 153.295 116.126L169.394 116.327C169.542 116.327 169.677 116.24 169.731 116.097C169.879 115.715 170.014 115.304 170.14 114.86C171.896 108.624 172.986 102.618 173.871 96.1582C173.903 95.9057 174.051 95.7761 174.302 95.7697L174.501 95.7632C174.772 95.7567 174.891 95.8895 174.855 96.1582C174.36 100.225 173.707 104.178 172.887 108.022C172.308 110.745 171.594 113.452 170.754 116.142C170.722 116.236 170.793 116.333 170.893 116.337C174.949 116.421 179.024 116.486 183.122 116.531C183.498 116.531 183.742 116.392 183.852 116.11C186.296 109.683 188.043 103.016 189.095 96.1096C189.124 95.9121 189.294 95.7664 189.494 95.7697H189.806C190.024 95.7697 190.121 95.883 190.092 96.0999C189.079 103.026 187.335 109.757 184.868 116.301C184.826 116.408 184.9 116.521 185.016 116.524C187.474 116.602 189.95 116.664 192.443 116.709C192.887 116.715 193.086 116.725 193.286 116.278C196.155 109.799 198.156 103.081 199.288 96.1226C199.323 95.8895 199.458 95.7761 199.69 95.7761H200.063C200.227 95.7761 200.349 95.9218 200.323 96.087C199.162 103.129 197.162 109.916 194.318 116.444C194.26 116.57 194.35 116.715 194.492 116.719L196.686 116.796C196.859 116.803 197.023 116.703 197.097 116.544C200.114 110.023 202.26 103.217 203.53 96.1291C203.575 95.8862 203.717 95.7697 203.961 95.7729H204.302C204.544 95.7794 204.64 95.8992 204.589 96.1355C203.524 101.145 202.633 105.189 201.121 109.317C199.304 114.287 197.175 119.131 194.096 124.273C179.802 148.158 154.057 163.555 126.312 164.024C123.189 164.076 121.011 164.056 119.776 163.972C114.427 163.593 108.827 162.868 103.668 161.353C102.137 160.906 100.59 160.543 99.126 159.983C95.7326 158.691 92.3199 157.474 89.0616 155.855C85.0796 153.873 81.9885 152.254 78.4697 149.732C75.1052 147.323 71.1682 144.28 68 141.077C65.5136 138.565 63.6191 136.577 62.3229 135.113C61.8597 134.589 60.8851 133.332 59.4023 131.331C57.3888 128.624 55.8449 126.377 54.7705 124.593C52.8213 121.359 50.2449 116.32 48.5756 111.936C47.5013 109.113 46.5524 106.247 45.7225 103.346C45.0664 101.057 44.6643 98.5478 44.1883 96.1193C44.1529 95.938 44.288 95.7761 44.4713 95.7729H44.7029C44.9216 95.7729 45.0535 95.8797 45.0953 96.0999C45.655 99.0302 46.2307 102.006 47.1024 104.82C48.1413 108.174 49.2896 111.57 50.7371 114.77C50.8207 114.954 51.0008 115.071 51.2002 115.074L51.8049 115.08C52.0816 115.08 52.1652 114.957 52.0494 114.705C51.4769 113.452 50.7757 111.613 49.949 109.187C48.5016 104.956 47.4015 100.571 46.6521 96.0352C46.6425 95.9737 46.6714 95.9154 46.7229 95.883C47.2021 95.5883 47.5785 95.7697 47.675 96.3298C48.7653 102.657 50.5762 108.812 53.1173 114.805C53.1816 114.957 53.3296 115.054 53.4936 115.054C55.6358 115.054 57.7555 115.045 59.9169 115.184C60.0552 115.19 60.155 115.058 60.1067 114.925C57.8294 108.822 56.2308 102.54 55.3141 96.0837C55.282 95.8733 55.3752 95.7664 55.5875 95.7697H55.9446C56.1472 95.7761 56.263 95.8765 56.2919 96.0773C57.2376 102.534 58.8619 108.812 61.1682 114.909C61.2261 115.061 61.374 115.161 61.5348 115.165L72.8601 115.177C72.9598 115.177 73.0274 115.084 72.9984 114.99C71.1618 108.809 69.9106 102.508 69.2416 96.0902C69.219 95.8603 69.3188 95.7502 69.5503 95.7632L69.872 95.7826C70.0875 95.7956 70.2065 95.9089 70.229 96.1258C70.8273 101.812 71.9885 107.727 73.7189 113.873C73.8605 114.378 73.9634 114.75 74.0245 114.993C74.0502 115.097 74.1435 115.171 74.2529 115.174L89.6084 115.362C89.7789 115.362 89.9076 115.21 89.8754 115.041C88.6403 108.783 87.8265 102.469 87.4373 96.0999C87.4244 95.8895 87.5241 95.7794 87.7364 95.7729L88.0613 95.7599C88.28 95.7535 88.399 95.8603 88.4151 96.087C88.8365 102.511 89.6695 108.88 90.9143 115.2C90.9336 115.301 91.0205 115.372 91.1202 115.372L109.663 115.566C109.814 115.566 109.882 115.492 109.869 115.339C109.371 108.951 109.068 102.55 108.962 96.142C108.956 95.9477 109.113 95.7826 109.313 95.7794H109.621C109.872 95.7729 109.998 95.8992 110.001 96.1517C110.081 102.563 110.371 108.967 110.869 115.362C110.882 115.501 110.995 115.605 111.127 115.608L131.529 115.857M63.4487 134.119C59.2125 128.686 55.4943 122.699 52.7474 116.369C52.6573 116.162 52.4547 116.029 52.2295 116.029H51.6891C51.4415 116.023 51.3707 116.136 51.4833 116.356C53.4775 120.397 55.5136 124.36 58.0868 128.035C58.833 129.097 60.3769 131.14 62.7217 134.171C62.8375 134.323 62.9951 134.394 63.1849 134.391L63.3232 134.385C63.5387 134.378 63.5805 134.287 63.4487 134.119ZM70.1872 134.138C66.3339 128.608 63.0852 122.602 60.6728 116.317C60.6246 116.191 60.5056 116.11 60.3705 116.107L53.9085 116.039C53.7927 116.039 53.7123 116.159 53.7606 116.265C56.62 122.657 60.2643 128.579 64.6934 134.028C64.8478 134.219 65.0022 134.317 65.1502 134.317C66.8131 134.31 68.4567 134.323 70.0779 134.346C70.184 134.346 70.2451 134.229 70.1872 134.138ZM80.9721 134.19C77.836 128.579 75.3561 122.553 73.4327 116.45C73.3973 116.337 73.2911 116.256 73.1721 116.256L61.8661 116.078C61.7471 116.078 61.6635 116.197 61.7085 116.311C64.1434 122.469 67.2473 128.239 71.0171 133.63C71.3612 134.122 71.4288 134.381 72.1493 134.385C75.0602 134.404 77.9551 134.42 80.8306 134.436C80.956 134.436 81.0365 134.3 80.9721 134.19ZM94.8835 133.766C92.915 128.158 91.3421 122.44 90.1649 116.605C90.1359 116.466 90.0137 116.366 89.8754 116.366L74.5713 116.23C74.4845 116.23 74.4426 116.275 74.4394 116.359C74.4394 116.431 74.4523 116.511 74.4845 116.615C76.5334 122.706 78.9071 128.524 82.0464 134.126C82.1429 134.297 82.3231 134.404 82.516 134.407L94.9542 134.598C95.0668 134.598 95.1247 134.543 95.1344 134.43C95.1408 134.317 95.1086 134.203 95.0443 134.087C94.9575 133.935 94.906 133.828 94.8835 133.766ZM94.9317 130.81C95.3177 132.001 95.7873 133.161 96.1636 134.352C96.199 134.472 96.3116 134.553 96.437 134.556L111.513 134.763C111.722 134.763 111.876 134.569 111.828 134.368C111.719 133.918 111.635 133.442 111.571 132.944C110.914 127.63 110.377 122.255 109.959 116.819C109.946 116.673 109.827 116.56 109.683 116.56L91.429 116.372C91.2585 116.372 91.1298 116.528 91.1652 116.699C92.1816 121.491 93.4393 126.196 94.9317 130.816M111.272 116.618C111.03 116.618 110.844 116.826 110.866 117.065L112.677 134.349C112.696 134.55 112.867 134.705 113.07 134.708L129.737 135C129.95 135 130.127 134.841 130.146 134.631L131.642 117.276C131.661 117.043 131.478 116.839 131.246 116.835L111.275 116.618M147.509 133.905C149.271 128.462 150.706 122.916 151.806 117.259C151.825 117.159 151.748 117.065 151.645 117.062L132.697 116.839C132.648 116.839 132.623 116.861 132.616 116.913L131.143 134.793C131.137 134.877 131.201 134.945 131.281 134.948L146.717 135.243C146.878 135.243 147.026 135.152 147.09 135.003C147.235 134.679 147.373 134.317 147.505 133.905M161.838 135.275C164.948 129.78 167.415 123.7 169.304 117.642C169.349 117.502 169.242 117.357 169.098 117.353L153.057 117.075C152.919 117.075 152.803 117.169 152.777 117.305C151.809 122.414 150.551 127.491 149.001 132.536C148.741 133.384 148.441 134.206 148.104 134.997C148.059 135.103 148.136 135.223 148.252 135.226L161.606 135.408C161.709 135.408 161.787 135.366 161.838 135.275ZM170.326 117.629C168.532 123.641 166.036 129.596 163.057 135.126C163.006 135.223 162.986 135.294 162.999 135.34C163.028 135.44 163.134 135.508 163.26 135.508L173.234 135.573C173.366 135.573 173.491 135.511 173.565 135.405C177.467 129.903 180.684 124.027 183.218 117.771C183.237 117.726 183.225 117.677 183.192 117.645C183.131 117.583 183.054 117.554 182.961 117.554C181.761 117.554 180.558 117.538 179.358 117.493C176.328 117.382 173.536 117.418 170.638 117.399C170.494 117.399 170.368 117.489 170.326 117.629ZM184.292 117.794C181.835 123.978 178.647 129.871 174.82 135.333C174.733 135.46 174.82 135.634 174.971 135.641C176.956 135.722 178.966 135.744 180.996 135.709C181.176 135.709 181.32 135.634 181.43 135.502C185.894 130.117 189.6 124.273 192.536 117.972C192.581 117.878 192.514 117.771 192.411 117.768L184.659 117.554C184.498 117.548 184.354 117.645 184.296 117.797M195.274 120.073C195.65 119.351 196.049 118.61 196.464 117.842C196.483 117.807 196.457 117.758 196.419 117.758L193.8 117.748C193.755 117.748 193.72 117.768 193.701 117.813C190.809 124.133 187.165 130 182.771 135.408C182.671 135.534 182.662 135.641 182.752 135.735C182.768 135.754 182.79 135.764 182.816 135.764L184.215 135.829C184.366 135.835 184.514 135.774 184.611 135.66C188.767 130.881 192.321 125.684 195.274 120.073ZM64.2431 135.32C64.2174 135.291 64.1724 135.291 64.1434 135.32L63.9987 135.463C63.9729 135.489 63.9697 135.534 63.9987 135.563L71.7955 143.661C71.8212 143.69 71.8662 143.69 71.8952 143.661L72.0399 143.519C72.0656 143.493 72.0689 143.447 72.0399 143.418L64.2431 135.32ZM84.1661 149.175C83.8541 148.991 83.6161 148.832 83.4585 148.699C78.8653 144.785 74.7772 140.41 71.2004 135.576C71.1007 135.437 70.9399 135.356 70.7694 135.356L66.1376 135.346C65.9736 135.346 65.8868 135.54 65.9929 135.664C70.3352 140.77 75.2403 145.251 80.7148 149.107C81.4739 149.641 82.8634 149.434 83.7544 149.421C83.9281 149.421 84.0664 149.386 84.1725 149.318C84.2497 149.269 84.2497 149.217 84.1725 149.172M91.0977 148.311C87.5306 144.367 84.5392 140.18 81.7795 135.638C81.728 135.553 81.6412 135.502 81.5414 135.498L72.4388 135.32C72.3712 135.32 72.3294 135.398 72.3712 135.453C75.5362 139.714 79.1066 143.606 83.0854 147.129C83.9667 147.909 84.848 148.618 85.7293 149.259C85.9481 149.418 86.2118 149.505 86.4788 149.509L92.0176 149.603C92.4164 149.609 92.4518 149.492 92.1302 149.263C91.8053 149.029 91.4611 148.712 91.0977 148.307M102.481 149.424C99.7211 145.144 97.4663 140.501 95.6812 135.725C95.6522 135.644 95.575 135.589 95.4882 135.589L83.1626 135.479C83.0371 135.479 82.9599 135.615 83.0243 135.722C85.4559 139.86 88.28 143.723 91.4965 147.317C92.1655 148.065 92.8539 148.748 93.5551 149.369C93.7062 149.502 93.8799 149.57 94.0794 149.57L102.397 149.596C102.484 149.596 102.536 149.496 102.487 149.424M114.597 148.968C113.597 144.836 112.758 140.485 112.072 135.913C112.056 135.819 111.976 135.748 111.883 135.748L97.0031 135.651C96.8584 135.651 96.7587 135.796 96.8102 135.932C98.5889 140.575 100.828 145.021 103.526 149.269C103.716 149.57 103.96 149.716 104.263 149.719C107.685 149.739 111.117 149.748 114.556 149.752C114.655 149.752 114.742 149.674 114.749 149.57C114.765 149.379 114.636 149.12 114.597 148.968ZM113.385 135.829C113.153 135.829 112.979 136.039 113.025 136.266L115.566 149.47C115.598 149.638 115.746 149.764 115.916 149.768L127.798 149.981C127.981 149.981 128.139 149.849 128.165 149.664L129.972 136.382C130.004 136.162 129.834 135.965 129.615 135.965L113.385 135.829ZM145.395 139.611C145.813 138.542 146.225 137.506 146.634 136.496C146.679 136.382 146.598 136.256 146.473 136.253L131.259 135.984C131.092 135.984 130.947 136.107 130.931 136.275C130.451 140.744 129.831 145.196 129.068 149.625C129.046 149.761 129.149 149.884 129.287 149.891L140.05 150.13C140.233 150.137 140.403 150.04 140.493 149.878C142.394 146.536 144.032 143.114 145.399 139.611M147.534 136.862C145.936 141.378 143.961 145.72 141.613 149.888C141.564 149.975 141.626 150.082 141.725 150.085L150.638 150.273C150.818 150.279 150.992 150.205 151.118 150.075C154.218 146.831 156.975 143.279 159.387 139.416C159.96 138.5 160.529 137.593 161.092 136.706C161.159 136.596 161.085 136.457 160.954 136.454L148.036 136.201C147.924 136.201 147.837 136.246 147.776 136.34C147.692 136.47 147.612 136.645 147.534 136.862ZM162.25 136.603C159.484 141.508 156.261 145.957 152.578 149.946C152.517 150.011 152.475 150.072 152.446 150.137C152.414 150.205 152.465 150.283 152.536 150.283L159.162 150.318C159.329 150.318 159.496 150.26 159.628 150.153C164.485 146.248 168.792 141.799 172.552 136.816C172.607 136.742 172.559 136.635 172.465 136.635L162.507 136.454C162.401 136.454 162.301 136.509 162.25 136.603ZM165.273 150.289C170.806 146.4 175.733 142.084 180.204 136.988C180.278 136.9 180.224 136.768 180.108 136.764L174.289 136.603C174.048 136.596 173.858 136.69 173.717 136.884C170.072 141.867 165.868 146.313 161.105 150.221C161.031 150.283 161.073 150.402 161.166 150.406L164.63 150.483C164.858 150.49 165.084 150.422 165.273 150.289ZM167.02 150.244C166.894 150.334 166.904 150.402 167.052 150.448C167.203 150.493 167.383 150.454 167.589 150.321C173.405 146.572 178.664 142.139 183.363 137.03C183.524 136.855 183.488 136.771 183.25 136.768L182.041 136.758C181.809 136.758 181.623 136.842 181.472 137.017C177.235 141.961 172.391 146.459 167.02 150.247M82.8634 150.655C87.6978 153.504 92.6737 156.454 98.2479 158.445C98.3541 158.481 98.4474 158.468 98.5342 158.403C98.5985 158.355 98.5953 158.312 98.5181 158.28C97.6111 157.901 96.7169 157.48 95.8452 157.021C92.336 155.162 88.9844 153.051 85.7969 150.674C85.2822 150.292 84.1179 150.438 83.1111 150.454C83.0146 150.454 82.931 150.474 82.8666 150.512C82.812 150.545 82.812 150.623 82.8666 150.652M102.243 158.85C103.131 159.203 103.941 159.578 104.858 159.491C105.253 159.455 105.276 159.339 104.929 159.151C100.811 156.894 97.045 154.116 93.6258 150.82C93.4586 150.658 93.1434 150.545 92.9086 150.551C91.1523 150.587 89.3222 150.571 87.5659 150.474C87.4759 150.467 87.4309 150.587 87.5048 150.642C92.0883 154.026 97.0031 156.762 102.243 158.853M106.466 158.827C107.27 159.235 107.614 159.455 108.345 159.459C109.232 159.459 110.101 159.465 110.953 159.485C111.204 159.491 111.233 159.41 111.04 159.251C108.116 156.817 105.591 154.022 103.462 150.865C103.375 150.739 103.237 150.665 103.086 150.665C100.467 150.658 97.8394 150.642 95.1987 150.616C95.1601 150.616 95.1247 150.626 95.0926 150.645C95.0572 150.665 95.025 150.684 94.9993 150.707C94.9542 150.739 94.9542 150.804 94.9928 150.836C98.6436 153.954 102.159 156.661 106.466 158.834M118.255 159.391C116.849 156.862 115.952 153.867 115.147 151.102C115.112 150.975 114.999 150.891 114.874 150.888L104.794 150.652C104.72 150.652 104.658 150.72 104.678 150.794C104.7 150.891 104.752 150.995 104.829 151.102C107.026 154.242 109.663 156.953 112.735 159.232C112.951 159.391 113.082 159.478 113.372 159.485C114.913 159.51 116.45 159.546 117.988 159.591C118.062 159.591 118.116 159.591 118.161 159.585C118.248 159.572 118.3 159.472 118.255 159.391ZM125.71 159.478C126.617 156.83 127.28 154.045 127.824 151.254C127.846 151.128 127.75 151.008 127.624 151.008L116.379 150.827C116.228 150.827 116.122 150.969 116.17 151.115C117.081 153.941 117.923 156.674 119.306 159.323C119.4 159.504 119.589 159.617 119.792 159.621L125.501 159.63C125.595 159.63 125.678 159.569 125.707 159.481M127.061 158.436C126.958 158.763 126.868 159.09 126.788 159.417C126.756 159.549 126.859 159.679 126.994 159.676C128.67 159.656 130.345 159.666 132.028 159.695C132.272 159.702 132.436 159.669 132.516 159.598C135.321 157.208 137.66 154.45 139.541 151.322C139.602 151.218 139.532 151.086 139.409 151.086L129.011 150.998C128.917 150.998 128.837 151.066 128.821 151.16C128.406 153.611 127.82 156.036 127.058 158.432M140.095 158.72C143.498 156.81 146.672 154.417 149.619 151.545C149.834 151.338 149.789 151.231 149.493 151.231L141.076 151.17C140.912 151.17 140.757 151.254 140.67 151.396C138.876 154.385 136.701 157.066 134.154 159.439C133.867 159.705 133.919 159.831 134.305 159.812C135.18 159.776 136.1 159.77 137.068 159.799C138.1 159.831 139.062 159.3 140.095 158.724M143.504 159.439C148.58 157.467 153.343 154.816 157.769 151.597C157.834 151.552 157.834 151.455 157.769 151.406C157.727 151.377 157.666 151.361 157.583 151.364C155.659 151.37 153.739 151.335 151.819 151.251C151.561 151.241 151.275 151.302 151.108 151.471C147.927 154.689 144.424 157.367 140.603 159.507C140.31 159.672 140.329 159.773 140.661 159.808C141.655 159.915 142.523 159.821 143.504 159.439ZM159.734 153.715C160.709 153.161 161.687 152.611 162.661 152.057C162.88 151.931 163.028 151.795 163.099 151.639C163.163 151.5 163.118 151.426 162.964 151.419C161.992 151.387 161.034 151.364 160.079 151.351C159.879 151.351 159.58 151.445 159.451 151.542C155.225 154.825 150.654 157.513 145.733 159.601C145.672 159.627 145.592 159.708 145.495 159.841C145.434 159.922 145.456 159.948 145.553 159.915C150.458 158.287 155.231 156.266 159.734 153.711M165.486 151.5C165.437 151.422 165.003 151.617 164.514 151.927C164.029 152.241 163.671 152.556 163.717 152.633C163.765 152.711 164.199 152.517 164.688 152.206C165.174 151.892 165.531 151.578 165.486 151.5ZM114.925 161.8C113.6 161.019 112.639 160.187 110.956 160.511C110.606 160.579 110.603 160.666 110.943 160.773L114.935 162.039C115.012 162.065 115.08 161.981 115.044 161.91C115.025 161.871 114.983 161.832 114.925 161.796M115.125 160.508C114.913 160.508 114.855 160.799 115.051 160.874L120.181 162.881C120.361 162.952 120.516 162.742 120.4 162.586L118.895 160.644C118.862 160.598 118.808 160.569 118.75 160.569L115.125 160.508ZM122.307 162.765C124.019 163.684 124.601 162.072 125.193 160.9C125.247 160.796 125.173 160.67 125.054 160.666L120.471 160.595C120.345 160.595 120.262 160.734 120.326 160.841C120.812 161.673 121.471 162.311 122.307 162.761M126.325 160.789L125.347 162.729C125.292 162.839 125.386 162.962 125.501 162.936C127.325 162.564 129.011 161.868 130.567 160.848C130.661 160.786 130.616 160.641 130.506 160.641L126.524 160.66C126.441 160.66 126.363 160.708 126.325 160.786M138.695 160.757C138.673 160.686 138.596 160.647 138.525 160.67L136.952 161.181C136.881 161.204 136.843 161.282 136.865 161.353V161.363C136.891 161.434 136.968 161.473 137.039 161.45L138.612 160.938C138.683 160.916 138.721 160.838 138.699 160.767V160.757M131.58 161.405C131.22 161.657 130.722 161.861 130.381 162.159C130.181 162.334 130.213 162.392 130.471 162.334C131.934 162.007 133.414 161.567 134.906 161.016C134.993 160.984 135.058 160.942 135.099 160.9C135.17 160.825 135.112 160.702 135.012 160.705C134.446 160.734 133.88 160.734 133.317 160.705C132.584 160.673 132.221 160.951 131.58 161.401V161.405Z" fill="url(#paint1_linear_528_1450)"/>
<path id="Vector_4" d="M159.969 169.244L159.574 167.923C159.535 167.797 159.606 167.664 159.728 167.622L163.752 166.317C163.877 166.275 164.016 166.346 164.054 166.472L166.1 173.039C166.138 173.168 166.068 173.304 165.939 173.343L163.472 174.097C163.347 174.136 163.215 174.065 163.173 173.939L161.671 169.143C161.629 169.011 161.484 168.939 161.355 168.991L160.284 169.399C160.156 169.448 160.011 169.377 159.969 169.244Z" fill="white"/>
<path id="Vector_5" d="M87.2894 169.208C86.8713 169.406 86.8777 169.597 87.3023 169.775C88.7401 170.387 92.8379 171.471 91.1653 173.871C89.7661 175.888 86.3984 174.803 84.7001 173.861C83.6644 173.281 83.0854 172.413 82.9632 171.258C82.9471 171.118 83.0822 171.005 83.2205 171.041C84.0375 171.264 84.8352 171.5 85.6136 171.743C86.6268 172.064 86.6879 173.068 88.1321 172.711C88.2158 172.692 88.2576 172.637 88.2576 172.553C88.2576 172.355 88.1514 172.213 87.9295 172.125C86.585 171.601 82.1076 170.309 84.1051 167.994C85.7294 166.113 88.5438 167.058 90.3933 168C91.4516 168.541 92.0691 169.435 92.2364 170.688C92.2589 170.863 92.0884 171.002 91.9244 170.937C91.1299 170.629 90.2968 170.367 89.4252 170.144C89.0874 170.056 88.7336 169.564 88.4731 169.386C88.0421 169.098 87.6464 169.036 87.2862 169.205L87.2894 169.208Z" fill="white"/>
<path id="Vector_6" d="M160.027 171.701C160.493 173.566 159.368 175.454 157.518 175.923L155.73 176.377C153.877 176.846 152.002 175.713 151.535 173.851L151.394 173.284C150.928 171.419 152.053 169.532 153.903 169.062L155.691 168.609C157.544 168.14 159.419 169.273 159.885 171.135L160.027 171.701ZM156.167 174.324C156.907 174.136 157.303 173.168 157.052 172.154C156.801 171.144 155.997 170.477 155.254 170.665C154.514 170.853 154.118 171.821 154.369 172.834C154.62 173.845 155.424 174.512 156.167 174.324Z" fill="white"/>
<path id="Vector_7" d="M95.1729 176.493C95.1439 176.61 95.0281 176.684 94.9091 176.655L92.3424 176.034C92.2266 176.004 92.1558 175.888 92.1815 175.768L93.7801 169.066C93.8091 168.949 93.9249 168.875 94.0439 168.904L96.6107 169.525C96.7265 169.555 96.7972 169.671 96.7715 169.791L95.1729 176.493Z" fill="white"/>
<path id="Vector_8" d="M100.783 173.145C100.715 173.103 100.631 173.145 100.615 173.22L99.9367 177.5C99.9174 177.63 99.7951 177.72 99.6665 177.701L97.1029 177.293C96.9518 177.27 96.8488 177.125 96.8745 176.976L98.055 170.15C98.0743 170.05 98.129 170.011 98.2287 170.024L101.352 170.542C101.548 170.574 101.719 170.694 101.822 170.869L104.556 175.625C104.781 176.014 104.925 175.988 104.996 175.541L105.617 171.465C105.63 171.381 105.707 171.326 105.791 171.338L108.505 171.785C108.628 171.805 108.708 171.921 108.686 172.044L107.515 178.86C107.499 178.947 107.415 179.012 107.325 178.999L104.295 178.527C104.038 178.484 103.813 178.329 103.677 178.099C102.777 176.513 101.883 174.936 100.988 173.369C100.937 173.278 100.866 173.207 100.779 173.152L100.783 173.145Z" fill="white"/>
<path id="Vector_9" d="M150.709 174.029C151.044 175.92 149.792 177.724 147.914 178.06L146.116 178.384C144.241 178.721 142.446 177.461 142.111 175.57L142.005 174.971C141.671 173.081 142.922 171.277 144.8 170.94L146.598 170.616C148.474 170.28 150.268 171.539 150.603 173.43L150.709 174.029ZM146.724 176.341C147.477 176.192 147.93 175.247 147.731 174.23C147.531 173.213 146.759 172.511 146.007 172.66C145.254 172.809 144.8 173.754 145 174.771C145.199 175.787 145.971 176.49 146.724 176.341Z" fill="white"/>
<path id="Vector_10" d="M136.08 177.442C136.042 177.449 136.013 177.487 136.019 177.529L136.029 177.604C136.035 177.662 136.067 177.688 136.128 177.682L140.96 177.261C141.088 177.251 141.204 177.348 141.214 177.478L141.31 178.792C141.323 178.944 141.249 179.032 141.098 179.048L133.06 179.854C132.96 179.864 132.867 179.793 132.854 179.696C132.741 179.012 132.696 178.287 132.722 177.523C132.767 176.092 136.363 175.26 137.563 174.913C137.746 174.861 137.872 174.693 137.865 174.499C137.859 174.224 137.676 174.062 137.315 174.003C136.128 173.809 135.932 174.609 134.961 174.703C134.15 174.784 133.346 174.861 132.548 174.942C132.449 174.952 132.372 174.861 132.394 174.764C132.639 173.676 133.288 172.928 134.343 172.524C136.479 171.698 140.68 171.322 141.185 174.327C141.522 176.335 137.463 177.118 136.087 177.449L136.08 177.442Z" fill="white"/>
<path id="Vector_11" d="M112.918 174.577C112.063 175.331 112.011 176.856 113.054 177.497C113.993 178.077 114.945 177.989 115.91 177.241C115.981 177.186 116.067 177.16 116.154 177.167L118.93 177.342C119.065 177.348 119.149 177.491 119.097 177.614C118.084 180.007 115.035 180.075 112.928 179.654C110.773 179.226 109.081 178.103 109.226 175.684C109.384 173.016 111.381 172.155 113.755 172.184C116.157 172.216 118.403 172.592 119.339 175.13C119.387 175.263 119.281 175.405 119.142 175.389C118.338 175.325 117.521 175.26 116.691 175.192C116.193 175.153 115.929 174.881 115.604 174.551C115.067 173.997 113.52 174.049 112.922 174.577H112.918Z" fill="white"/>
<path id="Vector_12" d="M123.649 178.193L128.943 178.21C129.081 178.21 129.187 178.32 129.187 178.456V179.751C129.187 179.887 129.078 179.997 128.943 179.997H120.689C120.551 179.997 120.445 179.89 120.445 179.751L120.432 172.951C120.432 172.815 120.545 172.705 120.677 172.705L128.557 172.689C128.695 172.689 128.805 172.802 128.801 172.942L128.779 174.334C128.779 174.467 128.666 174.577 128.534 174.577H123.687C123.552 174.577 123.443 174.68 123.443 174.816L123.427 175.425C123.42 175.564 123.533 175.681 123.671 175.681L127.746 175.661C127.885 175.661 127.994 175.775 127.994 175.911L127.988 176.837C127.988 176.973 127.878 177.083 127.743 177.083L123.681 177.102C123.552 177.102 123.446 177.206 123.436 177.335L123.401 177.925C123.395 178.067 123.504 178.187 123.645 178.187L123.649 178.193Z" fill="white"/>
<path id="Vector_13" d="M44.4906 73.3572C49.7142 72.9298 56.7133 73.9432 57.5335 80.4999C58.1221 85.1851 55.5489 88.5979 50.9847 89.566C44.9345 90.8547 34.6899 90.097 35.2979 81.1669C35.6613 75.8083 39.7688 73.7457 44.4906 73.3572ZM50.8496 81.3483C50.8464 79.3311 49.2189 77.6992 47.2182 77.7057H45.6485C43.6479 77.7121 42.0235 79.3473 42.03 81.3645V82.025C42.0364 84.0422 43.6607 85.6741 45.6646 85.6676H47.2343C49.2349 85.6611 50.8593 84.026 50.8528 82.0088V81.3483H50.8496Z" fill="white"/>
<path id="Vector_14" d="M216.119 83.563C217.22 86.2699 222.292 86.5095 223.92 84.0941C224.019 83.9484 224.183 83.8609 224.36 83.8609L230.861 83.8674C231.002 83.8674 231.105 84.0066 231.063 84.1394C230.105 87.306 227.654 88.9638 224.576 89.6049C219.371 90.6799 210.24 90.3658 209.153 83.3299C208.467 78.894 210.484 75.2449 214.817 74.0372C219.97 72.6028 229.063 72.6287 231.079 79.2793C231.112 79.3797 231.034 79.4866 230.928 79.4866L224.367 79.4963C224.177 79.4963 223.997 79.4024 223.884 79.247C223.369 78.5152 222.649 78.0522 221.758 77.832C219.529 77.288 216.901 77.7899 215.984 80.1859C215.589 81.2253 215.634 82.3488 216.126 83.5598L216.119 83.563Z" fill="white"/>
<path id="Vector_15" d="M17.0568 79.4639C17.0375 79.4542 17.015 79.4639 17.0086 79.4834L13.2292 89.4981C13.1745 89.6438 13.0684 89.7183 12.9172 89.7183L7.79655 89.7086C7.64859 89.7086 7.54244 89.6406 7.47811 89.5046L0.0158411 73.8916C-0.0324063 73.7912 0.0383566 73.6714 0.15415 73.6714H6.39415C6.58393 73.6714 6.7544 73.7912 6.82516 73.9693L10.5113 83.4206C10.6238 83.7088 10.7396 83.712 10.8619 83.4271L14.9018 73.8106C14.9404 73.72 15.0111 73.6714 15.1109 73.6714L18.9835 73.6779C19.1186 73.6779 19.2376 73.7588 19.2891 73.8818L23.403 83.6505C23.4319 83.7218 23.5316 83.7218 23.5606 83.6505L27.385 73.8754C27.43 73.7588 27.5426 73.6811 27.6681 73.6811L34.0239 73.6746C34.1332 73.6746 34.204 73.788 34.1557 73.8851L26.6903 89.5143C26.6291 89.6438 26.4973 89.7248 26.3557 89.7248H21.1257C21.0549 89.7248 20.9938 89.6794 20.9681 89.6115C19.7298 86.3056 18.4817 82.9868 17.2241 79.6517C17.1919 79.5708 17.1373 79.5093 17.0633 79.4704L17.0568 79.4639Z" fill="white"/>
<path id="Vector_16" d="M180.355 85.9332L180.33 89.5176C180.33 89.6276 180.236 89.7183 180.127 89.7183L161.323 89.7248C161.211 89.7248 161.121 89.6341 161.121 89.5208L161.114 73.8754C161.114 73.762 161.204 73.6714 161.317 73.6714H179.223C179.333 73.6714 179.423 73.7588 179.426 73.8689L179.448 77.4241C179.448 77.5374 179.361 77.6313 179.246 77.6313L168.014 77.6216C167.901 77.6216 167.808 77.7123 167.811 77.8288L167.827 79.9334C167.827 80.0435 167.92 80.1342 168.03 80.1342L177.454 80.1277C177.567 80.1277 177.657 80.2184 177.66 80.3317L177.676 83.0224C177.676 83.1357 177.589 83.2296 177.473 83.2296L168.033 83.2037C167.92 83.2037 167.83 83.2944 167.83 83.4077L167.814 85.5285C167.814 85.6418 167.904 85.7325 168.017 85.7325H180.153C180.265 85.7325 180.359 85.8231 180.355 85.9397V85.9332Z" fill="white"/>
<path id="Vector_17" d="M240.713 85.7258H252.794C252.907 85.7258 253 85.8197 253 85.933V89.5141C253 89.6275 252.907 89.7214 252.794 89.7214L234.013 89.7278C233.9 89.7278 233.807 89.6372 233.807 89.5206L233.801 73.8752C233.801 73.7619 233.891 73.668 234.007 73.668H251.923C252.035 73.668 252.128 73.7586 252.128 73.872L252.116 77.4207C252.116 77.534 252.025 77.6279 251.91 77.6279L240.694 77.6182C240.581 77.6182 240.488 77.7121 240.488 77.8254L240.507 79.9268C240.507 80.0401 240.6 80.1308 240.713 80.1308L250.121 80.1243C250.234 80.1243 250.327 80.215 250.327 80.3315L250.334 83.0157C250.334 83.129 250.24 83.2229 250.128 83.2229L240.7 83.2035C240.588 83.2035 240.494 83.2974 240.494 83.4107L240.507 85.5186C240.507 85.6319 240.597 85.7258 240.713 85.7258Z" fill="white"/>
<path id="Vector_18" d="M79.2993 83.874C79.1835 83.9614 79.1868 84.0456 79.3058 84.1233C80.5248 84.9036 81.2196 85.807 81.3997 86.8269C81.567 87.7756 81.7728 88.7081 82.0237 89.6212C82.0366 89.673 81.998 89.7216 81.9465 89.7216L75.922 89.7021C75.7451 89.7021 75.5843 89.5888 75.5264 89.4237C74.7576 87.3223 74.7126 85.1594 71.9271 85.1011C70.3446 85.0687 68.7685 85.059 67.1989 85.0784C67.0895 85.0784 67.0059 85.1659 67.0059 85.2759L67.0123 89.4819C67.0123 89.6115 66.9062 89.7183 66.7775 89.7183L60.5439 89.7054C60.4346 89.7054 60.3477 89.6179 60.3477 89.5079L60.3413 73.8106C60.3413 73.7297 60.3799 73.6908 60.4603 73.6908C66.2082 73.6325 70.6148 73.639 73.6769 73.7038C75.2401 73.7362 76.8966 74.0373 78.6464 74.6039C82.3389 75.8019 83.3135 80.4677 80.5248 83.0969C80.1871 83.4174 79.6628 83.5955 79.2993 83.8707M66.9802 77.8968L66.9962 80.8562C66.9962 81.0117 67.1217 81.1379 67.2793 81.1379L71.8146 81.1153C73.7766 81.1056 75.3656 80.4515 75.3623 79.6582L75.3559 79.0107C75.3559 78.2174 73.7573 77.5795 71.792 77.5892L67.2568 77.6119C67.1056 77.6119 66.9802 77.7382 66.9802 77.8936V77.8968Z" fill="white"/>
<path id="Vector_19" d="M91.5574 85.7161H103.169C103.259 85.7161 103.336 85.7906 103.336 85.8812L103.304 89.5433C103.304 89.6307 103.23 89.7052 103.143 89.7052L84.851 89.7149C84.761 89.7149 84.687 89.6404 84.687 89.5498V73.8331C84.687 73.7424 84.7578 73.668 84.8478 73.668H91.2422C91.3323 73.668 91.4063 73.7392 91.4063 73.8299L91.3966 85.551C91.3966 85.6416 91.4706 85.7161 91.5607 85.7161H91.5574Z" fill="white"/>
<path id="Vector_20" d="M105.546 74.0922C105.546 73.8623 105.733 73.6745 105.961 73.6778L119.104 73.6972C124.25 73.7069 128.416 76.6404 128.409 80.2539L128.403 83.1971C128.396 86.8074 124.221 89.7279 119.078 89.715L105.935 89.6955C105.704 89.6955 105.521 89.5078 105.521 89.2746L105.546 74.089M112.253 77.8935L112.227 85.4377C112.227 85.577 112.339 85.6935 112.481 85.6935L116.83 85.7097C119.413 85.7162 121.516 84.2235 121.519 82.3682L121.526 81.0245C121.532 79.1725 119.442 77.6604 116.855 77.6539L112.507 77.6377C112.368 77.6377 112.253 77.751 112.253 77.8935Z" fill="white"/>
<path id="Vector_21" d="M143.675 85.0816C143.54 85.0816 143.43 85.1949 143.43 85.3277V89.5466C143.43 89.6599 143.372 89.7182 143.26 89.7182L136.981 89.7118C136.83 89.7118 136.711 89.5887 136.711 89.4365V73.8688C136.711 73.7393 136.772 73.6746 136.904 73.6746C140.767 73.6616 144.633 73.6616 148.496 73.681C151.6 73.6972 157.094 73.9142 158.239 77.6507C158.937 79.9237 158.249 82.6208 155.955 83.7476C152.517 85.441 147.689 85.0557 143.678 85.0848M143.414 77.9388V80.7623C143.414 80.9565 143.572 81.1152 143.765 81.1152H148.313C150.233 81.1152 151.79 80.4935 151.79 79.7326V78.9652C151.79 78.2011 150.233 77.5827 148.313 77.5827H143.765C143.572 77.5827 143.414 77.7413 143.414 77.9356V77.9388Z" fill="white"/>
<path id="Vector_22" d="M199.658 87.1021H189.719C189.664 87.1021 189.616 87.1312 189.587 87.1798L188.242 89.6309C188.213 89.6794 188.165 89.7086 188.11 89.7086L181.636 89.7215C181.517 89.7215 181.446 89.5888 181.51 89.4884L191.52 73.7426C191.549 73.6973 191.594 73.6714 191.645 73.6714H197.712C197.763 73.6714 197.811 73.6973 197.837 73.7426L207.847 89.4852C207.908 89.5855 207.84 89.7183 207.721 89.7183L201.259 89.7086C201.205 89.7086 201.157 89.6794 201.128 89.6309L199.79 87.1798C199.761 87.1345 199.712 87.1021 199.658 87.1021ZM197.12 83.0871C197.268 83.0871 197.358 82.9285 197.287 82.799L194.846 78.5444C194.772 78.4181 194.588 78.4181 194.514 78.5444L192.109 82.7763C192.035 82.9058 192.128 83.0645 192.276 83.0645L197.12 83.0839V83.0871Z" fill="white"/>
</g>
<defs>
<linearGradient id="paint0_linear_528_1450" x1="44.1208" y1="34.176" x2="204.589" y2="34.176" gradientUnits="userSpaceOnUse">
<stop stop-color="#9EACC7"/>
<stop offset="1" stop-color="#E7A9D8"/>
</linearGradient>
<linearGradient id="paint1_linear_528_1450" x1="44.1786" y1="129.894" x2="204.595" y2="129.894" gradientUnits="userSpaceOnUse">
<stop stop-color="#9EACC7"/>
<stop offset="1" stop-color="#E7A9D8"/>
</linearGradient>
<clipPath id="clip0_528_1450">
<rect width="253" height="180" fill="white"/>
</clipPath>
</defs>
</svg>
